<svg width="51" height="50" viewBox="0 0 51 50" fill="none" xmlns="http://www.w3.org/2000/svg">
<path d="M42.5424 0.231445H7.70613C3.58337 0.231445 0.241211 3.5736 0.241211 7.69636V42.5326C0.241211 46.6554 3.58337 49.9975 7.70613 49.9975H42.5424C46.6652 49.9975 50.0073 46.6554 50.0073 42.5326V7.69636C50.0073 3.5736 46.6652 0.231445 42.5424 0.231445Z" fill="#1877F2"/>
<path d="M34.8059 32.31L35.914 25.1172H29.0129V20.4516C29.0129 18.4882 29.9751 16.5637 33.0661 16.5637H36.2056V10.4401C36.2056 10.4401 33.3577 9.9541 30.6361 9.9541C24.9499 9.9541 21.2369 13.395 21.2369 19.6352V25.1172H14.9189V32.31H21.2369V50.0003H29.0129V32.31H34.8059Z" fill="white"/>
</svg>
