<svg width="37" height="37" viewBox="0 0 37 37" fill="none" xmlns="http://www.w3.org/2000/svg">
<path d="M30.9075 0.00390625H5.56656C2.56754 0.00390625 0.136353 2.43509 0.136353 5.43411V30.7751C0.136353 33.7741 2.56754 36.2053 5.56656 36.2053H30.9075C33.9065 36.2053 36.3377 33.7741 36.3377 30.7751V5.43411C36.3377 2.43509 33.9065 0.00390625 30.9075 0.00390625Z" fill="black"/>
<path d="M30.9075 0.00390625H5.56656C2.56754 0.00390625 0.136353 2.43509 0.136353 5.43411V30.7751C0.136353 33.7741 2.56754 36.2053 5.56656 36.2053H30.9075C33.9065 36.2053 36.3377 33.7741 36.3377 30.7751V5.43411C36.3377 2.43509 33.9065 0.00390625 30.9075 0.00390625Z" fill="url(#paint0_radial_514_2469)"/>
<path d="M30.9075 0.00390625H5.56656C2.56754 0.00390625 0.136353 2.43509 0.136353 5.43411V30.7751C0.136353 33.7741 2.56754 36.2053 5.56656 36.2053H30.9075C33.9065 36.2053 36.3377 33.7741 36.3377 30.7751V5.43411C36.3377 2.43509 33.9065 0.00390625 30.9075 0.00390625Z" fill="url(#paint1_linear_514_2469)"/>
<path d="M23.3986 7.21777H13.0756C9.91253 7.21777 7.34839 9.78191 7.34839 12.9449V23.268C7.34839 26.431 9.91253 28.9952 13.0756 28.9952H23.3986C26.5616 28.9952 29.1258 26.431 29.1258 23.268V12.9449C29.1258 9.78191 26.5616 7.21777 23.3986 7.21777Z" stroke="white" stroke-width="4.17737"/>
<path d="M18.2374 23.1963C21.0489 23.1963 23.3282 20.917 23.3282 18.1055C23.3282 15.2939 21.0489 13.0146 18.2374 13.0146C15.4258 13.0146 13.1465 15.2939 13.1465 18.1055C13.1465 20.917 15.4258 23.1963 18.2374 23.1963Z" stroke="white" stroke-width="4.17737"/>
<path d="M24.6716 12.0974C24.9062 12.0974 25.0963 11.9073 25.0963 11.6727C25.0963 11.4382 24.9062 11.248 24.6716 11.248C24.4371 11.248 24.2469 11.4382 24.2469 11.6727C24.2469 11.9073 24.4371 12.0974 24.6716 12.0974Z" stroke="white" stroke-width="4.17737"/>
<defs>
<radialGradient id="paint0_radial_514_2469" cx="0" cy="0" r="1" gradientUnits="userSpaceOnUse" gradientTransform="translate(14.6169 36.2053) scale(36.2014)">
<stop offset="0.1" stop-color="#FFDD55"/>
<stop offset="0.5" stop-color="#FF543E"/>
<stop offset="1" stop-color="#C837AB"/>
</radialGradient>
<linearGradient id="paint1_linear_514_2469" x1="0.136353" y1="0.00390625" x2="7.37662" y2="36.2053" gradientUnits="userSpaceOnUse">
<stop offset="0.1" stop-color="#3771C8"/>
<stop offset="0.5" stop-color="#6600FF" stop-opacity="0"/>
</linearGradient>
</defs>
</svg>
