<svg width="37" height="37" viewBox="0 0 37 37" fill="none" xmlns="http://www.w3.org/2000/svg">
<path d="M31.0683 0.00292969H5.72732C2.7283 0.00292969 0.297119 2.43411 0.297119 5.43313V30.7741C0.297119 33.7731 2.7283 36.2043 5.72732 36.2043H31.0683C34.0673 36.2043 36.4985 33.7731 36.4985 30.7741V5.43313C36.4985 2.43411 34.0673 0.00292969 31.0683 0.00292969Z" fill="white"/>
<mask id="mask0_514_2456" style="mask-type:luminance" maskUnits="userSpaceOnUse" x="0" y="0" width="37" height="37">
<path d="M31.0686 0H5.72769C2.72867 0 0.297485 2.43119 0.297485 5.4302V30.7712C0.297485 33.7702 2.72867 36.2014 5.72769 36.2014H31.0686C34.0677 36.2014 36.4988 33.7702 36.4988 30.7712V5.4302C36.4988 2.43119 34.0677 0 31.0686 0Z" fill="white"/>
</mask>
<g mask="url(#mask0_514_2456)">
<path d="M0.297485 36.2014V0H36.4988L0.297485 36.2014Z" fill="#35A85B"/>
<path d="M18.3983 20.3633L2.56024 36.2014H34.2364L18.3983 20.3633Z" fill="#5881CA"/>
<path d="M20.6607 18.1008L36.4988 2.2627V33.9389L20.6607 18.1008Z" fill="#C1C0BE"/>
<path d="M0.297485 36.2014L36.4988 0L0.297485 36.2014Z" fill="black"/>
<path d="M0.297485 36.2014L36.4988 0" stroke="#FADB2A" stroke-width="9.88643"/>
<path d="M12.6709 12.2318H16.2062C16.1705 13.1052 15.8583 13.9389 15.3218 14.5936C14.7854 15.2483 14.0571 15.6843 13.2588 15.8288C12.4604 15.9733 11.6403 15.8176 10.9355 15.3876C10.2307 14.9576 9.68392 14.2794 9.38645 13.4663C9.08899 12.6532 9.05889 11.7545 9.30119 10.9204C9.54349 10.0862 10.0435 9.36713 10.7177 8.88326C11.3919 8.39939 12.1994 8.18005 13.0053 8.26189C13.8113 8.34373 14.5668 8.7218 15.1456 9.33291" stroke="#F2F2F2" stroke-width="3.0634"/>
<path d="M25.257 6.00995C25.257 4.69729 25.7785 3.43839 26.7067 2.51019C27.6349 1.582 28.8938 1.06055 30.2064 1.06055C31.5191 1.06055 32.778 1.582 33.7062 2.51019C34.6344 3.43839 35.1558 4.69729 35.1558 6.00995C35.1558 10.9594 30.2064 10.9594 30.2064 17.1108C30.2064 10.9594 25.257 10.9594 25.257 6.00995Z" fill="#DE3738"/>
<path d="M30.2069 8.0597C31.1831 8.0597 31.9745 7.2683 31.9745 6.29206C31.9745 5.31582 31.1831 4.52441 30.2069 4.52441C29.2306 4.52441 28.4392 5.31582 28.4392 6.29206C28.4392 7.2683 29.2306 8.0597 30.2069 8.0597Z" fill="#7D2426"/>
</g>
</svg>
