<svg width="140" height="96" viewBox="0 0 140 96" fill="none" xmlns="http://www.w3.org/2000/svg">
<path d="M23.2967 44.6531L22.9541 44.6468L22.6346 44.6149L22.3112 44.5098L21.9865 44.3804L21.7311 44.1739L21.4974 43.9173L21.3112 43.6338L21.1969 43.3221L21.1069 43.009L21.0888 42.6677L20.8715 38.5719L22.4447 38.7329L22.8734 38.9791L22.4719 39.2449L22.6569 42.7312L22.7121 42.8505L22.7404 42.9224L22.7443 42.9955L22.7686 42.9942L22.7943 43.0173L22.8444 43.0391L22.9188 43.0596L23.042 43.0775L23.2126 43.0684L31.7456 42.6156L32.3524 39.3073L32.5961 39.2944L32.5257 42.5742L33.0057 42.8666L33.3486 43.3373L33.0562 43.8174L32.6098 44.1589L23.2967 44.6531ZM15.7541 44.4177L15.2946 44.0509L15.2135 43.444L15.579 42.9601L15.9369 42.7944L16.2666 42.5569L16.5462 42.2976L16.8233 41.9895L17.0489 41.6352L17.2707 41.2078L17.4399 40.7099L17.5821 40.1645L17.696 39.5472L17.7342 38.8851L17.978 38.8722L18.0874 39.5509L18.1955 40.2053L18.2047 40.8404L18.1626 41.4294L18.023 42.0236L17.8321 42.5716L17.5641 43.0503L17.2474 43.5317L16.8292 43.945L16.361 44.3366L15.7541 44.4177ZM36.8539 42.589L36.2418 42.5726L35.8284 42.1545L35.6858 41.7709L35.5188 41.3885L35.3031 41.0088L35.0386 40.6317L34.3864 39.8595L33.5405 39.122L33.0296 38.7091L32.4726 38.3475L32.5841 38.146L33.8533 38.5676L34.4296 38.8304L34.9597 39.1445L35.441 39.4612L35.9006 39.828L36.3126 40.2218L36.6759 40.6181L36.9931 41.0658L37.2627 41.5405L37.2707 42.1513L36.8539 42.589ZM28.274 41.2351L27.7452 40.9454L27.5333 40.6388L27.3202 40.3078L27.0596 40.0038L26.4665 39.4241L26.1083 39.1253L25.7515 38.8508L24.939 38.2827L24.4616 38.0391L24.5474 37.8145L25.5856 38.0284L26.0823 38.1732L26.5558 38.3436L27.032 38.5628L27.4594 38.7846L27.865 39.0565L28.2706 39.3283L28.6544 39.6503L28.9894 39.9748L29.1424 40.5534L28.8526 41.0822L28.274 41.2351ZM14.7154 40.0477L14.5357 39.8861L14.8704 39.2815L15.1537 38.6309L15.4113 37.9571L15.6176 37.2371L15.7712 36.4466L15.8966 35.5843L15.9719 34.7001L15.9946 33.7454L15.9646 32.7202L15.9077 31.6475L15.5455 24.8212L17.1472 25.5185L27.4598 24.9713L26.9619 22.0394L26.9233 21.7725L28.5145 21.8103L28.9663 22.0308L28.6135 22.2941L29.0445 24.8872L33.0184 24.6763L34.2663 23.3143L35.8952 24.5236L35.9237 25.06L29.1705 25.4183L29.6526 27.5931L30.3401 29.9526L31.1083 31.9899L31.3623 31.7075L31.9958 30.7449L32.5317 29.7874L32.9676 28.7863L33.3687 27.5915L34.7984 28.2735L35.0873 28.6494L34.6049 28.7728L34.3434 29.3734L33.7651 30.4554L33.1099 31.4681L32.3314 32.4629L31.6837 33.1574L31.956 33.6808L32.8573 35.0021L33.8137 35.9781L34.8021 36.6347L35.848 36.9948L36.2176 37.0485L36.7795 33.816L37.0477 33.8018L36.9772 37.0816L37.5265 37.2969L37.7757 37.846L37.5847 38.394L37.0369 38.6676L35.515 38.5527L34.0956 38.0657L32.8031 37.2053L31.6388 35.9958L30.5795 34.4628L30.496 34.2717L29.3941 35.1614L28.2383 35.9562L26.958 36.7087L25.602 37.4163L25.4672 37.179L26.6922 36.3072L27.8172 35.3918L28.8446 34.4815L29.7989 33.5752L30.0298 33.3185L29.674 32.6039L28.8519 30.4716L28.1322 27.9672L27.5858 25.5024L17.1756 26.0549L17.468 31.5647L17.4557 32.7144L17.3907 33.7936L17.2744 34.8266L17.1067 35.8134L16.8607 36.7066L16.5621 37.5293L16.2121 38.3058L15.7839 38.9886L15.2773 39.5778L14.7154 40.0477ZM19.8428 36.6951L19.4948 30.1369L21.1209 30.833L24.656 30.6454L25.4012 29.9457L26.903 31.064L26.2963 31.6096L26.4567 34.6327L24.9134 35.497L24.872 34.7168L21.337 34.9044L21.3848 35.8065L19.8428 36.6951ZM21.3085 34.368L24.8436 34.1805L24.6844 31.1817L21.1494 31.3693L21.3085 34.368ZM18.6448 28.8618L18.6176 28.3498L24.7613 28.0238L25.7706 26.7723L27.1505 27.897L27.1777 28.409L18.6448 28.8618ZM32.5112 23.8719L31.9606 23.6322L31.931 23.536L31.8758 23.4167L31.7462 23.2769L31.5664 23.1153L31.1069 22.7485L30.8027 22.5446L30.0968 22.142L29.6733 21.9933L29.7335 21.7456L30.1788 21.8443L30.6202 21.8697L31.0142 21.9222L31.7302 22.0553L32.3488 22.1936L32.6221 22.2769L32.8737 22.4103L33.1009 22.5449L33.3013 23.0966L33.0859 23.6459L32.5112 23.8719Z" fill="#D9D9D9"/>
<path d="M62.1206 49.4889L62.3116 48.7314L60.8683 47.9646L60.9638 47.5859L62.5026 47.9738L62.6506 47.986L62.7749 47.9922L62.8519 47.9864L62.9052 47.9747L62.9585 47.9629L62.9645 47.9392L62.9941 47.9215L63.0417 47.8328L63.0952 47.7204L63.131 47.5784L66.4377 34.4634L62.0818 33.3652L62.2072 32.868L66.563 33.9663L68.2343 27.3378L69.7074 27.9862L70.0205 28.3421L69.588 28.4596L68.1018 34.3543L68.5752 34.4736L69.3344 33.8593L69.9009 34.8079L69.7756 35.305L67.9764 34.8514L64.6698 47.9663L64.5685 48.2681L64.4376 48.5876L64.2416 48.8655L64.028 49.1138L63.7492 49.3205L63.4351 49.4679L63.1093 49.562L62.7776 49.5791L62.4579 49.5488L62.1206 49.4889ZM55.3737 47.7878L55.5647 47.0303L53.1272 46.0129L53.2227 45.6341L55.7557 46.2728L55.9274 46.2909L56.0517 46.297L56.1287 46.2913L56.182 46.2795L56.2116 46.2618L56.2413 46.2441L56.2709 46.2264L56.3185 46.1377L56.3483 46.0193L56.4078 45.8833L57.3927 41.9772L56.42 42.7391L55.3348 43.5481L54.2202 44.2742L53.0938 44.947L51.9379 45.5368L50.7823 46.0259L50.6584 45.8184L52.716 44.3482L54.7325 42.7416L55.729 41.885L57.1824 40.5142L55.6068 40.7716L53.2791 41.1163L52.9592 41.1867L52.6918 41.648L52.4143 41.2507L52.0207 39.7163L52.3049 39.6873L52.7076 39.6881L53.5542 39.7253L56.5983 27.652L57.9224 28.7915L58.0768 28.5787L58.3262 28.1884L58.8133 27.4551L59.0271 27.1062L59.235 26.7809L59.5975 26.1421L59.7698 25.8583L59.8589 25.7045L59.8352 25.6985L60.0252 25.4443L61.1599 26.5361L61.3248 26.9805L60.7625 26.9142L60.0803 27.5228L59.4457 28.0426L58.7341 28.5681L58.3368 28.8456L58.2715 28.9047L60.5441 29.4777L61.4628 29.0295L62.5731 30.518L61.8026 30.8777L60.203 37.2221L60.6719 36.6605L61.759 37.841L61.8706 38.2972L61.4148 38.2075L59.6646 39.9566L59.4688 40.1339L57.9229 46.2653L57.8453 46.573L57.6907 46.8865L57.5184 47.1704L57.2811 47.4127L57.0024 47.6194L56.7119 47.7728L56.3861 47.8668L56.0308 47.878L55.7111 47.8477L55.3737 47.7878ZM43.7975 44.8691L45.7552 37.1043L47.103 38.2498L50.0148 38.984L50.9335 38.5358L52.0378 40.0479L51.2732 40.3839L50.0496 45.2369L48.3436 45.6125L48.6659 44.3341L45.7541 43.6L45.5272 44.4996L43.7975 44.8691ZM45.8794 43.1028L48.7912 43.837L49.8835 39.5048L46.9717 38.7706L45.8794 43.1028ZM63.0235 42.1128L62.4852 41.8512L62.2968 41.3001L62.3512 40.7851L62.3818 40.2641L62.3888 39.7371L62.3661 39.2278L62.3435 38.7185L62.1798 37.6702L61.9273 36.5742L61.7626 36.0291L61.9642 35.9289L62.655 36.8836L62.9264 37.4052L63.1681 37.9445L63.3861 38.4779L63.5508 39.023L63.6799 39.6094L63.7616 40.1839L63.8374 40.7822L63.8599 41.3921L63.6042 41.9067L63.0235 42.1128ZM55.1825 39.7582L57.0002 39.8388L57.7936 39.8878L57.9657 39.7045L58.6521 36.9821L56.048 36.3256L55.1825 39.7582ZM46.4281 35.2345L46.5534 34.7374L49.844 35.5671L51.1721 34.6934L52.164 36.152L52.0386 36.6491L46.4281 35.2345ZM56.1793 35.8048L58.7834 36.4613L59.5832 33.2891L56.9791 32.6325L56.1793 35.8048ZM47.2577 31.944L47.3891 31.4231L50.6796 32.2528L52.0078 31.3791L52.9996 32.8377L52.8683 33.3586L47.2577 31.944ZM57.1104 32.1117L59.7145 32.7683L60.4188 29.9749L57.8148 29.3183L57.1104 32.1117ZM47.7566 28.2678L47.8819 27.7707L51.9774 28.8033L53.5781 27.8473L54.7708 29.5076L54.6455 30.0047L47.7566 28.2678ZM48.9947 25.0551L49.12 24.5579L52.4106 25.3876L53.7447 24.4902L54.7305 25.9725L54.6052 26.4696L48.9947 25.0551Z" fill="#D9D9D9"/>
<path d="M85.414 61.3399L85.8203 60.6726L84.2302 59.2469L84.4334 58.9133L86.2267 60.0053L86.3645 60.0607L86.4815 60.1033L86.6111 60.1251L86.6782 60.1088L86.7834 60.0299L86.8677 59.9384L86.9648 59.8259L88.8822 56.6773L80.9167 51.8266L78.2501 56.2056L76.4884 56.0474L83.3073 44.8499L82.1149 45.3529L80.3693 45.9193L78.6456 46.356L76.9019 46.6376L75.1719 46.7561L75.1483 46.5131L76.8004 46.1471L78.4616 45.6723L80.0984 45.0968L81.7315 44.4334L83.332 43.6358L84.4247 43.0149L84.4755 42.9315L84.5045 42.9778L86.4932 41.7305L87.2041 41.2202L80.7192 37.2711L80.9858 36.8332L87.6585 40.8966L89.6282 39.3519L91.3421 37.8516L92.2296 39.1638L92.2893 39.629L91.8423 39.4711L90.5709 40.5263L88.9721 41.6966L97.7925 47.0678L99.6042 46.6275L100.253 48.5662L99.9864 49.0041L88.497 42.0075L87.2102 42.8532L85.5208 43.7967L85.1426 43.9952L85.4118 44.445L93.3773 49.2957L94.3874 49.139L95.0082 50.8891L94.1658 51.005L88.2993 60.6386L88.1134 60.897L87.8939 61.1635L87.6454 61.3838L87.3471 61.5452L87.0197 61.6602L86.6761 61.7082L86.337 61.7018L86.0151 61.6202L85.6978 61.4841L85.414 61.3399ZM81.1834 51.3887L89.1489 56.2394L90.9901 53.2159L83.0246 48.3652L81.1834 51.3887ZM83.304 47.9065L91.2694 52.7571L93.1106 49.7336L85.1452 44.8829L83.304 47.9065Z" fill="#D9D9D9"/>
<path d="M104.075 78.5707L104.661 78.0533L103.563 76.2214L103.856 75.9627L105.246 77.5359L105.378 77.6478L105.477 77.7231L105.544 77.7618L105.576 77.7984L105.61 77.8005L105.645 77.8026L105.698 77.7886L105.769 77.7584L105.86 77.6776L106.004 77.5827L117.694 67.2512L115.349 64.5987L114.154 64.9056L112.908 65.192L111.685 65.3933L110.432 65.5235L109.199 65.6032L107.936 65.6118L107.916 65.3684L110.318 64.842L112.692 64.21L113.839 63.8483L114.971 63.4339L116.124 62.9688L117.227 62.4833L118.333 61.9289L119.316 61.4187L119.3 61.4004L119.62 61.2472L120.133 62.749L120.087 63.2132L119.67 62.9626L118.976 63.283L117.787 63.7804L116.567 64.2068L115.897 64.4077L122.413 71.7798L122.516 71.7862L123.424 71.9286L123.482 73.8002L122.769 73.5832L122.366 73.3854L119.766 73.7613L118.583 73.8613L117.938 73.9426L117.9 73.7154L118.469 73.4737L119.571 72.9882L121.024 72.4206L121.432 72.2555L121.84 72.0904L121.93 72.044L118.728 68.422L107.039 78.7534L106.783 78.9798L106.497 79.1351L106.194 79.2721L105.843 79.3542L105.515 79.3513L105.172 79.2956L104.866 79.2075L104.567 79.0161L104.32 78.8106L104.075 78.5707ZM97.4626 71.0888L107.945 61.8245L106.636 62.0032L105.14 62.1531L103.631 62.2157L102.159 62.246L102.139 62.0027L106.483 61.1289L109.396 60.4438L112.302 59.6025L115.216 58.6234L116.667 58.0902L116.862 58.0157L117.198 59.5758L117.083 60.0357L116.705 59.7184L114.167 60.4958L112.655 60.8869L109.64 61.5312L109.36 61.5831L109.803 62.2676L109.86 62.7382L109.418 62.6072L99.0827 71.7422L97.4626 71.0888ZM101.612 71.9501L101.593 71.7067L104.602 70.8718L106.581 70.1982L107.555 69.8258L108.479 69.4331L109.423 68.9897L110.385 68.5302L111.299 68.0157L111.315 68.034L111.512 67.9251L112.025 69.4269L111.979 69.8911L111.562 69.6405L110.001 70.2707L108.974 70.6571L107.933 70.9907L105.843 71.5018L104.794 71.6793L103.748 71.8223L102.687 71.9125L101.612 71.9501ZM111.956 82.3256L111.641 81.8219L111.728 81.2564L112.222 80.5259L112.701 79.7771L113.607 78.2591L114.417 76.6312L115.909 73.1948L116.13 73.2603L116.036 74.2231L115.838 75.1795L115.627 76.0832L115.048 77.8982L114.701 78.7589L113.956 80.4599L113.524 81.298L113.059 82.0996L112.553 82.4489L111.956 82.3256Z" fill="#D9D9D9"/>
</svg>
