<svg width="178" height="130" viewBox="0 0 178 130" fill="none" xmlns="http://www.w3.org/2000/svg">
<path d="M25.5635 124.562C25.417 124.644 25.2786 124.685 25.1484 124.685C25.0345 124.685 24.9287 124.636 24.8311 124.538C24.7334 124.44 24.6846 124.27 24.6846 124.025V117.458C24.6846 117.214 24.7253 117.051 24.8066 116.97C24.9043 116.872 25.0101 116.823 25.124 116.823C25.2542 116.823 25.4007 116.864 25.5635 116.945L26.418 117.385H30.373L30.5684 117.214C30.7962 117.035 31.016 116.945 31.2275 116.945C31.4391 116.945 31.6589 117.035 31.8867 117.214L32.2285 117.531L32.3262 117.873C32.2122 118.361 32.1553 118.833 32.1553 119.289V122.878C32.1553 123.415 31.9111 123.798 31.4229 124.025L31.1543 124.172C30.9915 124.253 30.8532 124.294 30.7393 124.294C30.6253 124.294 30.5195 124.245 30.4219 124.147C30.3242 124.05 30.2754 123.895 30.2754 123.684C30.2754 123.488 30.2428 123.358 30.1777 123.293C30.1126 123.228 29.9987 123.195 29.8359 123.195H27.1504L26.7842 123.391C26.5889 123.863 26.2633 124.204 25.8076 124.416L25.5635 124.562ZM36.5986 122.341V116.164C36.5986 115.904 36.6556 115.708 36.7695 115.578C36.8997 115.448 37.0706 115.383 37.2822 115.383C37.5915 115.383 37.8519 115.497 38.0635 115.725C38.2751 115.936 38.4053 116.254 38.4541 116.677L38.9424 121.828C38.9587 122.007 39.0156 122.146 39.1133 122.243C39.2109 122.341 39.3656 122.39 39.5771 122.39H42.2383C42.4661 122.39 42.637 122.333 42.751 122.219C42.8486 122.121 42.9219 121.975 42.9707 121.779L43.6299 119.436C43.7438 119.305 43.8333 119.24 43.8984 119.24C43.9635 119.24 44.0205 119.265 44.0693 119.313C44.1182 119.362 44.1426 119.452 44.1426 119.582C44.1426 119.598 44.1019 120.005 44.0205 120.803C43.9554 121.6 43.9229 122.007 43.9229 122.023C43.9229 122.316 44.0612 122.561 44.3379 122.756C44.4681 122.951 44.5332 123.138 44.5332 123.317C44.5332 123.496 44.4681 123.684 44.3379 123.879L43.8008 124.245H38.8447L38.4785 124.221L38.1123 124.172L37.7705 124.05L37.4531 123.879L37.1602 123.635L36.9648 123.342L36.7695 123.024L36.6719 122.683L36.5986 122.341ZM35.3779 116.481C35.4268 116.481 35.4674 116.498 35.5 116.53C35.5814 116.612 35.6383 116.815 35.6709 117.141L35.6953 118.02V118.85L35.6465 119.655L35.5732 120.388L35.4512 121.071L35.3047 121.73L35.1338 122.292L34.8896 122.878L34.6455 123.391L34.0352 123.757L33.3271 123.61L32.9609 123.024L33.0586 122.365L33.3271 121.999L33.5713 121.633L33.791 121.193L33.9863 120.656L34.1816 120.07L34.377 119.411L34.5479 118.703L35.085 116.872C35.1663 116.612 35.264 116.481 35.3779 116.481ZM44.0449 117.165C44.0286 117.067 44.0205 116.978 44.0205 116.896C44.0205 116.799 44.0449 116.726 44.0938 116.677C44.1426 116.628 44.2077 116.604 44.2891 116.604C44.3867 116.604 44.5088 116.669 44.6553 116.799L45.1191 117.238L45.5586 117.727L45.9248 118.239L46.2422 118.776L46.5596 119.362L46.8037 119.948L47.0234 120.607L47.1699 121.242L47.292 121.926L47.0723 122.609L46.4131 122.927L45.7539 122.707L45.4121 122.097L45.3877 121.486L45.3389 120.949L45.2656 120.388L45.1436 119.851L44.9971 119.338L44.8018 118.801L44.6064 118.288L44.0449 117.165ZM27.126 118.215C26.9144 118.215 26.7598 118.264 26.6621 118.361C26.5807 118.443 26.54 118.581 26.54 118.776V121.804C26.54 122.015 26.5807 122.17 26.6621 122.268C26.7598 122.349 26.9144 122.39 27.126 122.39H29.6895C29.901 122.39 30.0475 122.349 30.1289 122.268C30.2266 122.17 30.2754 122.023 30.2754 121.828V118.801C30.2754 118.589 30.2266 118.443 30.1289 118.361C30.0475 118.264 29.901 118.215 29.6895 118.215H27.126ZM38.6738 114.895C38.6087 114.764 38.568 114.675 38.5518 114.626C38.5518 114.577 38.5518 114.536 38.5518 114.504C38.5518 114.455 38.5762 114.406 38.625 114.357C38.6738 114.309 38.7145 114.284 38.7471 114.284C38.7959 114.284 38.8447 114.292 38.8936 114.309C38.9587 114.325 39.0482 114.366 39.1621 114.431L39.748 114.748L40.2607 115.139L40.7246 115.554L41.1641 115.993L41.5303 116.481L41.8721 116.97L42.1895 117.507L42.4336 118.068L42.6533 118.654L42.5068 119.338L41.9453 119.777L41.2373 119.68L40.8223 119.094L40.7246 118.581L40.6025 118.142L40.4561 117.678L40.2852 117.238L40.041 116.774L39.7725 116.335L39.4551 115.896L39.1133 115.456L38.6738 114.895ZM32.1064 114.26C32.1064 114.471 32.0495 114.634 31.9355 114.748C31.8216 114.862 31.6589 114.919 31.4473 114.919L25.3926 114.797C25.2949 114.732 25.2135 114.667 25.1484 114.602C25.0833 114.52 25.0508 114.447 25.0508 114.382C25.0508 114.203 25.2298 114.113 25.5879 114.113H29.0303L29.7871 113.356C29.9987 113.145 30.2103 113.039 30.4219 113.039C30.6335 113.039 30.8451 113.12 31.0566 113.283L32.1064 114.187V114.26ZM42.7266 115.041C42.5964 115.041 42.4906 115 42.4092 114.919C42.3278 114.838 42.2871 114.732 42.2871 114.602C42.2871 114.471 42.2627 114.382 42.2139 114.333C42.165 114.284 42.0918 114.252 41.9941 114.235L40.1631 113.845C40.0003 113.682 39.9189 113.552 39.9189 113.454C39.9189 113.389 39.9434 113.332 39.9922 113.283C40.0573 113.218 40.1794 113.186 40.3584 113.186L43.166 112.526C43.2962 112.51 43.3857 112.421 43.4346 112.258L43.5322 111.843L43.6299 111.306L43.7764 109.841L43.874 107.937L43.9229 105.617V105.251C43.9229 105.056 43.874 104.917 43.7764 104.836C43.695 104.738 43.5485 104.689 43.3369 104.689H41.0908C40.863 104.689 40.6921 104.746 40.5781 104.86C40.4805 104.958 40.4154 105.104 40.3828 105.3L40.2607 106.032L39.9189 107.595L39.626 108.474C39.6097 108.506 39.6016 108.555 39.6016 108.62C39.6016 108.718 39.6748 108.807 39.8213 108.889C40.0166 109.068 40.2201 109.255 40.4316 109.45C40.627 109.646 40.8223 109.849 41.0176 110.061C41.1803 110.272 41.3431 110.484 41.5059 110.695C41.6523 110.923 41.7988 111.159 41.9453 111.403L41.9697 112.111L41.4814 112.648L40.7734 112.673L40.2607 112.233L39.9922 111.623L39.6748 111.086C39.3981 110.728 39.2516 110.533 39.2354 110.5C39.1377 110.402 39.0563 110.354 38.9912 110.354C38.9424 110.354 38.9017 110.378 38.8691 110.427C38.8366 110.459 38.7959 110.516 38.7471 110.598L38.332 111.403L37.5996 112.38L36.7939 113.259L35.8906 113.918L34.9141 114.455C34.5885 114.488 34.3932 114.504 34.3281 114.504C34.263 114.504 34.1979 114.504 34.1328 114.504C34.0677 114.488 34.0107 114.463 33.9619 114.431C33.9294 114.382 33.9131 114.333 33.9131 114.284C33.9131 114.187 34.0352 114.064 34.2793 113.918L34.5234 113.747L35.3047 113.137L35.9639 112.404L36.5742 111.623L37.1357 110.695L37.5508 109.646C37.5996 109.548 37.624 109.45 37.624 109.353C37.624 109.125 37.5101 108.938 37.2822 108.791L36.9404 108.522L35.2559 107.546C35.0117 107.318 34.8571 107.172 34.792 107.106C34.6943 107.025 34.6455 106.952 34.6455 106.887C34.6455 106.74 34.735 106.667 34.9141 106.667C34.9954 106.667 35.1094 106.683 35.2559 106.716C36.0208 106.944 36.4603 107.082 36.5742 107.131L37.6973 107.619C37.7461 107.652 37.8031 107.668 37.8682 107.668C38.0472 107.668 38.1774 107.505 38.2588 107.18L38.5029 105.739C38.5355 105.381 38.5518 105.186 38.5518 105.153C38.5518 104.991 38.5111 104.877 38.4297 104.812C38.3646 104.73 38.2344 104.689 38.0391 104.689L34.3037 104.567C34.2061 104.486 34.1165 104.413 34.0352 104.348C33.9701 104.283 33.9375 104.217 33.9375 104.152C33.9375 104.087 33.9701 104.03 34.0352 103.981C34.1003 103.916 34.2467 103.884 34.4746 103.884H44.0205L44.1914 103.713C44.4193 103.534 44.639 103.444 44.8506 103.444C45.0785 103.444 45.2982 103.534 45.5098 103.713L45.9248 104.201C45.8434 104.706 45.8027 105.178 45.8027 105.617L45.7539 106.862L45.7295 108.01L45.6318 109.987L45.4854 111.55L45.2656 112.771L45.0947 113.234L44.9482 113.552L44.7773 113.869L44.5576 114.113L44.3379 114.357L44.0693 114.602L43.752 114.772L43.459 114.895L43.1172 114.992C42.8893 115.025 42.7591 115.041 42.7266 115.041ZM32.1064 110.842C32.1064 111.053 32.0413 111.224 31.9111 111.354C31.7972 111.468 31.6344 111.525 31.4229 111.525H25.3193C25.124 111.314 25.0264 111.143 25.0264 111.013C25.0264 110.948 25.0589 110.882 25.124 110.817C25.2054 110.736 25.3682 110.695 25.6123 110.695H29.0303L29.7871 109.938C29.9987 109.727 30.2103 109.621 30.4219 109.621C30.6335 109.621 30.8451 109.702 31.0566 109.865L32.1064 110.769V110.842ZM33.2539 107.18C33.2539 107.391 33.1969 107.554 33.083 107.668C32.9691 107.782 32.8063 107.839 32.5947 107.839L24.8799 107.717C24.7822 107.652 24.7008 107.587 24.6357 107.521C24.5706 107.44 24.5381 107.367 24.5381 107.302C24.5381 107.123 24.7171 107.033 25.0752 107.033H30.1533L30.9102 106.276C31.1217 106.065 31.3333 105.959 31.5449 105.959C31.7565 105.959 31.9681 106.04 32.1797 106.203L33.2539 107.106V107.18ZM32.1064 103.762C32.1064 103.973 32.0495 104.136 31.9355 104.25C31.8216 104.364 31.6589 104.421 31.4473 104.421L25.3926 104.299C25.2949 104.234 25.2135 104.169 25.1484 104.104C25.0833 104.022 25.0508 103.949 25.0508 103.884C25.0508 103.705 25.2298 103.615 25.5879 103.615H29.0303L29.7871 102.858C29.9987 102.647 30.2103 102.541 30.4219 102.541C30.6335 102.541 30.8451 102.622 31.0566 102.785L32.1064 103.688V103.762ZM53.0781 119.411C53.1921 119.558 53.249 119.68 53.249 119.777C53.249 119.956 53.1188 120.078 52.8584 120.144L52.2969 121.315L51.6133 122.414L50.7832 123.464L50.3438 123.952L49.7822 124.489C49.6195 124.571 49.4893 124.611 49.3916 124.611C49.3102 124.611 49.2451 124.587 49.1963 124.538C49.1475 124.489 49.123 124.44 49.123 124.392C49.123 124.343 49.123 124.294 49.123 124.245C49.1393 124.196 49.18 124.107 49.2451 123.977L50.1484 122.268L50.6123 121.169L51.0273 120.07L51.2715 119.313C51.304 119.167 51.361 119.053 51.4424 118.972C51.5238 118.89 51.6133 118.85 51.7109 118.85C51.8249 118.85 51.9469 118.882 52.0771 118.947L53.0781 119.411ZM70.0215 113.405C70.2331 113.584 70.3389 113.78 70.3389 113.991C70.3389 114.187 70.2168 114.39 69.9727 114.602V119.484C69.9727 119.549 69.9808 119.59 69.9971 119.606C70.0133 119.606 70.0296 119.615 70.0459 119.631C70.2575 119.387 70.3796 119.257 70.4121 119.24C70.5911 119.045 70.7783 118.947 70.9736 118.947C71.1689 118.947 71.3724 119.037 71.584 119.216L72.1455 119.704V119.777C72.1455 119.989 72.0885 120.152 71.9746 120.266C71.8607 120.38 71.6979 120.437 71.4863 120.437H70.5586C70.347 120.437 70.1924 120.485 70.0947 120.583C70.0133 120.664 69.9727 120.811 69.9727 121.022V122.658L69.9482 123L69.875 123.366L69.7529 123.708L69.6064 124.025L69.3623 124.318L69.0693 124.538L68.752 124.733L68.4102 124.831C68.1823 124.864 68.0521 124.88 68.0195 124.88C67.8893 124.88 67.7835 124.839 67.7021 124.758C67.6208 124.676 67.5801 124.562 67.5801 124.416C67.5801 124.286 67.5557 124.196 67.5068 124.147C67.458 124.099 67.3766 124.066 67.2627 124.05L66.2129 123.708C66.0501 123.562 65.9688 123.431 65.9688 123.317C65.9688 123.236 66.0013 123.163 66.0664 123.098C66.1315 123.033 66.2454 122.992 66.4082 122.976L67.5068 122.78C67.6859 122.748 67.8242 122.683 67.9219 122.585C68.0358 122.471 68.0928 122.3 68.0928 122.072V120.998C68.0928 120.803 68.0439 120.664 67.9463 120.583C67.8649 120.485 67.7184 120.437 67.5068 120.437H61.6475C61.4359 120.437 61.2812 120.485 61.1836 120.583C61.1022 120.664 61.0615 120.811 61.0615 121.022V123.366C61.0615 123.92 60.8174 124.31 60.3291 124.538L60.085 124.685C59.9222 124.766 59.7839 124.807 59.6699 124.807C59.556 124.807 59.4502 124.758 59.3525 124.66C59.2549 124.562 59.2061 124.392 59.2061 124.147V121.022C59.2061 120.811 59.1572 120.664 59.0596 120.583C58.9782 120.485 58.8317 120.437 58.6201 120.437C58.6038 120.437 58.319 120.396 57.7656 120.314C57.668 120.249 57.5866 120.184 57.5215 120.119C57.4564 120.038 57.4238 119.965 57.4238 119.899C57.4238 119.72 57.6029 119.631 57.9609 119.631H58.6201C58.8317 119.631 58.9782 119.59 59.0596 119.509C59.1572 119.411 59.2061 119.257 59.2061 119.045V113.405C59.2061 113.145 59.2467 112.974 59.3281 112.893C59.4258 112.795 59.5316 112.746 59.6455 112.746C59.7757 112.746 59.9141 112.787 60.0605 112.868L60.9395 113.332H63.1123C63.3239 113.332 63.4704 113.291 63.5518 113.21C63.6494 113.112 63.6982 112.958 63.6982 112.746V111.843C63.6982 111.631 63.6494 111.485 63.5518 111.403C63.4704 111.306 63.3239 111.257 63.1123 111.257H57.6924C57.4971 111.045 57.3994 110.874 57.3994 110.744C57.3994 110.679 57.432 110.614 57.4971 110.549C57.5785 110.467 57.7412 110.427 57.9854 110.427H60.5977C60.8092 110.427 60.9557 110.386 61.0371 110.305C61.1348 110.207 61.1836 110.052 61.1836 109.841V108.815C61.1836 108.604 61.1348 108.457 61.0371 108.376C60.9557 108.278 60.8092 108.229 60.5977 108.229C60.5977 108.229 60.0768 108.189 59.0352 108.107C58.9375 108.042 58.8561 107.977 58.791 107.912C58.7259 107.831 58.6934 107.757 58.6934 107.692C58.6934 107.513 58.8724 107.424 59.2305 107.424H60.5977C60.8092 107.424 60.9557 107.383 61.0371 107.302C61.1348 107.204 61.1836 107.049 61.1836 106.838V105.812C61.1836 105.601 61.1348 105.454 61.0371 105.373C60.9557 105.275 60.8092 105.227 60.5977 105.227H58.4248C58.2295 105.015 58.1318 104.844 58.1318 104.714C58.1318 104.649 58.1644 104.584 58.2295 104.519C58.3109 104.437 58.4736 104.396 58.7178 104.396H60.6221C60.8174 104.396 60.9557 104.356 61.0371 104.274C61.1348 104.177 61.1836 104.022 61.1836 103.811V102.785C61.1836 102.525 61.2406 102.329 61.3545 102.199C61.4847 102.069 61.6556 102.004 61.8672 102.004C61.9323 102.004 62.0055 102.012 62.0869 102.028L62.9414 102.175C63.0228 102.224 63.096 102.281 63.1611 102.346C63.2262 102.411 63.2588 102.492 63.2588 102.59C63.2588 102.688 63.1855 102.785 63.0391 102.883V103.811C63.0391 104.022 63.0798 104.177 63.1611 104.274C63.2588 104.356 63.4134 104.396 63.625 104.396H65.627C65.8385 104.396 65.985 104.356 66.0664 104.274C66.1641 104.177 66.2129 104.022 66.2129 103.811V102.785C66.2129 102.525 66.2699 102.329 66.3838 102.199C66.514 102.069 66.6849 102.004 66.8965 102.004C66.9616 102.004 67.0348 102.012 67.1162 102.028L67.9707 102.175C68.0521 102.224 68.1172 102.281 68.166 102.346C68.2311 102.395 68.2637 102.476 68.2637 102.59C68.2637 102.688 68.1986 102.785 68.0684 102.883V104.079C68.0684 104.193 68.0846 104.274 68.1172 104.323C68.166 104.356 68.2393 104.38 68.3369 104.396L69.0938 103.64C69.3053 103.428 69.5169 103.322 69.7285 103.322C69.9401 103.322 70.1517 103.404 70.3633 103.566L71.4131 104.47V104.543C71.4131 104.755 71.348 104.925 71.2178 105.056C71.1038 105.17 70.9411 105.227 70.7295 105.227H68.6543C68.4427 105.227 68.2881 105.275 68.1904 105.373C68.109 105.454 68.0684 105.601 68.0684 105.812V107.131C68.0684 107.245 68.0846 107.318 68.1172 107.351C68.166 107.383 68.223 107.408 68.2881 107.424C68.6624 107.001 68.8659 106.781 68.8984 106.765C69.0775 106.569 69.2646 106.472 69.46 106.472C69.6715 106.472 69.875 106.569 70.0703 106.765L70.876 107.497V107.57C70.876 107.782 70.819 107.945 70.7051 108.059C70.5911 108.173 70.4284 108.229 70.2168 108.229H68.6543C68.4427 108.229 68.2881 108.278 68.1904 108.376C68.109 108.457 68.0684 108.604 68.0684 108.815V109.841C68.0684 110.052 68.109 110.207 68.1904 110.305C68.2881 110.386 68.4427 110.427 68.6543 110.427H69.5332C69.9238 110.02 70.1273 109.808 70.1436 109.792C70.3226 109.597 70.5098 109.499 70.7051 109.499C70.9004 109.499 71.1038 109.589 71.3154 109.768L72.1455 110.5V110.573C72.1455 110.785 72.0804 110.956 71.9502 111.086C71.8363 111.2 71.6735 111.257 71.4619 111.257H66.1641C65.9525 111.257 65.7979 111.306 65.7002 111.403C65.6188 111.485 65.5781 111.631 65.5781 111.843V112.746C65.5781 112.958 65.6188 113.112 65.7002 113.21C65.7979 113.291 65.9525 113.332 66.1641 113.332H68.1904L68.3613 113.161C68.5892 112.982 68.8089 112.893 69.0205 112.893C69.2484 112.893 69.4681 112.974 69.6797 113.137L70.0215 113.405ZM54.1279 119.387C54.0954 119.338 54.0791 119.265 54.0791 119.167C54.0791 119.069 54.0954 119.004 54.1279 118.972C54.1768 118.923 54.2337 118.898 54.2988 118.898C54.3639 118.898 54.4535 118.939 54.5674 119.021L54.9824 119.313L55.3486 119.631L56.0078 120.241L56.5449 120.974L57.0088 121.779L57.2285 122.243L57.1797 122.951L56.6182 123.391L55.9102 123.342L55.4463 122.829L55.373 122.39L55.2754 122.048L55.0312 121.291L54.5674 120.241L54.1279 119.387ZM61.6475 117.287C61.4359 117.287 61.2812 117.336 61.1836 117.434C61.1022 117.515 61.0615 117.661 61.0615 117.873V119.045C61.0615 119.257 61.1022 119.411 61.1836 119.509C61.2812 119.59 61.4359 119.631 61.6475 119.631H63.1123C63.3239 119.631 63.4704 119.59 63.5518 119.509C63.6494 119.411 63.6982 119.257 63.6982 119.045V117.873C63.6982 117.661 63.6494 117.515 63.5518 117.434C63.4704 117.336 63.3239 117.287 63.1123 117.287H61.6475ZM66.1641 117.287C65.9525 117.287 65.7979 117.336 65.7002 117.434C65.6188 117.515 65.5781 117.661 65.5781 117.873V119.045C65.5781 119.257 65.6188 119.411 65.7002 119.509C65.7979 119.59 65.9525 119.631 66.1641 119.631H67.5068C67.7184 119.631 67.8649 119.59 67.9463 119.509C68.0439 119.411 68.0928 119.257 68.0928 119.045V117.873C68.0928 117.661 68.0439 117.515 67.9463 117.434C67.8649 117.336 67.7184 117.287 67.5068 117.287H66.1641ZM50.6123 118.703C50.4658 118.785 50.3275 118.825 50.1973 118.825C50.0833 118.825 49.9775 118.776 49.8799 118.679C49.7822 118.581 49.7334 118.41 49.7334 118.166V102.858C49.7334 102.614 49.7822 102.443 49.8799 102.346C49.9775 102.248 50.0833 102.199 50.1973 102.199C50.3112 102.199 50.4495 102.24 50.6123 102.321L51.4668 102.761H54.958L55.1289 102.614C55.3568 102.435 55.5765 102.346 55.7881 102.346C56.016 102.346 56.2357 102.427 56.4473 102.59L56.7891 102.907L56.8867 103.249C56.7728 103.737 56.7158 104.209 56.7158 104.665V116.97C56.7158 117.523 56.4798 117.914 56.0078 118.142C55.9915 118.158 55.8451 118.223 55.5684 118.337L55.4951 118.288C55.137 117.995 54.7301 117.849 54.2744 117.849L51.9307 117.946C51.6377 118.142 51.3447 118.312 51.0518 118.459L50.6123 118.703ZM52.1748 112.893C51.9632 112.893 51.8086 112.941 51.7109 113.039C51.6296 113.12 51.5889 113.267 51.5889 113.479V116.457C51.5889 116.669 51.6296 116.823 51.7109 116.921C51.8086 117.002 51.9632 117.043 52.1748 117.043H54.2744C54.486 117.043 54.6325 117.002 54.7139 116.921C54.8115 116.823 54.8604 116.669 54.8604 116.457V113.479C54.8604 113.267 54.8115 113.12 54.7139 113.039C54.6325 112.941 54.486 112.893 54.2744 112.893H52.1748ZM61.6475 114.138C61.4359 114.138 61.2812 114.187 61.1836 114.284C61.1022 114.366 61.0615 114.512 61.0615 114.724V115.896C61.0615 116.107 61.1022 116.262 61.1836 116.359C61.2812 116.441 61.4359 116.481 61.6475 116.481H63.1123C63.3239 116.481 63.4704 116.441 63.5518 116.359C63.6494 116.262 63.6982 116.107 63.6982 115.896V114.724C63.6982 114.512 63.6494 114.366 63.5518 114.284C63.4704 114.187 63.3239 114.138 63.1123 114.138H61.6475ZM66.1641 114.138C65.9525 114.138 65.7979 114.187 65.7002 114.284C65.6188 114.366 65.5781 114.512 65.5781 114.724V115.896C65.5781 116.107 65.6188 116.262 65.7002 116.359C65.7979 116.441 65.9525 116.481 66.1641 116.481H67.5068C67.7184 116.481 67.8649 116.441 67.9463 116.359C68.0439 116.262 68.0928 116.107 68.0928 115.896V114.724C68.0928 114.512 68.0439 114.366 67.9463 114.284C67.8649 114.187 67.7184 114.138 67.5068 114.138H66.1641ZM52.1748 108.254C51.9632 108.254 51.8086 108.303 51.7109 108.4C51.6296 108.482 51.5889 108.628 51.5889 108.84V111.501C51.5889 111.713 51.6296 111.867 51.7109 111.965C51.8086 112.046 51.9632 112.087 52.1748 112.087H54.2744C54.486 112.087 54.6325 112.046 54.7139 111.965C54.8115 111.867 54.8604 111.713 54.8604 111.501V108.84C54.8604 108.628 54.8115 108.482 54.7139 108.4C54.6325 108.303 54.486 108.254 54.2744 108.254H52.1748ZM63.625 108.229C63.4134 108.229 63.2588 108.278 63.1611 108.376C63.0798 108.457 63.0391 108.604 63.0391 108.815V109.841C63.0391 110.052 63.0798 110.207 63.1611 110.305C63.2588 110.386 63.4134 110.427 63.625 110.427H65.627C65.8385 110.427 65.985 110.386 66.0664 110.305C66.1641 110.207 66.2129 110.052 66.2129 109.841V108.815C66.2129 108.604 66.1641 108.457 66.0664 108.376C65.985 108.278 65.8385 108.229 65.627 108.229H63.625ZM52.1748 103.591C51.9632 103.591 51.8086 103.64 51.7109 103.737C51.6296 103.819 51.5889 103.965 51.5889 104.177V106.838C51.5889 107.049 51.6296 107.204 51.7109 107.302C51.8086 107.383 51.9632 107.424 52.1748 107.424H54.2744C54.486 107.424 54.6325 107.383 54.7139 107.302C54.8115 107.204 54.8604 107.049 54.8604 106.838V104.177C54.8604 103.965 54.8115 103.819 54.7139 103.737C54.6325 103.64 54.486 103.591 54.2744 103.591H52.1748ZM63.625 105.227C63.4134 105.227 63.2588 105.275 63.1611 105.373C63.0798 105.454 63.0391 105.601 63.0391 105.812V106.838C63.0391 107.049 63.0798 107.204 63.1611 107.302C63.2588 107.383 63.4134 107.424 63.625 107.424H65.627C65.8385 107.424 65.985 107.383 66.0664 107.302C66.1641 107.204 66.2129 107.049 66.2129 106.838V105.812C66.2129 105.601 66.1641 105.454 66.0664 105.373C65.985 105.275 65.8385 105.227 65.627 105.227H63.625ZM82.375 102.834V110.134C82.375 110.345 82.4157 110.5 82.4971 110.598C82.5947 110.679 82.7493 110.72 82.9609 110.72H84.0596C84.4502 110.313 84.6536 110.101 84.6699 110.085C84.849 109.89 85.0361 109.792 85.2314 109.792C85.4268 109.792 85.6302 109.882 85.8418 110.061L86.6719 110.793V110.866C86.6719 111.078 86.6068 111.249 86.4766 111.379C86.3626 111.493 86.1999 111.55 85.9883 111.55H82.9609C82.7493 111.55 82.5947 111.599 82.4971 111.696C82.4157 111.778 82.375 111.924 82.375 112.136V120.168C82.375 120.347 82.3994 120.469 82.4482 120.534C82.5133 120.583 82.5866 120.607 82.668 120.607C82.7331 120.607 82.8145 120.599 82.9121 120.583L87.5264 119.948L85.6953 120.729L82.8145 121.779L80.1533 122.634L76.5889 123.659L75.4414 123.952C75.1484 124.001 74.9694 124.025 74.9043 124.025C74.4811 124.025 74.1719 123.773 73.9766 123.269C73.9277 123.138 73.9033 123.008 73.9033 122.878C73.9033 122.731 73.9603 122.609 74.0742 122.512C74.1882 122.398 74.3509 122.325 74.5625 122.292L75.124 122.194L75.6855 122.072C75.8646 122.04 76.0029 121.975 76.1006 121.877C76.2145 121.763 76.2715 121.592 76.2715 121.364V108.449C76.2715 108.189 76.3285 108.002 76.4424 107.888C76.5726 107.757 76.7435 107.692 76.9551 107.692C77.2806 107.692 77.5492 107.798 77.7607 108.01C77.9723 108.221 78.0944 108.531 78.127 108.938V121.071C78.127 121.25 78.1595 121.372 78.2246 121.438C78.2897 121.503 78.3548 121.535 78.4199 121.535C78.5013 121.535 78.5827 121.527 78.6641 121.511L79.8848 121.242C80.0638 121.21 80.2103 121.136 80.3242 121.022C80.4382 120.892 80.4951 120.713 80.4951 120.485V102.736C80.4951 102.476 80.5521 102.281 80.666 102.15C80.7962 102.02 80.9671 101.955 81.1787 101.955C81.2438 101.955 81.3171 101.963 81.3984 101.979L82.2773 102.126C82.3587 102.175 82.4238 102.224 82.4727 102.272C82.5378 102.338 82.5703 102.427 82.5703 102.541C82.5703 102.639 82.5052 102.736 82.375 102.834ZM89.4062 111.062C89.4062 111.273 89.4307 111.379 89.4795 111.379C89.5283 111.379 89.6097 111.33 89.7236 111.232L91.4814 109.841L92.7021 108.718C93.6299 107.709 94.1019 107.204 94.1182 107.204C94.2972 107.025 94.4844 106.936 94.6797 106.936C94.875 106.936 95.0703 107.033 95.2656 107.229L95.9248 107.863C95.9411 107.961 95.9492 108.05 95.9492 108.132C95.9492 108.213 95.9085 108.286 95.8271 108.352C95.762 108.417 95.6725 108.449 95.5586 108.449C95.526 108.449 95.4854 108.449 95.4365 108.449L94.4844 109.353L93.0439 110.476L91.6035 111.428L90.8711 111.843L89.9922 112.282C89.6016 112.445 89.4062 112.738 89.4062 113.161L89.9189 121.413C89.9189 121.608 89.9678 121.755 90.0654 121.853C90.1631 121.95 90.3177 121.999 90.5293 121.999H94.3867C94.6146 121.999 94.7855 121.942 94.8994 121.828C94.9971 121.73 95.0703 121.584 95.1191 121.389L95.7783 119.045C95.8923 118.915 95.9818 118.85 96.0469 118.85C96.112 118.85 96.1689 118.874 96.2178 118.923C96.2666 118.972 96.291 119.061 96.291 119.191C96.291 119.208 96.2503 119.615 96.1689 120.412C96.1038 121.21 96.0713 121.617 96.0713 121.633C96.0713 121.926 96.2015 122.154 96.4619 122.316L96.4863 122.341C96.6328 122.536 96.7061 122.731 96.7061 122.927C96.7061 123.106 96.6328 123.293 96.4863 123.488L95.9492 123.854H89.7969L89.4307 123.83L89.0889 123.781L88.7471 123.659L88.4297 123.488L88.1367 123.244L87.917 122.951L87.7217 122.634L87.624 122.292L87.5752 121.926L87.5508 121.608V103.298C87.5508 103.037 87.6077 102.842 87.7217 102.712C87.8519 102.582 88.0228 102.517 88.2344 102.517C88.5436 102.517 88.804 102.631 89.0156 102.858C89.2272 103.07 89.3574 103.396 89.4062 103.835V111.062ZM111.306 102.175C111.354 102.191 111.42 102.24 111.501 102.321C111.582 102.386 111.623 102.476 111.623 102.59C111.623 102.688 111.558 102.785 111.428 102.883V106.569C111.428 106.781 111.468 106.936 111.55 107.033C111.647 107.115 111.802 107.155 112.014 107.155H118.459L119.216 106.398C119.427 106.187 119.639 106.081 119.851 106.081C120.062 106.081 120.274 106.162 120.485 106.325L121.535 107.229V107.302C121.535 107.513 121.47 107.684 121.34 107.814C121.226 107.928 121.063 107.985 120.852 107.985L110.622 108.107C110.703 108.189 110.744 108.286 110.744 108.4C110.744 108.514 110.679 108.628 110.549 108.742L110.451 109.084L110.378 110.5L110.134 111.989C110.134 112.038 110.134 112.079 110.134 112.111C110.134 112.242 110.166 112.347 110.231 112.429C110.297 112.494 110.427 112.526 110.622 112.526H116.75L116.921 112.38C117.149 112.201 117.368 112.111 117.58 112.111C117.808 112.111 118.028 112.201 118.239 112.38L118.63 112.844C118.532 113.381 118.475 113.885 118.459 114.357L118.386 115.7L118.288 116.945L118.117 118.068L117.946 119.094L117.727 120.07L117.482 120.925L117.141 121.706L116.799 122.39L116.359 123L116.14 123.244L115.92 123.488L115.676 123.684L115.383 123.879L115.09 124.05L114.479 124.245L114.162 124.318C113.951 124.351 113.828 124.367 113.796 124.367C113.666 124.367 113.56 124.326 113.479 124.245C113.413 124.18 113.381 124.074 113.381 123.928C113.381 123.798 113.348 123.7 113.283 123.635C113.234 123.586 113.153 123.553 113.039 123.537L111.232 123.171C111.07 123.008 110.988 122.878 110.988 122.78C110.988 122.715 111.013 122.658 111.062 122.609C111.127 122.544 111.257 122.512 111.452 122.512L113.869 122.463L114.431 122.268L114.675 122.097L114.895 121.828L115.188 121.438L115.456 120.949L115.676 120.314L115.92 119.558L116.115 118.728L116.286 117.775L116.408 116.726L116.53 115.578C116.595 114.471 116.628 113.91 116.628 113.894C116.628 113.715 116.579 113.584 116.481 113.503C116.4 113.405 116.262 113.356 116.066 113.356H110.5C110.256 113.356 110.077 113.413 109.963 113.527C109.849 113.641 109.776 113.788 109.743 113.967C109.58 114.553 109.499 114.846 109.499 114.846L108.718 116.774L107.766 118.508L106.643 120.095L105.275 121.486L103.713 122.683L101.979 123.708L99.8555 124.001L101.613 123L103.127 121.877L104.494 120.656L105.617 119.289L106.594 117.8L107.326 116.164L107.937 114.357L108.352 112.429L108.571 110.354L108.645 108.547C108.645 108.352 108.596 108.213 108.498 108.132C108.417 108.034 108.27 107.985 108.059 107.985H100.051C99.8555 107.774 99.7578 107.603 99.7578 107.473C99.7578 107.408 99.7904 107.342 99.8555 107.277C99.9368 107.196 100.1 107.155 100.344 107.155H108.986C109.198 107.155 109.344 107.115 109.426 107.033C109.523 106.936 109.572 106.781 109.572 106.569V102.785C109.572 102.525 109.629 102.329 109.743 102.199C109.873 102.069 110.044 102.004 110.256 102.004C110.321 102.004 110.394 102.012 110.476 102.028L111.306 102.175ZM136.428 118.825V123.269C136.428 123.822 136.184 124.213 135.695 124.44L135.451 124.587C135.288 124.668 135.15 124.709 135.036 124.709C134.922 124.709 134.816 124.66 134.719 124.562C134.621 124.465 134.572 124.294 134.572 124.05V119.606C134.572 119.444 134.556 119.346 134.523 119.313C134.475 119.313 134.393 119.362 134.279 119.46L133.718 119.948L132.717 120.656L131.716 121.315L130.617 121.926L129.445 122.487L128.225 122.976L126.931 123.415L125.563 123.781C125.043 123.83 124.742 123.854 124.66 123.854C124.595 123.854 124.53 123.846 124.465 123.83C124.4 123.83 124.343 123.806 124.294 123.757C124.261 123.724 124.245 123.684 124.245 123.635C124.245 123.537 124.383 123.423 124.66 123.293L126.589 122.487L127.761 121.926L128.884 121.34L129.934 120.705L130.886 120.046L131.765 119.362L132.595 118.679L132.814 118.459C132.912 118.361 132.969 118.288 132.985 118.239C132.92 118.207 132.823 118.19 132.692 118.19H125.173C124.978 117.979 124.88 117.808 124.88 117.678C124.88 117.613 124.912 117.548 124.978 117.482C125.059 117.401 125.222 117.36 125.466 117.36H133.986C134.198 117.36 134.344 117.32 134.426 117.238C134.523 117.141 134.572 116.994 134.572 116.799V115.725C134.572 115.448 134.637 115.253 134.768 115.139C134.898 115.008 135.069 114.943 135.28 114.943C135.573 114.943 135.826 115.049 136.037 115.261C136.249 115.472 136.379 115.798 136.428 116.237V116.799C136.428 116.994 136.468 117.141 136.55 117.238C136.647 117.32 136.802 117.36 137.014 117.36H143.337L144.069 116.628C144.281 116.416 144.493 116.311 144.704 116.311C144.932 116.311 145.144 116.4 145.339 116.579L146.096 117.263C146.161 117.442 146.193 117.596 146.193 117.727C146.193 117.84 146.145 117.946 146.047 118.044C145.949 118.142 145.778 118.19 145.534 118.19H137.502C137.453 118.19 137.404 118.19 137.355 118.19C137.388 118.223 137.966 118.573 139.089 119.24L140.969 120.217L142.971 121.047L144.045 121.438L145.168 121.779L146.633 122.243C146.796 122.292 146.918 122.357 146.999 122.438C147.08 122.52 147.121 122.609 147.121 122.707C147.121 122.837 147.023 122.992 146.828 123.171L146.364 123.562C146.104 123.789 145.819 123.903 145.51 123.903C145.347 123.903 145.184 123.879 145.021 123.83L143.386 123.146L141.237 122.097L140.236 121.535L139.284 120.925L138.381 120.266L137.551 119.558C136.997 119.037 136.688 118.744 136.623 118.679C136.558 118.614 136.501 118.573 136.452 118.557C136.436 118.622 136.428 118.711 136.428 118.825ZM134.084 108.62C134.084 108.701 134.198 108.742 134.426 108.742H143.85L144.606 107.985C144.818 107.774 145.03 107.668 145.241 107.668C145.453 107.668 145.664 107.749 145.876 107.912L146.926 108.815V108.889C146.926 109.1 146.861 109.271 146.73 109.401C146.617 109.515 146.454 109.572 146.242 109.572H141.018C140.79 109.572 140.619 109.629 140.505 109.743C140.407 109.841 140.342 109.987 140.31 110.183L140.236 110.524L139.626 111.721C139.024 112.404 138.715 112.746 138.698 112.746L139.772 113.015L140.944 113.381L142.067 113.796L143.166 114.26L144.191 114.772L144.582 115.31L144.509 116.042L143.947 116.457L143.239 116.384L142.336 115.847L141.384 115.334L139.309 114.455L138.137 114.04L137.233 113.747L136.135 114.309L134.475 114.943L132.57 115.432L130.397 115.798L127.956 116.066L124.758 115.749L127.883 115.285L130.227 114.821L132.277 114.309L134.084 113.698L134.914 113.356C134.995 113.308 135.061 113.267 135.109 113.234C135.044 113.202 134.963 113.177 134.865 113.161L134.23 112.99L132.155 112.551C132.074 112.535 131.993 112.526 131.911 112.526C131.618 112.526 131.382 112.665 131.203 112.941C131.154 113.007 131.097 113.072 131.032 113.137C130.804 113.365 130.528 113.479 130.202 113.479C130.17 113.479 130.129 113.479 130.08 113.479L129.689 113.405C129.462 113.389 129.299 113.34 129.201 113.259C129.12 113.161 129.079 113.055 129.079 112.941C129.079 112.811 129.136 112.665 129.25 112.502L130.935 109.963C131.016 109.833 131.057 109.743 131.057 109.694C131.057 109.613 130.943 109.572 130.715 109.572H124.66C124.465 109.361 124.367 109.19 124.367 109.06C124.367 108.994 124.4 108.929 124.465 108.864C124.546 108.783 124.701 108.742 124.929 108.742H131.081C131.521 108.742 131.854 108.563 132.082 108.205L133.474 106.105C133.653 105.829 133.856 105.69 134.084 105.69C134.263 105.69 134.442 105.78 134.621 105.959L135.28 106.569C135.329 106.7 135.354 106.813 135.354 106.911C135.354 106.993 135.313 107.074 135.231 107.155C135.166 107.22 135.069 107.261 134.938 107.277L134.206 108.352C134.125 108.482 134.084 108.571 134.084 108.62ZM132.033 111.721C132.033 111.818 132.147 111.867 132.375 111.867L134.401 111.989L135.817 112.185L136.696 112.355L137.6 111.599L138.186 110.793L138.527 109.963C138.527 109.947 138.527 109.906 138.527 109.841C138.527 109.776 138.503 109.719 138.454 109.67C138.405 109.605 138.308 109.572 138.161 109.572H134.06C133.62 109.572 133.286 109.751 133.059 110.109L132.155 111.452C132.074 111.582 132.033 111.672 132.033 111.721ZM144.045 105.349C144.045 105.284 143.947 105.251 143.752 105.251H126.979C126.931 105.251 126.898 105.259 126.882 105.275C126.866 105.292 126.857 105.324 126.857 105.373C126.841 105.568 126.825 105.747 126.809 105.91L126.711 106.423L126.516 106.911L126.32 107.326L126.027 107.741L125.661 108.107L125.222 108.425L124.514 108.449L123.977 107.985L123.928 107.277L124.392 106.74L124.685 106.643L124.904 106.521L125.124 106.35L125.319 106.179L125.515 105.91L125.71 105.568L125.856 105.202L126.003 104.738L126.174 104.152C126.288 103.924 126.394 103.811 126.491 103.811C126.54 103.811 126.589 103.843 126.638 103.908C126.703 103.957 126.743 104.071 126.76 104.25C126.776 104.315 126.792 104.364 126.809 104.396C126.841 104.413 126.89 104.421 126.955 104.421H133.986C134.198 104.421 134.344 104.38 134.426 104.299C134.523 104.201 134.572 104.047 134.572 103.835V102.395C134.572 102.134 134.629 101.939 134.743 101.809C134.873 101.678 135.044 101.613 135.256 101.613C135.565 101.613 135.826 101.727 136.037 101.955C136.249 102.167 136.379 102.492 136.428 102.932V103.835C136.428 104.047 136.468 104.201 136.55 104.299C136.647 104.38 136.802 104.421 137.014 104.421L144.875 104.226C145.07 104.063 145.274 103.981 145.485 103.981C145.697 103.981 145.917 104.071 146.145 104.25C146.389 104.462 146.527 104.584 146.56 104.616C146.706 104.763 146.779 104.901 146.779 105.031C146.779 105.259 146.633 105.454 146.34 105.617C146.324 105.633 146.079 105.731 145.607 105.91L144.875 106.496L143.801 107.253L143.288 107.546C143.19 107.562 143.125 107.57 143.093 107.57C143.06 107.57 143.02 107.57 142.971 107.57C142.938 107.554 142.897 107.53 142.849 107.497C142.816 107.465 142.8 107.424 142.8 107.375C142.8 107.277 142.857 107.163 142.971 107.033L143.483 106.276L143.947 105.617C144.012 105.503 144.045 105.414 144.045 105.349Z" fill="white"/>
<path d="M38.7578 64.29L38.4648 64.0361L37.918 62.8838L38.1328 62.8252L40.2422 62.3174V48.5479L41.4922 49.1924H43.7773V46.1455L45.0469 46.3408L45.3594 46.5557L45.0469 46.751V49.1924H47.7031L48.3477 48.665L49.5 49.6025L48.9727 50.0322V56.4189L47.7031 57.0635V56.0088H44.1484L44.5586 56.9463L45.0469 57.9229L45.5742 58.8408L46.1406 59.6611L46.7656 60.3838L47.0391 60.6572L46.9609 60.54L47.7812 59.583L49.832 57.2783L49.9297 57.1807L50.7891 58.0986L50.8672 58.4697L50.4766 58.3721L49.3047 59.29L48.582 59.8369L47.8203 60.3057L47.0781 60.6963L47.4297 61.0479L48.1328 61.6338L48.9141 62.1221L49.7344 62.5518L51.2969 63.1963L50.0859 64.2119L49.1094 63.7236L48.2305 63.1768L47.4102 62.5322L46.668 61.8096L46.0039 61.0088L45.418 60.1494L44.9102 59.1924L44.4805 58.1768L44.1484 57.083L43.9336 56.0088H41.4922V61.9854L42.332 61.79L43.875 61.3994L45.4961 61.0674L45.5547 61.2432L44.0508 61.9463L42.5859 62.5518L40.4766 63.3525L39.1289 63.8213L38.8945 63.8994L38.7578 64.29ZM35.7695 64.29L35.3398 64.0752L35.1836 63.626L35.2422 62.8838L35.2617 62.2197L35.2031 61.6143L35.0859 61.0674L34.9102 60.5791L34.6758 60.1494L34.3828 59.7393L34.0117 59.3877L33.582 59.0557L33.0547 58.7432L33.1133 58.5674L33.7383 58.7041L34.3242 58.9189L34.8516 59.251L35.0859 59.4658L36.6484 56.4971L38.6016 53.04L39.4219 51.6533L39.5977 51.751L36.6289 58.626L36.1406 59.876L36.0039 60.3057L35.9453 60.5791H35.9258L36.0039 60.7354L36.2188 61.3799L36.375 62.1025L36.4531 62.8838V63.7236L36.2188 64.1533L35.7695 64.29ZM41.4922 55.5791H47.7031V52.7471H41.4922V55.5791ZM35.8477 54.1338L35.457 53.8604L35.3594 53.665L35.2422 53.4502L35.0664 53.2354L34.8711 53.0205L34.3633 52.5908L34.0312 52.3564L33.2891 51.9072L32.8594 51.7119L32.918 51.5361L33.8555 51.7119L34.2852 51.8096L34.6758 51.9463L35.0664 52.1025L35.3984 52.2783L35.7305 52.4736L36.0234 52.6885L36.2969 52.9229L36.5312 53.1963L36.5898 53.6846L36.3164 54.0752L35.8477 54.1338ZM41.4922 52.3369H47.7031V49.6025H41.4922V52.3369ZM37.4883 49.3291L37.0977 49.0557L36.9805 48.8408L36.8438 48.626L36.668 48.4111L36.4727 48.1768L36.2383 47.9619L35.9648 47.7471L35.3398 47.2979L34.9883 47.083L34.5781 46.8877L34.6562 46.7119L35.5156 46.8877L35.9258 47.0049L36.3164 47.1221L36.668 47.2783L37.0195 47.4541L37.332 47.6494L37.625 47.8643L37.8984 48.0986L38.1328 48.3525L38.2305 48.8213L37.9766 49.2314L37.4883 49.3291Z" fill="white"/>
<path d="M62.4578 64.29L62.1648 64.0361L61.618 62.8838L61.8328 62.8252L63.9422 62.3174V48.5479L65.1922 49.1924H67.4773V46.1455L68.7469 46.3408L69.0594 46.5557L68.7469 46.751V49.1924H71.4031L72.0477 48.665L73.2 49.6025L72.6727 50.0322V56.4189L71.4031 57.0635V56.0088H67.8484L68.2586 56.9463L68.7469 57.9229L69.2742 58.8408L69.8406 59.6611L70.4656 60.3838L70.7391 60.6572L70.6609 60.54L71.4813 59.583L73.532 57.2783L73.6297 57.1807L74.4891 58.0986L74.5672 58.4697L74.1766 58.3721L73.0047 59.29L72.282 59.8369L71.5203 60.3057L70.7781 60.6963L71.1297 61.0479L71.8328 61.6338L72.6141 62.1221L73.4344 62.5518L74.9969 63.1963L73.7859 64.2119L72.8094 63.7236L71.9305 63.1768L71.1102 62.5322L70.368 61.8096L69.7039 61.0088L69.118 60.1494L68.6102 59.1924L68.1805 58.1768L67.8484 57.083L67.6336 56.0088H65.1922V61.9854L66.032 61.79L67.575 61.3994L69.1961 61.0674L69.2547 61.2432L67.7508 61.9463L66.2859 62.5518L64.1766 63.3525L62.8289 63.8213L62.5945 63.8994L62.4578 64.29ZM59.4695 64.29L59.0398 64.0752L58.8836 63.626L58.9422 62.8838L58.9617 62.2197L58.9031 61.6143L58.7859 61.0674L58.6102 60.5791L58.3758 60.1494L58.0828 59.7393L57.7117 59.3877L57.282 59.0557L56.7547 58.7432L56.8133 58.5674L57.4383 58.7041L58.0242 58.9189L58.5516 59.251L58.7859 59.4658L60.3484 56.4971L62.3016 53.04L63.1219 51.6533L63.2977 51.751L60.3289 58.626L59.8406 59.876L59.7039 60.3057L59.6453 60.5791H59.6258L59.7039 60.7354L59.9188 61.3799L60.075 62.1025L60.1531 62.8838V63.7236L59.9188 64.1533L59.4695 64.29ZM65.1922 55.5791H71.4031V52.7471H65.1922V55.5791ZM59.5477 54.1338L59.157 53.8604L59.0594 53.665L58.9422 53.4502L58.7664 53.2354L58.5711 53.0205L58.0633 52.5908L57.7313 52.3564L56.9891 51.9072L56.5594 51.7119L56.618 51.5361L57.5555 51.7119L57.9852 51.8096L58.3758 51.9463L58.7664 52.1025L59.0984 52.2783L59.4305 52.4736L59.7234 52.6885L59.9969 52.9229L60.2313 53.1963L60.2898 53.6846L60.0164 54.0752L59.5477 54.1338ZM65.1922 52.3369H71.4031V49.6025H65.1922V52.3369ZM61.1883 49.3291L60.7977 49.0557L60.6805 48.8408L60.5438 48.626L60.368 48.4111L60.1727 48.1768L59.9383 47.9619L59.6648 47.7471L59.0398 47.2979L58.6883 47.083L58.2781 46.8877L58.3563 46.7119L59.2156 46.8877L59.6258 47.0049L60.0164 47.1221L60.368 47.2783L60.7195 47.4541L61.032 47.6494L61.325 47.8643L61.5984 48.0986L61.8328 48.3525L61.9305 48.8213L61.6766 49.2314L61.1883 49.3291Z" fill="white"/>
<path d="M93.1891 64.5049V48.3525L94.4391 48.9775H96.7242L97.3688 48.4502L98.5211 49.3877L97.9938 49.8174V63.2549L96.7242 63.8799V62.6299H94.4391V63.8799L93.1891 64.5049ZM85.1813 64.4658L85.0445 64.3291L85.6305 63.5674L86.1578 62.7471L86.6266 61.8291L87.0172 60.833L87.3492 59.7588L87.6227 58.5674L87.818 57.2979L87.9547 55.9111L88.0328 54.4268V52.8643V50.9697H85.9234V50.54H88.0328V46.458L89.3023 46.6533L89.6148 46.8682L89.3023 47.0635V50.54H90.7672L91.4117 50.0322L92.5641 50.9697L92.0367 51.2822V52.708V54.4854L92.0172 56.1064L91.9781 57.5518L91.9195 58.8213L91.8414 59.9346L91.7438 60.8721L91.6266 61.6533L91.4898 62.2783L91.2945 62.8057L91.1578 63.04L91.0211 63.2354L90.8453 63.4502L90.6695 63.6064L90.4547 63.7627L90.2203 63.8799L89.9859 63.9775L89.732 64.0361L89.4781 64.0752L89.2047 64.0947V63.4697L87.1148 63.1572V62.8252H89.2047H89.3609L89.4781 62.8057L89.5953 62.7666L89.693 62.7471L89.7906 62.6885L89.8688 62.6299L89.9469 62.5518L90.0836 62.3564L90.1617 62.2393L90.2789 61.9463L90.3961 61.4189L90.4938 60.7158L90.5914 59.8174L90.6695 58.7432L90.7281 57.4932L90.7672 56.0869L90.7867 54.4658V51.8096H90.7672V50.9697H89.3023V52.8643L89.2242 54.4854L89.068 56.0283L88.8727 57.4541L88.5797 58.7822L88.2086 60.0127L87.7594 61.1455L87.232 62.1416L86.6266 63.0596L85.943 63.8213L85.1813 64.4658ZM94.4391 62.2002H96.7242V49.3877H94.4391V62.2002ZM80.65 61.2432V48.2549L81.9195 48.8799H84.1656L84.7906 48.3721L85.943 49.3096L85.4156 49.7197V59.9736L84.1656 60.5986V59.3486H81.9195V60.5986L80.65 61.2432ZM81.9195 58.9189H84.1656V49.3096H81.9195V58.9189Z" fill="white"/>
<path d="M110.073 64.4854L110.014 64.3096L110.815 63.8799L111.498 63.3916L112.104 62.8643L112.612 62.2588L113.022 61.5947L113.354 60.8525L113.608 60.0322L113.784 59.1338L113.881 58.2549L111.088 59.6025L110.756 59.7393L110.678 60.1299L110.366 59.915L109.721 58.8018L113.901 57.3174V54.3291H110.854V53.8994H113.901V49.915H111.069V49.5049H113.901V46.1455L115.151 46.3408L115.463 46.5557L115.151 46.751V56.8682L115.912 56.6143L116.518 56.4385L116.616 56.6143L116.088 56.9854L115.112 57.5908L115.073 58.2354L114.897 59.3291L114.623 60.3252L114.252 61.2432L113.784 62.0635L113.217 62.7861L112.553 63.3721L111.811 63.8799L110.971 64.2314L110.073 64.4854ZM117.26 64.3096V46.1455L118.51 46.3408L118.842 46.5557L118.51 46.751V49.5049H120.053L120.912 48.5479L121.967 49.5049V49.915H118.51V53.8994H120.053L120.717 53.1768L121.557 53.8994V54.3291H118.51V58.3135H120.248L121.108 57.376L122.162 58.3135V58.7432H118.51V63.665L117.26 64.3096ZM104.467 60.6572V48.4111L105.717 49.0557H108.315L108.94 48.5283L110.092 49.4658L109.565 49.8955V59.3877L108.315 60.0127V58.7627H105.717V60.0127L104.467 60.6572ZM105.717 58.333H108.315V49.4658H105.717V58.333Z" fill="white"/>
<path d="M141.741 64.5049V63.8799L139.632 63.5674V63.2549H141.741L141.878 63.2354L142.034 63.2158L142.171 63.1963L142.288 63.1572L142.405 63.0986L142.503 63.04L142.62 62.9619L142.718 62.8838L142.933 62.6689L143.011 62.5127L143.128 62.2783L143.206 61.9463L143.304 61.5361L143.363 61.0674L143.421 60.501L143.441 59.8564L143.46 59.1338L143.441 58.5088L143.421 58.5283V57.6885H132.816V58.9385L131.546 59.583V47.8252L132.816 48.4502H135.335L135.433 48.3135L136.019 47.1416L136.312 46.5947L136.448 46.3018L136.702 45.8525H136.683L136.78 45.6768L137.777 46.4775L137.913 46.8291L137.484 46.79L136.644 47.6299L135.902 48.2939L135.706 48.4502H140.902L141.527 47.9229L142.679 48.8604L142.152 49.29V53.7041L140.902 54.3291V53.4893H132.816V55.1689H143.812L144.671 54.2314L145.726 55.1689V55.5791H132.816V57.2588H143.421L144.046 56.751L145.198 57.6885L144.691 58.001V58.333L144.71 59.1338V59.8955L144.671 60.5791L144.613 61.2041L144.534 61.751L144.437 62.2588L144.3 62.6885L144.144 63.0791L143.909 63.4307L143.753 63.626L143.577 63.8018L143.382 63.9775L143.167 64.1143L142.952 64.2314L142.718 64.3291L142.484 64.4072L142.23 64.4658L141.995 64.5049H141.741ZM129.144 63.1572V58.5283L130.394 58.7432L130.706 58.9385L130.394 59.1338V61.3604H134.378V58.0986L135.648 58.3135L135.96 58.5283L135.648 58.7236V61.3604H139.417V58.626L140.687 58.8408L140.999 59.0557L140.687 59.251V62.2002L139.417 62.8252V61.79H130.394V62.5127L129.144 63.1572ZM132.816 53.0596H140.902V51.1846H132.816V53.0596ZM132.816 50.7549H140.902V48.8604H132.816V50.7549Z" fill="white"/>
<path fill-rule="evenodd" clip-rule="evenodd" d="M26.6722 0.316036C24.2766 0.690225 23.3986 1.14453 21.4875 2.99905C20.4236 4.03131 19.8132 4.45177 19.5332 4.34529C19.3095 4.2602 18.9332 4.29628 18.6971 4.4254C18.4613 4.55478 17.6362 4.94489 16.8635 5.29246C14.5721 6.32347 9.50385 10.9583 8.42562 13.0089C7.91956 13.9713 7 15 7.5 16.5C7.7142 17.1426 8.5 17.5 9.1007 17.8405C9.7014 18.181 10.7981 18.6125 12.6249 18.6125H14.6883L14.5041 20.0431C14.4028 20.8298 14.3599 22.4813 14.4085 23.7128C14.4572 24.9444 14.4896 27.9113 14.4803 30.3059C14.464 34.5352 14.4399 34.731 13.6394 37.1478C13.1861 38.5162 12.0065 41.2032 11.0183 43.1189C8.21263 48.5571 7.23752 51.7774 7.10455 52.9673C6.97158 54.1571 7.00004 54 6.84993 54.5735C6.77766 54.8496 6.49445 55.2132 5.90917 55.0709C4.41577 54.7081 3.17787 52.8092 2.58895 51.6546C2.00004 50.5 2.24124 51.0385 1.96179 50.4584C1.50004 49.5 1.50004 49.5 1.33462 49.1965C1.04678 48.6684 0.681616 48.1282 0.193931 48.3138C-0.139721 48.4407 -0.0724894 48.6892 0.629686 49.9258C2.70711 53.5838 3.54576 54.6081 4.92126 55.1681C6.9006 55.9742 6.96884 56.0347 7.1181 57.1147C7.29521 58.3975 8.28012 59.6731 10.1438 61.0338C12.3386 62.6362 13.3218 63.1209 15.8046 62.9756C18.1517 62.8383 24 62.4215 24 62C24 61.5786 22 62 20 62C16.5 62.4204 14.6494 62.475 12.6236 61.5796C11.2629 60.978 8.80368 58.8839 8.173 57.7897C7.32105 56.3114 7.48587 55.8712 9.01791 55.5349C10.6142 55.1846 10.8676 55.0325 10.8676 54.4245C10.8676 53.8057 10.6759 53.8139 10.1526 54.4548C9.67769 55.0365 7.77437 55.4077 7.50243 54.9716C7.20565 54.4951 8.06889 50.7726 8.9853 48.5773C9.47299 47.4089 10.4519 45.3668 11.1606 44.0395C13.1572 40.2998 13.3451 39.892 14.3195 37.1909C15.2284 34.6708 15.2326 34.6412 15.2708 30.3059C15.2918 27.9113 15.2412 24.8884 15.1579 23.5884C15.0748 22.2885 15.0934 20.6091 15.1995 19.8565C15.3054 19.1039 15.4449 18.0134 15.5091 17.4332C15.8749 14.1394 17.3592 9.60708 18.9161 7.0298C20.0039 5.22926 22.9322 2.0897 23.8439 1.74661C24.2267 1.60231 25.6353 1.29853 26.9742 1.07088C29.7438 0.600409 32.2452 0.823081 34.0893 1.70457C35.3787 2.32083 36.9617 2.32705 38.1608 1.72024C39.7561 0.913146 40.2759 0.953201 40.7393 1.91853C41.2585 3.00055 41.8147 3.39737 42.6024 3.2481C42.9474 3.18266 43.2294 3.23392 43.2294 3.3618C43.2294 3.99722 42.3491 6.43916 41.7229 7.54108C41.2894 8.30389 40.9487 9.36227 40.8419 10.2778C40.6587 11.847 39.9254 13.3798 38.9069 14.3233L38.2996 14.8858L38.0211 14.3233C37.8681 14.014 37.5071 13.2094 37.2191 12.5349C36.8323 11.6288 36.6223 11.3817 36.4141 11.5882C36.1231 11.8769 36.2204 12.2324 37.2123 14.5074C38.4115 17.2581 38.7459 19.812 38.0871 21.1888C37.5124 22.3897 36.7093 22.9261 34.5745 23.5347C30.7515 24.6244 29.654 24.4672 29.2187 22.7669C29.0433 22.0815 29.0413 21.3495 29.2122 20.4952C29.8072 17.5205 29.9267 16.5928 30.0681 13.8481C30.1745 11.7848 30.1341 10.8983 29.9282 10.7722C29.3617 10.4249 29.2282 11.0727 29.082 14.8806C29.0007 17.0016 28.7651 19.5139 28.5589 20.4636C28.0883 22.6283 28.3495 23.8193 29.4671 24.6085C30.2277 25.1457 30.2766 25.1489 32.0322 24.7665C33.0166 24.5523 34 24.5 34 24.5C34 24.5 34.5 24.5 34.6999 24.6212C35 25 35 25.5 35.3313 26.3861C35.6276 27.1786 35.9917 27.676 36.3594 29.1209C37.0013 31.644 39.6379 37.7594 39.9681 37.8683C40.364 37.9992 38.1006 31.7584 37.5879 30.8262C37.3929 30.4716 37.0475 29.5118 36.8207 28.693C36.5937 27.8744 36.0882 26.5051 35.6973 25.65L34.9866 24.0957L35.9158 23.8474C37.0498 23.5446 38.635 21.9917 38.9611 20.8641C39.1096 20.3506 39.1159 19.2171 38.9782 17.8927L38.7551 15.7514L39.6951 14.6318C41.2392 12.7924 41.5077 12.2441 41.7327 10.4669C41.8714 9.37097 42.2773 8.08121 42.8784 6.82554C44.0547 4.36917 44.35 1.70133 43.5532 0.726548C43.1225 0.1991 42.8674 0.13292 41.3062 0.142623C39.9224 0.151331 39.2699 0.291901 38.2599 0.799445C36.7271 1.56972 36.3937 1.58713 34.796 0.98007C31.9705 -0.0934854 30.2124 -0.237038 26.6722 0.316036ZM19.2982 5.03196C19.3729 5.22553 18.9339 6.23166 18.3223 7.26765C17.1839 9.19657 15.5818 13.6428 15.1137 16.1738L14.8513 17.5912L13.7237 17.7591C12.2646 17.9761 11.079 17.7751 9.64207 17.0677C8.54102 16.5256 8.54302 16.4531 8.54302 15.5356C8.70634 12.8529 12.5802 8.45316 17.2594 5.63679C18.9974 4.59035 19.1138 4.55577 19.2982 5.03196Z" fill="white"/>
<path d="M60.5835 38.1268C67.1198 36.2043 73.1317 34.1387 79.1954 31.0536C82.3293 29.4592 85.3878 28.0638 88.4264 26.3183C91.2732 24.6829 94 23.001 97.8073 21.7517C101.335 20.5941 101.5 20.001 104.5 20.001C109 21.001 110 24.6515 112.418 26.8278C114.216 28.4455 116.35 29.6962 118.202 31.2634C120.227 32.9766 122.679 33.4437 125.081 34.2156C126.795 34.7665 128.895 35.6991 130.715 35.6991" stroke="white" stroke-width="0.7" stroke-linecap="round"/>
<path d="M119.5 32C122.321 30.8326 125.453 27.7547 127.808 25.9884C128.697 25.3217 129.355 24.8885 130 24.001C130.478 23.3433 131.644 22.3197 132.364 21.9274C135.738 20.0865 138.334 19.193 141.115 22.2271C142.332 23.5544 143.36 25.2585 144.756 26.3931C146.457 27.7743 147 29.5 149.327 30.8437C152 32.5 150.5 31.5 154 34C155.726 35.233 155 35 159 37.5C166 42.5 176 46 177.5 46" stroke="white" stroke-width="0.7" stroke-linecap="round"/>
</svg>
