<svg width="253" height="60" viewBox="0 0 253 60" fill="none" xmlns="http://www.w3.org/2000/svg">
<path opacity="0.8" d="M3.70532 56.0207C2.09709 56.0207 1.13734 55.2814 0.942796 54.0623C1.02061 53.764 1.21516 53.6343 1.47455 53.6343C1.78582 53.6343 2.01927 53.777 2.09709 54.2439L2.39539 55.5668L1.708 54.9313C2.35648 55.4371 2.90121 55.6057 3.74423 55.6057C4.92447 55.6057 5.71561 54.9053 5.71561 53.8159C5.71561 52.8691 5.31356 52.3633 3.89987 51.7667L3.39405 51.5592C1.9674 50.9755 1.22813 50.1974 1.22813 48.9134C1.22813 47.4478 2.38242 46.527 3.96472 46.527C5.35247 46.527 6.3641 47.2662 6.55864 48.4854C6.50676 48.7837 6.29925 48.9263 6.05282 48.9263C5.76749 48.9263 5.49513 48.7837 5.3784 48.2649L5.06713 46.955L5.79343 47.5775C5.15792 47.0847 4.67805 46.9679 4.04253 46.9679C2.90121 46.9679 2.11006 47.5775 2.11006 48.6929C2.11006 49.6008 2.65479 50.1584 3.84799 50.6254L4.22411 50.7551C6.11767 51.5203 6.62349 52.4152 6.62349 53.5565C6.62349 55.0869 5.36544 56.0207 3.70532 56.0207ZM3.64048 57.4603V51.222H4.09441V57.4603H3.64048ZM3.66642 51.222V45.217H4.12035V51.222H3.66642ZM14.2712 56.0207C12.7148 56.0207 11.2623 54.607 11.2623 51.0923C11.2623 47.6034 12.7148 46.2027 14.2712 46.2027C15.8276 46.2027 17.2672 47.6034 17.2672 51.0923C17.2672 54.607 15.8276 56.0207 14.2712 56.0207ZM14.2712 55.6187C15.231 55.6187 16.1907 54.5422 16.1907 51.0923C16.1907 47.6942 15.231 46.6177 14.2712 46.6177C13.2985 46.6177 12.3517 47.6942 12.3517 51.0923C12.3517 54.5422 13.2985 55.6187 14.2712 55.6187Z" fill="#333333"/>
<path opacity="0.8" d="M204.736 56.0207C203.128 56.0207 202.168 55.2814 201.973 54.0623C202.051 53.764 202.246 53.6343 202.505 53.6343C202.816 53.6343 203.05 53.777 203.128 54.2439L203.426 55.5668L202.739 54.9313C203.387 55.4371 203.932 55.6057 204.775 55.6057C205.955 55.6057 206.746 54.9053 206.746 53.8159C206.746 52.8691 206.344 52.3633 204.93 51.7667L204.425 51.5592C202.998 50.9755 202.259 50.1974 202.259 48.9134C202.259 47.4478 203.413 46.527 204.995 46.527C206.383 46.527 207.395 47.2662 207.589 48.4854C207.537 48.7837 207.33 48.9263 207.083 48.9263C206.798 48.9263 206.526 48.7837 206.409 48.2649L206.098 46.955L206.824 47.5775C206.188 47.0847 205.709 46.9679 205.073 46.9679C203.932 46.9679 203.141 47.5775 203.141 48.6929C203.141 49.6008 203.685 50.1584 204.879 50.6254L205.255 50.7551C207.148 51.5203 207.654 52.4152 207.654 53.5565C207.654 55.0869 206.396 56.0207 204.736 56.0207ZM204.671 57.4603V51.222H205.125V57.4603H204.671ZM204.697 51.222V45.217H205.151V51.222H204.697ZM215.25 56.0207C213.421 56.0207 212.422 55.1128 212.422 53.751C212.422 52.5578 213.24 51.7537 214.809 51.1052V51.0404L215.107 51.222C213.875 51.9353 213.369 52.6097 213.369 53.6473C213.369 54.8794 214.083 55.6187 215.289 55.6187C216.495 55.6187 217.208 54.9183 217.208 53.8289C217.208 52.8691 216.651 52.1039 214.848 51.3257C213.33 50.6643 212.708 49.7045 212.708 48.5243C212.708 47.1106 213.875 46.2027 215.341 46.2027C216.91 46.2027 217.818 47.1236 217.818 48.3686C217.818 49.2895 217.273 50.2103 215.652 50.8847V50.9496L215.405 50.781C216.482 50.0936 216.923 49.3932 216.923 48.3427C216.923 47.3959 216.365 46.6177 215.315 46.6177C214.433 46.6177 213.655 47.2403 213.655 48.2649C213.655 49.1598 214.083 49.9639 215.717 50.6643C217.494 51.4424 218.207 52.2984 218.207 53.5565C218.207 55.048 217.04 56.0207 215.25 56.0207ZM222.119 56.0207C220.705 56.0207 219.732 55.3593 219.499 54.179C219.59 53.9326 219.784 53.7899 220.044 53.7899C220.355 53.7899 220.536 53.9585 220.627 54.4384L220.99 55.6316L220.549 55.2555C221.003 55.5019 221.367 55.6187 221.963 55.6187C223.455 55.6187 224.298 54.6848 224.298 53.0377C224.298 51.4295 223.416 50.6772 222.093 50.6772C221.522 50.6772 221.029 50.781 220.575 50.9755L220.238 50.8588L220.549 46.3843H225.18V47.3051H220.757L221.003 46.7085L220.718 50.7551L220.329 50.6383C221.016 50.2752 221.639 50.1455 222.378 50.1455C224.246 50.1455 225.439 51.1312 225.439 52.9858C225.439 54.8145 224.142 56.0207 222.119 56.0207ZM227.146 58.1088L227.003 57.7716C227.924 57.3047 228.365 56.8637 228.508 55.904L228.651 56.3579L228.028 55.9818C227.678 55.7613 227.509 55.5149 227.509 55.2036C227.509 54.7886 227.795 54.4644 228.248 54.4644C228.508 54.4644 228.728 54.5292 228.936 54.7367C229.027 54.9961 229.066 55.2036 229.066 55.5149C229.066 56.76 228.313 57.6419 227.146 58.1088ZM234.009 56.0207C232.453 56.0207 231 54.607 231 51.0923C231 47.6034 232.453 46.2027 234.009 46.2027C235.565 46.2027 237.005 47.6034 237.005 51.0923C237.005 54.607 235.565 56.0207 234.009 56.0207ZM234.009 55.6187C234.969 55.6187 235.928 54.5422 235.928 51.0923C235.928 47.6942 234.969 46.6177 234.009 46.6177C233.036 46.6177 232.089 47.6942 232.089 51.0923C232.089 54.5422 233.036 55.6187 234.009 55.6187ZM241.228 56.0207C239.672 56.0207 238.219 54.607 238.219 51.0923C238.219 47.6034 239.672 46.2027 241.228 46.2027C242.785 46.2027 244.224 47.6034 244.224 51.0923C244.224 54.607 242.785 56.0207 241.228 56.0207ZM241.228 55.6187C242.188 55.6187 243.148 54.5422 243.148 51.0923C243.148 47.6942 242.188 46.6177 241.228 46.6177C240.256 46.6177 239.309 47.6942 239.309 51.0923C239.309 54.5422 240.256 55.6187 241.228 55.6187ZM248.448 56.0207C246.891 56.0207 245.439 54.607 245.439 51.0923C245.439 47.6034 246.891 46.2027 248.448 46.2027C250.004 46.2027 251.444 47.6034 251.444 51.0923C251.444 54.607 250.004 56.0207 248.448 56.0207ZM248.448 55.6187C249.407 55.6187 250.367 54.5422 250.367 51.0923C250.367 47.6942 249.407 46.6177 248.448 46.6177C247.475 46.6177 246.528 47.6942 246.528 51.0923C246.528 54.5422 247.475 55.6187 248.448 55.6187Z" fill="#333333"/>
<path d="M17.8994 27.8584H153.34" stroke="#93BAC5" stroke-width="8.10601" stroke-linecap="round"/>
<path d="M159.106 16.7473C159.106 21.3535 154.043 21.0961 152.619 18.133C151.179 20.2943 146.136 20.6545 146.856 15.9717C147.577 11.6491 149.6 8.40723 152.982 8.40723C156.827 9.20857 159.106 12.1412 159.106 16.7473Z" fill="#93BAC5"/>
<path d="M147.576 9.49968C147.422 11.8785 146.609 12.728 145.415 12.728C144.222 12.728 143.254 11.6489 143.254 9.49968C143.254 7.68654 144.284 6.29817 145.415 6.27133C146.496 6.24569 147.694 7.68652 147.576 9.49968Z" fill="#93BAC5"/>
<path d="M152.619 3.72434C152.619 5.88562 151.899 6.625 150.458 6.96626C149.265 6.96626 148.297 6.11312 148.297 3.72434C148.297 1.93388 149.265 0.482422 150.458 0.482422C152.187 0.653049 152.619 1.93388 152.619 3.72434Z" fill="#93BAC5"/>
<path d="M159.103 4.80493C159.138 6.69454 157.694 7.82386 156.512 7.65636C155.33 7.48885 154.473 6.63977 154.852 3.9649C155.118 2.09367 156.19 1.42583 157.371 1.59333C158.798 1.79552 159.074 3.23731 159.103 4.80493Z" fill="#93BAC5"/>
<path d="M163.426 9.76069C163.426 11.4004 162.458 12.7297 161.265 12.7297C160.071 12.7297 159.104 11.4004 159.104 9.76069C159.104 8.12094 160.647 6.96631 161.841 6.96631C163.035 6.96631 163.426 8.12094 163.426 9.76069Z" fill="#93BAC5"/>
</svg>
