<svg width="242" height="60" viewBox="0 0 242 60" fill="none" xmlns="http://www.w3.org/2000/svg">
<path opacity="0.8" d="M3.65454 56.1945C2.04631 56.1945 1.08656 55.4553 0.892015 54.2361C0.969832 53.9378 1.16438 53.8081 1.42377 53.8081C1.73504 53.8081 1.96849 53.9508 2.04631 54.4177L2.34461 55.7406L1.65722 55.1051C2.3057 55.6109 2.85043 55.7795 3.69345 55.7795C4.87369 55.7795 5.66483 55.0792 5.66483 53.9897C5.66483 53.0429 5.26278 52.5371 3.84909 51.9405L3.34327 51.733C1.91661 51.1494 1.17735 50.3712 1.17735 49.0872C1.17735 47.6216 2.33164 46.7008 3.91394 46.7008C5.30168 46.7008 6.31331 47.4401 6.50786 48.6592C6.45598 48.9575 6.24847 49.1002 6.00204 49.1002C5.71671 49.1002 5.44435 48.9575 5.32762 48.4387L5.01635 47.1288L5.74265 47.7513C5.10714 47.2585 4.62726 47.1418 3.99175 47.1418C2.85043 47.1418 2.05928 47.7513 2.05928 48.8667C2.05928 49.7746 2.604 50.3323 3.79721 50.7992L4.17333 50.9289C6.06689 51.6941 6.57271 52.589 6.57271 53.7303C6.57271 55.2607 5.31465 56.1945 3.65454 56.1945ZM3.58969 57.6342V51.3958H4.04363V57.6342H3.58969ZM3.61563 51.3958V45.3909H4.06957V51.3958H3.61563ZM14.2204 56.1945C12.6641 56.1945 11.2115 54.7809 11.2115 51.2661C11.2115 47.7773 12.6641 46.3765 14.2204 46.3765C15.7768 46.3765 17.2164 47.7773 17.2164 51.2661C17.2164 54.7809 15.7768 56.1945 14.2204 56.1945ZM14.2204 55.7925C15.1802 55.7925 16.1399 54.716 16.1399 51.2661C16.1399 47.8681 15.1802 46.7916 14.2204 46.7916C13.2477 46.7916 12.3009 47.8681 12.3009 51.2661C12.3009 54.716 13.2477 55.7925 14.2204 55.7925Z" fill="#333333"/>
<path opacity="0.8" d="M194.477 56.0212C192.869 56.0212 191.909 55.2819 191.715 54.0628C191.792 53.7645 191.987 53.6348 192.246 53.6348C192.558 53.6348 192.791 53.7775 192.869 54.2444L193.167 55.5673L192.48 54.9318C193.128 55.4376 193.673 55.6062 194.516 55.6062C195.696 55.6062 196.487 54.9058 196.487 53.8164C196.487 52.8696 196.085 52.3638 194.672 51.7672L194.166 51.5597C192.739 50.976 192 50.1978 192 48.9139C192 47.4483 193.154 46.5274 194.736 46.5274C196.124 46.5274 197.136 47.2667 197.33 48.4859C197.278 48.7842 197.071 48.9268 196.825 48.9268C196.539 48.9268 196.267 48.7842 196.15 48.2654L195.839 46.9554L196.565 47.578C195.93 47.0851 195.45 46.9684 194.814 46.9684C193.673 46.9684 192.882 47.578 192.882 48.6934C192.882 49.6012 193.427 50.1589 194.62 50.6258L194.996 50.7555C196.889 51.5207 197.395 52.4157 197.395 53.557C197.395 55.0874 196.137 56.0212 194.477 56.0212ZM194.412 57.4608V51.2224H194.866V57.4608H194.412ZM194.438 51.2224V45.2175H194.892V51.2224H194.438ZM204.991 56.0212C203.162 56.0212 202.164 55.1133 202.164 53.7515C202.164 52.5583 202.981 51.7542 204.55 51.1057V51.0409L204.848 51.2224C203.616 51.9358 203.11 52.6102 203.11 53.6478C203.11 54.8799 203.824 55.6191 205.03 55.6191C206.236 55.6191 206.949 54.9188 206.949 53.8293C206.949 52.8696 206.392 52.1044 204.589 51.3262C203.072 50.6648 202.449 49.705 202.449 48.5248C202.449 47.1111 203.616 46.2032 205.082 46.2032C206.651 46.2032 207.559 47.124 207.559 48.3691C207.559 49.29 207.014 50.2108 205.393 50.8852V50.9501L205.147 50.7815C206.223 50.0941 206.664 49.3937 206.664 48.3432C206.664 47.3964 206.106 46.6182 205.056 46.6182C204.174 46.6182 203.396 47.2408 203.396 48.2654C203.396 49.1603 203.824 49.9644 205.458 50.6648C207.235 51.4429 207.948 52.2989 207.948 53.557C207.948 55.0485 206.781 56.0212 204.991 56.0212ZM211.86 56.0212C210.446 56.0212 209.474 55.3598 209.24 54.1795C209.331 53.9331 209.525 53.7904 209.785 53.7904C210.096 53.7904 210.278 53.959 210.368 54.4389L210.732 55.6321L210.291 55.256C210.745 55.5024 211.108 55.6191 211.704 55.6191C213.196 55.6191 214.039 54.6853 214.039 53.0382C214.039 51.43 213.157 50.6777 211.834 50.6777C211.263 50.6777 210.771 50.7815 210.317 50.976L209.979 50.8593L210.291 46.3848H214.921V47.3056H210.498L210.745 46.709L210.459 50.7555L210.07 50.6388C210.758 50.2757 211.38 50.146 212.119 50.146C213.987 50.146 215.18 51.1317 215.18 52.9863C215.18 54.815 213.883 56.0212 211.86 56.0212ZM216.887 58.1093L216.745 57.7721C217.665 57.3052 218.106 56.8642 218.249 55.9045L218.392 56.3584L217.769 55.9823C217.419 55.7618 217.25 55.5154 217.25 55.2041C217.25 54.7891 217.536 54.4649 217.99 54.4649C218.249 54.4649 218.47 54.5297 218.677 54.7372C218.768 54.9966 218.807 55.2041 218.807 55.5154C218.807 56.7605 218.055 57.6424 216.887 58.1093ZM223.75 56.0212C222.194 56.0212 220.741 54.6075 220.741 51.0928C220.741 47.6039 222.194 46.2032 223.75 46.2032C225.306 46.2032 226.746 47.6039 226.746 51.0928C226.746 54.6075 225.306 56.0212 223.75 56.0212ZM223.75 55.6191C224.71 55.6191 225.67 54.5427 225.67 51.0928C225.67 47.6947 224.71 46.6182 223.75 46.6182C222.777 46.6182 221.831 47.6947 221.831 51.0928C221.831 54.5427 222.777 55.6191 223.75 55.6191ZM230.97 56.0212C229.413 56.0212 227.961 54.6075 227.961 51.0928C227.961 47.6039 229.413 46.2032 230.97 46.2032C232.526 46.2032 233.965 47.6039 233.965 51.0928C233.965 54.6075 232.526 56.0212 230.97 56.0212ZM230.97 55.6191C231.929 55.6191 232.889 54.5427 232.889 51.0928C232.889 47.6947 231.929 46.6182 230.97 46.6182C229.997 46.6182 229.05 47.6947 229.05 51.0928C229.05 54.5427 229.997 55.6191 230.97 55.6191ZM238.189 56.0212C236.633 56.0212 235.18 54.6075 235.18 51.0928C235.18 47.6039 236.633 46.2032 238.189 46.2032C239.745 46.2032 241.185 47.6039 241.185 51.0928C241.185 54.6075 239.745 56.0212 238.189 56.0212ZM238.189 55.6191C239.149 55.6191 240.108 54.5427 240.108 51.0928C240.108 47.6947 239.149 46.6182 238.189 46.6182C237.216 46.6182 236.269 47.6947 236.269 51.0928C236.269 54.5427 237.216 55.6191 238.189 55.6191Z" fill="#333333"/>
<path d="M7.64062 27.8584H227.384" stroke="#335567" stroke-width="8.10601" stroke-linecap="round"/>
<path d="M235.298 16.7473C235.298 21.3535 230.236 21.0961 228.812 18.133C227.371 20.2943 222.328 20.6545 223.049 15.9717C223.769 11.6491 225.793 8.40723 229.175 8.40723C233.02 9.20857 235.298 12.1412 235.298 16.7473Z" fill="#335567"/>
<path d="M223.769 9.49968C223.614 11.8785 222.801 12.728 221.608 12.728C220.414 12.728 219.446 11.6489 219.446 9.49968C219.446 7.68654 220.477 6.29817 221.608 6.27133C222.688 6.24569 223.887 7.68652 223.769 9.49968Z" fill="#335567"/>
<path d="M228.812 3.72434C228.812 5.88562 228.091 6.625 226.651 6.96626C225.457 6.96626 224.489 6.11312 224.489 3.72434C224.489 1.93388 225.457 0.482422 226.651 0.482422C228.38 0.653049 228.812 1.93388 228.812 3.72434Z" fill="#335567"/>
<path d="M235.295 4.80493C235.33 6.69454 233.886 7.82386 232.704 7.65636C231.523 7.48885 230.666 6.63977 231.045 3.9649C231.31 2.09367 232.382 1.42583 233.564 1.59333C234.99 1.79552 235.266 3.23731 235.295 4.80493Z" fill="#335567"/>
<path d="M239.618 9.76069C239.618 11.4004 238.651 12.7297 237.457 12.7297C236.264 12.7297 235.296 11.4004 235.296 9.76069C235.296 8.12094 236.84 6.96631 238.034 6.96631C239.227 6.96631 239.618 8.12094 239.618 9.76069Z" fill="#335567"/>
</svg>
