<svg width="178" height="69" viewBox="0 0 178 69" fill="none" xmlns="http://www.w3.org/2000/svg">
<path d="M38.7578 64.29L38.4648 64.0361L37.918 62.8838L38.1328 62.8252L40.2422 62.3174V48.5479L41.4922 49.1924H43.7773V46.1455L45.0469 46.3408L45.3594 46.5557L45.0469 46.751V49.1924H47.7031L48.3477 48.665L49.5 49.6025L48.9727 50.0322V56.4189L47.7031 57.0635V56.0088H44.1484L44.5586 56.9463L45.0469 57.9229L45.5742 58.8408L46.1406 59.6611L46.7656 60.3838L47.0391 60.6572L46.9609 60.54L47.7812 59.583L49.832 57.2783L49.9297 57.1807L50.7891 58.0986L50.8672 58.4697L50.4766 58.3721L49.3047 59.29L48.582 59.8369L47.8203 60.3057L47.0781 60.6963L47.4297 61.0479L48.1328 61.6338L48.9141 62.1221L49.7344 62.5518L51.2969 63.1963L50.0859 64.2119L49.1094 63.7236L48.2305 63.1768L47.4102 62.5322L46.668 61.8096L46.0039 61.0088L45.418 60.1494L44.9102 59.1924L44.4805 58.1768L44.1484 57.083L43.9336 56.0088H41.4922V61.9854L42.332 61.79L43.875 61.3994L45.4961 61.0674L45.5547 61.2432L44.0508 61.9463L42.5859 62.5518L40.4766 63.3525L39.1289 63.8213L38.8945 63.8994L38.7578 64.29ZM35.7695 64.29L35.3398 64.0752L35.1836 63.626L35.2422 62.8838L35.2617 62.2197L35.2031 61.6143L35.0859 61.0674L34.9102 60.5791L34.6758 60.1494L34.3828 59.7393L34.0117 59.3877L33.582 59.0557L33.0547 58.7432L33.1133 58.5674L33.7383 58.7041L34.3242 58.9189L34.8516 59.251L35.0859 59.4658L36.6484 56.4971L38.6016 53.04L39.4219 51.6533L39.5977 51.751L36.6289 58.626L36.1406 59.876L36.0039 60.3057L35.9453 60.5791H35.9258L36.0039 60.7354L36.2188 61.3799L36.375 62.1025L36.4531 62.8838V63.7236L36.2188 64.1533L35.7695 64.29ZM41.4922 55.5791H47.7031V52.7471H41.4922V55.5791ZM35.8477 54.1338L35.457 53.8604L35.3594 53.665L35.2422 53.4502L35.0664 53.2354L34.8711 53.0205L34.3633 52.5908L34.0312 52.3564L33.2891 51.9072L32.8594 51.7119L32.918 51.5361L33.8555 51.7119L34.2852 51.8096L34.6758 51.9463L35.0664 52.1025L35.3984 52.2783L35.7305 52.4736L36.0234 52.6885L36.2969 52.9229L36.5312 53.1963L36.5898 53.6846L36.3164 54.0752L35.8477 54.1338ZM41.4922 52.3369H47.7031V49.6025H41.4922V52.3369ZM37.4883 49.3291L37.0977 49.0557L36.9805 48.8408L36.8438 48.626L36.668 48.4111L36.4727 48.1768L36.2383 47.9619L35.9648 47.7471L35.3398 47.2979L34.9883 47.083L34.5781 46.8877L34.6562 46.7119L35.5156 46.8877L35.9258 47.0049L36.3164 47.1221L36.668 47.2783L37.0195 47.4541L37.332 47.6494L37.625 47.8643L37.8984 48.0986L38.1328 48.3525L38.2305 48.8213L37.9766 49.2314L37.4883 49.3291ZM62.4578 64.29L62.1648 64.0361L61.618 62.8838L61.8328 62.8252L63.9422 62.3174V48.5479L65.1922 49.1924H67.4773V46.1455L68.7469 46.3408L69.0594 46.5557L68.7469 46.751V49.1924H71.4031L72.0477 48.665L73.2 49.6025L72.6727 50.0322V56.4189L71.4031 57.0635V56.0088H67.8484L68.2586 56.9463L68.7469 57.9229L69.2742 58.8408L69.8406 59.6611L70.4656 60.3838L70.7391 60.6572L70.6609 60.54L71.4813 59.583L73.532 57.2783L73.6297 57.1807L74.4891 58.0986L74.5672 58.4697L74.1766 58.3721L73.0047 59.29L72.282 59.8369L71.5203 60.3057L70.7781 60.6963L71.1297 61.0479L71.8328 61.6338L72.6141 62.1221L73.4344 62.5518L74.9969 63.1963L73.7859 64.2119L72.8094 63.7236L71.9305 63.1768L71.1102 62.5322L70.368 61.8096L69.7039 61.0088L69.118 60.1494L68.6102 59.1924L68.1805 58.1768L67.8484 57.083L67.6336 56.0088H65.1922V61.9854L66.032 61.79L67.575 61.3994L69.1961 61.0674L69.2547 61.2432L67.7508 61.9463L66.2859 62.5518L64.1766 63.3525L62.8289 63.8213L62.5945 63.8994L62.4578 64.29ZM59.4695 64.29L59.0398 64.0752L58.8836 63.626L58.9422 62.8838L58.9617 62.2197L58.9031 61.6143L58.7859 61.0674L58.6102 60.5791L58.3758 60.1494L58.0828 59.7393L57.7117 59.3877L57.282 59.0557L56.7547 58.7432L56.8133 58.5674L57.4383 58.7041L58.0242 58.9189L58.5516 59.251L58.7859 59.4658L60.3484 56.4971L62.3016 53.04L63.1219 51.6533L63.2977 51.751L60.3289 58.626L59.8406 59.876L59.7039 60.3057L59.6453 60.5791H59.6258L59.7039 60.7354L59.9188 61.3799L60.075 62.1025L60.1531 62.8838V63.7236L59.9188 64.1533L59.4695 64.29ZM65.1922 55.5791H71.4031V52.7471H65.1922V55.5791ZM59.5477 54.1338L59.157 53.8604L59.0594 53.665L58.9422 53.4502L58.7664 53.2354L58.5711 53.0205L58.0633 52.5908L57.7313 52.3564L56.9891 51.9072L56.5594 51.7119L56.618 51.5361L57.5555 51.7119L57.9852 51.8096L58.3758 51.9463L58.7664 52.1025L59.0984 52.2783L59.4305 52.4736L59.7234 52.6885L59.9969 52.9229L60.2313 53.1963L60.2898 53.6846L60.0164 54.0752L59.5477 54.1338ZM65.1922 52.3369H71.4031V49.6025H65.1922V52.3369ZM61.1883 49.3291L60.7977 49.0557L60.6805 48.8408L60.5438 48.626L60.368 48.4111L60.1727 48.1768L59.9383 47.9619L59.6648 47.7471L59.0398 47.2979L58.6883 47.083L58.2781 46.8877L58.3563 46.7119L59.2156 46.8877L59.6258 47.0049L60.0164 47.1221L60.368 47.2783L60.7195 47.4541L61.032 47.6494L61.325 47.8643L61.5984 48.0986L61.8328 48.3525L61.9305 48.8213L61.6766 49.2314L61.1883 49.3291ZM93.1891 64.5049V48.3525L94.4391 48.9775H96.7242L97.3688 48.4502L98.5211 49.3877L97.9938 49.8174V63.2549L96.7242 63.8799V62.6299H94.4391V63.8799L93.1891 64.5049ZM85.1813 64.4658L85.0445 64.3291L85.6305 63.5674L86.1578 62.7471L86.6266 61.8291L87.0172 60.833L87.3492 59.7588L87.6227 58.5674L87.818 57.2979L87.9547 55.9111L88.0328 54.4268V52.8643V50.9697H85.9234V50.54H88.0328V46.458L89.3023 46.6533L89.6148 46.8682L89.3023 47.0635V50.54H90.7672L91.4117 50.0322L92.5641 50.9697L92.0367 51.2822V52.708V54.4854L92.0172 56.1064L91.9781 57.5518L91.9195 58.8213L91.8414 59.9346L91.7438 60.8721L91.6266 61.6533L91.4898 62.2783L91.2945 62.8057L91.1578 63.04L91.0211 63.2354L90.8453 63.4502L90.6695 63.6064L90.4547 63.7627L90.2203 63.8799L89.9859 63.9775L89.732 64.0361L89.4781 64.0752L89.2047 64.0947V63.4697L87.1148 63.1572V62.8252H89.2047H89.3609L89.4781 62.8057L89.5953 62.7666L89.693 62.7471L89.7906 62.6885L89.8688 62.6299L89.9469 62.5518L90.0836 62.3564L90.1617 62.2393L90.2789 61.9463L90.3961 61.4189L90.4938 60.7158L90.5914 59.8174L90.6695 58.7432L90.7281 57.4932L90.7672 56.0869L90.7867 54.4658V51.8096H90.7672V50.9697H89.3023V52.8643L89.2242 54.4854L89.068 56.0283L88.8727 57.4541L88.5797 58.7822L88.2086 60.0127L87.7594 61.1455L87.232 62.1416L86.6266 63.0596L85.943 63.8213L85.1813 64.4658ZM94.4391 62.2002H96.7242V49.3877H94.4391V62.2002ZM80.65 61.2432V48.2549L81.9195 48.8799H84.1656L84.7906 48.3721L85.943 49.3096L85.4156 49.7197V59.9736L84.1656 60.5986V59.3486H81.9195V60.5986L80.65 61.2432ZM81.9195 58.9189H84.1656V49.3096H81.9195V58.9189ZM110.073 64.4854L110.014 64.3096L110.815 63.8799L111.498 63.3916L112.104 62.8643L112.612 62.2588L113.022 61.5947L113.354 60.8525L113.608 60.0322L113.784 59.1338L113.881 58.2549L111.088 59.6025L110.756 59.7393L110.678 60.1299L110.366 59.915L109.721 58.8018L113.901 57.3174V54.3291H110.854V53.8994H113.901V49.915H111.069V49.5049H113.901V46.1455L115.151 46.3408L115.463 46.5557L115.151 46.751V56.8682L115.912 56.6143L116.518 56.4385L116.616 56.6143L116.088 56.9854L115.112 57.5908L115.073 58.2354L114.897 59.3291L114.623 60.3252L114.252 61.2432L113.784 62.0635L113.217 62.7861L112.553 63.3721L111.811 63.8799L110.971 64.2314L110.073 64.4854ZM117.26 64.3096V46.1455L118.51 46.3408L118.842 46.5557L118.51 46.751V49.5049H120.053L120.912 48.5479L121.967 49.5049V49.915H118.51V53.8994H120.053L120.717 53.1768L121.557 53.8994V54.3291H118.51V58.3135H120.248L121.108 57.376L122.162 58.3135V58.7432H118.51V63.665L117.26 64.3096ZM104.467 60.6572V48.4111L105.717 49.0557H108.315L108.94 48.5283L110.092 49.4658L109.565 49.8955V59.3877L108.315 60.0127V58.7627H105.717V60.0127L104.467 60.6572ZM105.717 58.333H108.315V49.4658H105.717V58.333ZM141.741 64.5049V63.8799L139.632 63.5674V63.2549H141.741L141.878 63.2354L142.034 63.2158L142.171 63.1963L142.288 63.1572L142.405 63.0986L142.503 63.04L142.62 62.9619L142.718 62.8838L142.933 62.6689L143.011 62.5127L143.128 62.2783L143.206 61.9463L143.304 61.5361L143.363 61.0674L143.421 60.501L143.441 59.8564L143.46 59.1338L143.441 58.5088L143.421 58.5283V57.6885H132.816V58.9385L131.546 59.583V47.8252L132.816 48.4502H135.335L135.433 48.3135L136.019 47.1416L136.312 46.5947L136.448 46.3018L136.702 45.8525H136.683L136.78 45.6768L137.777 46.4775L137.913 46.8291L137.484 46.79L136.644 47.6299L135.902 48.2939L135.706 48.4502H140.902L141.527 47.9229L142.679 48.8604L142.152 49.29V53.7041L140.902 54.3291V53.4893H132.816V55.1689H143.812L144.671 54.2314L145.726 55.1689V55.5791H132.816V57.2588H143.421L144.046 56.751L145.198 57.6885L144.691 58.001V58.333L144.71 59.1338V59.8955L144.671 60.5791L144.613 61.2041L144.534 61.751L144.437 62.2588L144.3 62.6885L144.144 63.0791L143.909 63.4307L143.753 63.626L143.577 63.8018L143.382 63.9775L143.167 64.1143L142.952 64.2314L142.718 64.3291L142.484 64.4072L142.23 64.4658L141.995 64.5049H141.741ZM129.144 63.1572V58.5283L130.394 58.7432L130.706 58.9385L130.394 59.1338V61.3604H134.378V58.0986L135.648 58.3135L135.96 58.5283L135.648 58.7236V61.3604H139.417V58.626L140.687 58.8408L140.999 59.0557L140.687 59.251V62.2002L139.417 62.8252V61.79H130.394V62.5127L129.144 63.1572ZM132.816 53.0596H140.902V51.1846H132.816V53.0596ZM132.816 50.7549H140.902V48.8604H132.816V50.7549Z" fill="#2F3639"/>
<path fill-rule="evenodd" clip-rule="evenodd" d="M26.6722 0.316036C24.2766 0.690225 23.3986 1.14453 21.4875 2.99905C20.4236 4.03131 19.8132 4.45177 19.5332 4.34529C19.3095 4.2602 18.9332 4.29628 18.6971 4.4254C18.4613 4.55478 17.6362 4.94489 16.8635 5.29246C14.5721 6.32347 9.50385 10.9583 8.42562 13.0089C7.91956 13.9713 7 15 7.5 16.5C7.7142 17.1426 8.5 17.5 9.1007 17.8405C9.7014 18.181 10.7981 18.6125 12.6249 18.6125H14.6883L14.5041 20.0431C14.4028 20.8298 14.3599 22.4813 14.4085 23.7128C14.4572 24.9444 14.4896 27.9113 14.4803 30.3059C14.464 34.5352 14.4399 34.731 13.6394 37.1478C13.1861 38.5162 12.0065 41.2032 11.0183 43.1189C8.21263 48.5571 7.23752 51.7774 7.10455 52.9673C6.97158 54.1571 7.00004 54 6.84993 54.5735C6.77766 54.8496 6.49445 55.2132 5.90917 55.0709C4.41577 54.7081 3.17787 52.8092 2.58895 51.6546C2.00004 50.5 2.24124 51.0385 1.96179 50.4584C1.50004 49.5 1.50004 49.5 1.33462 49.1965C1.04678 48.6684 0.681616 48.1282 0.193931 48.3138C-0.139721 48.4407 -0.0724894 48.6892 0.629686 49.9258C2.70711 53.5838 3.54576 54.6081 4.92126 55.1681C6.9006 55.9742 6.96884 56.0347 7.1181 57.1147C7.29521 58.3975 8.28012 59.6731 10.1438 61.0338C12.3386 62.6362 13.3218 63.1209 15.8046 62.9756C18.1517 62.8382 24 62.4215 24 62C24 61.5786 22 62 20 62C16.5 62.4204 14.6494 62.475 12.6236 61.5796C11.2629 60.978 8.80368 58.8839 8.173 57.7897C7.32105 56.3114 7.48587 55.8712 9.01791 55.5349C10.6142 55.1846 10.8676 55.0325 10.8676 54.4245C10.8676 53.8057 10.6759 53.8139 10.1526 54.4548C9.67769 55.0365 7.77437 55.4077 7.50243 54.9716C7.20565 54.4951 8.06888 50.7726 8.9853 48.5773C9.47299 47.4089 10.4519 45.3668 11.1606 44.0395C13.1572 40.2998 13.3451 39.892 14.3195 37.1909C15.2284 34.6708 15.2326 34.6412 15.2708 30.3059C15.2918 27.9113 15.2412 24.8884 15.1579 23.5884C15.0748 22.2885 15.0934 20.6091 15.1995 19.8565C15.3054 19.1039 15.4449 18.0134 15.5091 17.4332C15.8749 14.1394 17.3592 9.60708 18.9161 7.0298C20.0039 5.22926 22.9322 2.0897 23.8439 1.74661C24.2267 1.60231 25.6353 1.29853 26.9742 1.07088C29.7438 0.600409 32.2452 0.823081 34.0893 1.70457C35.3787 2.32083 36.9617 2.32705 38.1608 1.72024C39.7561 0.913146 40.2759 0.953201 40.7393 1.91853C41.2585 3.00055 41.8147 3.39737 42.6024 3.2481C42.9474 3.18266 43.2294 3.23392 43.2294 3.3618C43.2294 3.99722 42.3491 6.43916 41.7229 7.54108C41.2894 8.30389 40.9487 9.36227 40.8419 10.2778C40.6587 11.847 39.9254 13.3798 38.9069 14.3233L38.2996 14.8858L38.0211 14.3233C37.8681 14.014 37.5071 13.2094 37.2191 12.5349C36.8323 11.6288 36.6223 11.3817 36.4141 11.5882C36.1231 11.8769 36.2204 12.2324 37.2123 14.5074C38.4115 17.2581 38.7459 19.812 38.0871 21.1888C37.5124 22.3897 36.7093 22.9261 34.5745 23.5347C30.7515 24.6244 29.654 24.4672 29.2187 22.7669C29.0433 22.0815 29.0413 21.3495 29.2122 20.4952C29.8072 17.5205 29.9267 16.5928 30.0681 13.8481C30.1745 11.7848 30.1341 10.8983 29.9282 10.7722C29.3617 10.4249 29.2282 11.0727 29.082 14.8806C29.0007 17.0016 28.7651 19.5139 28.5589 20.4636C28.0883 22.6283 28.3495 23.8193 29.4671 24.6085C30.2277 25.1457 30.2766 25.1489 32.0322 24.7665C33.0166 24.5523 34 24.5 34 24.5C34 24.5 34.5 24.5 34.6999 24.6212C35 25 35 25.5 35.3313 26.3861C35.6276 27.1786 35.9917 27.676 36.3594 29.1209C37.0013 31.644 39.638 37.7594 39.9681 37.8683C40.364 37.9992 38.1006 31.7584 37.5879 30.8262C37.3929 30.4716 37.0475 29.5118 36.8207 28.693C36.5937 27.8744 36.0882 26.5051 35.6973 25.65L34.9866 24.0957L35.9158 23.8474C37.0498 23.5446 38.635 21.9917 38.9611 20.8641C39.1096 20.3506 39.1159 19.2171 38.9782 17.8927L38.7551 15.7514L39.6951 14.6318C41.2392 12.7924 41.5077 12.2441 41.7327 10.4669C41.8714 9.37097 42.2773 8.08121 42.8784 6.82554C44.0547 4.36917 44.35 1.70133 43.5532 0.726548C43.1225 0.1991 42.8674 0.13292 41.3062 0.142623C39.9224 0.151331 39.2699 0.291901 38.2599 0.799445C36.7271 1.56972 36.3937 1.58713 34.796 0.98007C31.9705 -0.0934854 30.2124 -0.237038 26.6722 0.316036ZM19.2982 5.03196C19.3729 5.22553 18.9339 6.23166 18.3223 7.26765C17.1839 9.19657 15.5818 13.6428 15.1137 16.1738L14.8513 17.5912L13.7237 17.7591C12.2646 17.9761 11.079 17.7751 9.64207 17.0677C8.54102 16.5256 8.54302 16.4531 8.54302 15.5356C8.70634 12.8529 12.5802 8.45316 17.2594 5.63679C18.9974 4.59035 19.1138 4.55577 19.2982 5.03196Z" fill="#2F3639"/>
<path d="M60.584 38.1268C67.1203 36.2043 73.1322 34.1387 79.1959 31.0536C82.3298 29.4592 85.3883 28.0638 88.4269 26.3183C91.2737 24.6829 94.0005 23.001 97.8077 21.7517C101.336 20.5941 101.5 20.001 104.5 20.001C109 21.001 110 24.6515 112.419 26.8278C114.216 28.4455 116.351 29.6962 118.203 31.2634C120.228 32.9766 122.68 33.4437 125.081 34.2156C126.795 34.7665 128.895 35.6991 130.716 35.6991" stroke="#2F3639" stroke-width="0.7" stroke-linecap="round"/>
<path d="M119.5 32C122.321 30.8326 125.453 27.7547 127.808 25.9884C128.697 25.3217 129.355 24.8885 130 24.001C130.478 23.3433 131.644 22.3197 132.364 21.9274C135.738 20.0865 138.334 19.193 141.115 22.2271C142.332 23.5544 143.36 25.2585 144.756 26.3931C146.457 27.7743 147 29.5 149.327 30.8437C152 32.5 150.5 31.5 154 34C155.726 35.233 155 35 159 37.5C166 42.5 176 46 177.5 46" stroke="#2F3639" stroke-width="0.7" stroke-linecap="round"/>
</svg>
