<svg width="26" height="135" viewBox="0 0 26 135" fill="none" xmlns="http://www.w3.org/2000/svg">
<path d="M11.1112 65.2275V134L23.1641 121.947" stroke="white" stroke-width="0.708995"/>
<path d="M8.90925 3.50527C8.90925 2.90026 9 2.32172 9.1815 1.76965C9.37057 1.21758 9.61257 0.782729 9.90751 0.4651L10.7923 0.884825C10.5276 1.18733 10.3083 1.57302 10.1344 2.0419C9.96045 2.51079 9.87348 2.99857 9.87348 3.50527C9.87348 3.96659 9.92642 4.34094 10.0323 4.62832C10.1382 4.9157 10.2819 5.12745 10.4634 5.26358C10.6524 5.3997 10.8642 5.46777 11.0986 5.46777C11.3709 5.46777 11.5902 5.37702 11.7566 5.19551C11.9229 5.02157 12.0553 4.79091 12.1536 4.50353C12.2595 4.22372 12.3502 3.91365 12.4259 3.57333C12.5015 3.23302 12.5885 2.88892 12.6868 2.54104C12.7926 2.20072 12.925 1.88687 13.0838 1.59949C13.2426 1.31967 13.4544 1.0928 13.7191 0.918857C13.9913 0.744917 14.3392 0.657947 14.7627 0.657947C15.1711 0.657947 15.5454 0.763823 15.8858 0.975576C16.2336 1.19489 16.5097 1.52765 16.7139 1.97384C16.9256 2.4276 17.0315 3.00236 17.0315 3.69812C17.0315 4.15944 16.971 4.61697 16.85 5.07073C16.729 5.52449 16.555 5.91774 16.3282 6.2505L15.4207 5.87615C15.6475 5.53583 15.8101 5.17661 15.9084 4.79848C16.0143 4.42035 16.0673 4.05356 16.0673 3.69812C16.0673 3.25192 16.0105 2.88514 15.8971 2.59776C15.7837 2.31038 15.6324 2.09862 15.4433 1.9625C15.2543 1.83393 15.0425 1.76965 14.8081 1.76965C14.5283 1.76965 14.3052 1.85662 14.1388 2.03056C13.9724 2.21206 13.8401 2.44272 13.7418 2.72254C13.6434 3.00992 13.5527 3.32377 13.4695 3.66408C13.3939 4.0044 13.3069 4.34472 13.2086 4.68504C13.1103 5.03292 12.9817 5.34676 12.8229 5.62658C12.6641 5.91396 12.4523 6.14462 12.1876 6.31856C11.9229 6.4925 11.5826 6.57947 11.1667 6.57947C10.7659 6.57947 10.3915 6.46981 10.0436 6.2505C9.70332 6.03118 9.42729 5.69086 9.21553 5.22954C9.01134 4.77579 8.90925 4.20103 8.90925 3.50527ZM8.90925 13.1487C8.90925 12.5437 9.00756 11.984 9.20419 11.4698C9.40838 10.9631 9.69198 10.5207 10.055 10.1425C10.4256 9.77195 10.8566 9.48079 11.3482 9.26904C11.8398 9.05729 12.3805 8.95141 12.9704 8.95141C13.5603 8.95141 14.101 9.05729 14.5926 9.26904C15.0841 9.48079 15.5114 9.77574 15.8744 10.1539C16.245 10.532 16.5286 10.9744 16.7252 11.4811C16.9294 11.9954 17.0315 12.555 17.0315 13.16C17.0315 13.7726 16.9256 14.336 16.7139 14.8502C16.5097 15.3721 16.2034 15.8145 15.795 16.1775L15.0803 15.4401C15.398 15.1376 15.6324 14.7973 15.7837 14.4192C15.9425 14.041 16.0219 13.6364 16.0219 13.2054C16.0219 12.7592 15.9463 12.3432 15.795 11.9575C15.6438 11.5794 15.432 11.2504 15.1597 10.9706C14.8875 10.6908 14.5623 10.4715 14.1842 10.3127C13.8136 10.1614 13.409 10.0858 12.9704 10.0858C12.5317 10.0858 12.1234 10.1614 11.7452 10.3127C11.3747 10.4715 11.0532 10.6908 10.781 10.9706C10.5087 11.2504 10.297 11.5794 10.1457 11.9575C9.99448 12.3432 9.91886 12.7592 9.91886 13.2054C9.91886 13.6364 9.99448 14.041 10.1457 14.4192C10.3045 14.7973 10.5466 15.1376 10.8717 15.4401L10.1571 16.1775C9.7487 15.8145 9.43863 15.3721 9.22688 14.8502C9.01512 14.336 8.90925 13.7688 8.90925 13.1487ZM9 19.157L16.9407 19.157L16.9407 22.2539C16.9407 22.9497 16.8311 23.5433 16.6118 24.0349C16.3925 24.5265 16.0748 24.9046 15.6589 25.1693C15.2429 25.434 14.7476 25.5663 14.1728 25.5663C13.5981 25.5663 13.1027 25.434 12.6868 25.1693C12.2784 24.9046 11.9645 24.5265 11.7452 24.0349C11.5259 23.5433 11.4163 22.9497 11.4163 22.2539L11.4163 19.781L11.9381 20.2914L9 20.2914L9 19.157ZM9 24.466L11.8814 22.4468L11.8814 23.6606L9 25.7025L9 24.466ZM11.8246 20.2914L12.3805 19.781L12.3805 22.2199C12.3805 22.9459 12.5355 23.4942 12.8456 23.8648C13.1632 24.2429 13.6056 24.432 14.1728 24.432C14.74 24.432 15.1787 24.2429 15.4887 23.8648C15.7988 23.4942 15.9538 22.9459 15.9538 22.2199L15.9538 19.781L16.521 20.2914L11.8246 20.2914ZM8.90925 32.345C8.90925 31.74 9.01134 31.1766 9.21553 30.6548C9.41972 30.1405 9.70332 29.6944 10.0663 29.3162C10.4369 28.9381 10.868 28.6431 11.3595 28.4314C11.8511 28.2196 12.388 28.1138 12.9704 28.1138C13.5527 28.1138 14.0896 28.2196 14.5812 28.4314C15.0728 28.6431 15.5001 28.9381 15.8631 29.3162C16.2336 29.6944 16.521 30.1405 16.7252 30.6548C16.9294 31.1691 17.0315 31.7325 17.0315 32.345C17.0315 32.9501 16.9294 33.5059 16.7252 34.0126C16.5286 34.5269 16.245 34.9731 15.8744 35.3512C15.5114 35.7369 15.0841 36.0318 14.5925 36.236C14.101 36.4478 13.5603 36.5536 12.9704 36.5536C12.3805 36.5536 11.8398 36.4478 11.3482 36.236C10.8566 36.0318 10.4256 35.7369 10.055 35.3512C9.69198 34.9731 9.40838 34.5269 9.20419 34.0126C9.00756 33.5059 8.90925 32.9501 8.90925 32.345ZM9.91886 32.345C9.91886 32.7837 9.99448 33.1883 10.1457 33.5588C10.297 33.937 10.5087 34.2622 10.781 34.5344C11.0608 34.8142 11.386 35.0298 11.7566 35.181C12.1271 35.3398 12.5317 35.4192 12.9704 35.4192C13.409 35.4192 13.8136 35.3398 14.1842 35.181C14.5547 35.0298 14.8761 34.8142 15.1484 34.5344C15.4282 34.2622 15.6438 33.937 15.795 33.5588C15.9463 33.1883 16.0219 32.7837 16.0219 32.345C16.0219 31.8989 15.9463 31.4867 15.795 31.1086C15.6438 30.738 15.4282 30.4128 15.1484 30.133C14.8761 29.8532 14.5547 29.6339 14.1842 29.475C13.8136 29.3238 13.409 29.2482 12.9704 29.2482C12.5317 29.2482 12.1271 29.3238 11.7566 29.475C11.386 29.6339 11.0608 29.8532 10.781 30.133C10.5087 30.4128 10.297 30.738 10.1457 31.1086C9.99448 31.4867 9.91886 31.8989 9.91886 32.345ZM9 39.6488L16.9407 39.6488L16.9407 40.7831L9.98692 40.7831L9.98692 45.0825L9 45.0825L9 39.6488ZM9 47.7455L16.9407 47.7455L16.9407 48.8799L9.98692 48.8799L9.98692 53.1792L9 53.1792L9 47.7455Z" fill="white"/>
</svg>
