<svg width="27" height="135" viewBox="0 0 27 135" fill="none" xmlns="http://www.w3.org/2000/svg">
<path d="M11.6351 65.2275V134L23.688 121.947" stroke="currentColor" stroke-width="0.708995"/>
<path d="M9.43317 3.50527C9.43317 2.90026 9.52393 2.32172 9.70543 1.76965C9.89449 1.21758 10.1365 0.782729 10.4314 0.4651L11.3163 0.884825C11.0516 1.18733 10.8323 1.57302 10.6583 2.0419C10.4844 2.51079 10.3974 2.99857 10.3974 3.50527C10.3974 3.96659 10.4503 4.34094 10.5562 4.62832C10.6621 4.9157 10.8058 5.12745 10.9873 5.26358C11.1764 5.3997 11.3881 5.46777 11.6225 5.46777C11.8948 5.46777 12.1141 5.37702 12.2805 5.19551C12.4469 5.02157 12.5792 4.79091 12.6775 4.50353C12.7834 4.22372 12.8742 3.91365 12.9498 3.57333C13.0254 3.23302 13.1124 2.88892 13.2107 2.54104C13.3166 2.20072 13.4489 1.88687 13.6077 1.59949C13.7666 1.31967 13.9783 1.0928 14.243 0.918857C14.5152 0.744917 14.8631 0.657947 15.2866 0.657947C15.695 0.657947 16.0694 0.763823 16.4097 0.975576C16.7576 1.19489 17.0336 1.52765 17.2378 1.97384C17.4495 2.4276 17.5554 3.00236 17.5554 3.69812C17.5554 4.15944 17.4949 4.61697 17.3739 5.07073C17.2529 5.52449 17.079 5.91774 16.8521 6.2505L15.9446 5.87615C16.1715 5.53583 16.3341 5.17661 16.4324 4.79848C16.5382 4.42035 16.5912 4.05356 16.5912 3.69812C16.5912 3.25192 16.5345 2.88514 16.421 2.59776C16.3076 2.31038 16.1563 2.09862 15.9673 1.9625C15.7782 1.83393 15.5665 1.76965 15.332 1.76965C15.0522 1.76965 14.8291 1.85662 14.6627 2.03056C14.4963 2.21206 14.364 2.44272 14.2657 2.72254C14.1674 3.00992 14.0766 3.32377 13.9934 3.66408C13.9178 4.0044 13.8308 4.34472 13.7325 4.68504C13.6342 5.03292 13.5056 5.34676 13.3468 5.62658C13.188 5.91396 12.9763 6.14462 12.7116 6.31856C12.4469 6.4925 12.1066 6.57947 11.6906 6.57947C11.2898 6.57947 10.9154 6.46981 10.5676 6.2505C10.2272 6.03118 9.95121 5.69086 9.73946 5.22954C9.53527 4.77579 9.43317 4.20103 9.43317 3.50527ZM9.43317 13.1487C9.43317 12.5437 9.53149 11.984 9.72812 11.4698C9.93231 10.9631 10.2159 10.5207 10.5789 10.1425C10.9495 9.77195 11.3805 9.48079 11.8721 9.26904C12.3637 9.05729 12.9044 8.95141 13.4943 8.95141C14.0842 8.95141 14.6249 9.05729 15.1165 9.26904C15.608 9.48079 16.0353 9.77574 16.3983 10.1539C16.7689 10.532 17.0525 10.9744 17.2491 11.4811C17.4533 11.9954 17.5554 12.555 17.5554 13.16C17.5554 13.7726 17.4495 14.336 17.2378 14.8502C17.0336 15.3721 16.7273 15.8145 16.3189 16.1775L15.6043 15.4401C15.9219 15.1376 16.1563 14.7973 16.3076 14.4192C16.4664 14.041 16.5458 13.6364 16.5458 13.2054C16.5458 12.7592 16.4702 12.3432 16.3189 11.9575C16.1677 11.5794 15.9559 11.2504 15.6837 10.9706C15.4114 10.6908 15.0862 10.4715 14.7081 10.3127C14.3375 10.1614 13.9329 10.0858 13.4943 10.0858C13.0557 10.0858 12.6473 10.1614 12.2692 10.3127C11.8986 10.4715 11.5772 10.6908 11.3049 10.9706C11.0327 11.2504 10.8209 11.5794 10.6697 11.9575C10.5184 12.3432 10.4428 12.7592 10.4428 13.2054C10.4428 13.6364 10.5184 14.041 10.6697 14.4192C10.8285 14.7973 11.0705 15.1376 11.3957 15.4401L10.681 16.1775C10.2726 15.8145 9.96256 15.3721 9.7508 14.8502C9.53905 14.336 9.43317 13.7688 9.43317 13.1487ZM9.52392 19.157L17.4647 19.157L17.4647 22.2539C17.4647 22.9497 17.355 23.5433 17.1357 24.0349C16.9164 24.5265 16.5987 24.9046 16.1828 25.1693C15.7669 25.434 15.2715 25.5663 14.6968 25.5663C14.122 25.5663 13.6266 25.434 13.2107 25.1693C12.8023 24.9046 12.4885 24.5265 12.2692 24.0349C12.0498 23.5433 11.9402 22.9497 11.9402 22.2539L11.9402 19.781L12.462 20.2914L9.52392 20.2914L9.52392 19.157ZM9.52392 24.466L12.4053 22.4468L12.4053 23.6606L9.52392 25.7025L9.52392 24.466ZM12.3486 20.2914L12.9044 19.781L12.9044 22.2199C12.9044 22.9459 13.0594 23.4942 13.3695 23.8648C13.6871 24.2429 14.1296 24.432 14.6968 24.432C15.2639 24.432 15.7026 24.2429 16.0126 23.8648C16.3227 23.4942 16.4777 22.9459 16.4777 22.2199L16.4777 19.781L17.0449 20.2914L12.3486 20.2914ZM9.43317 32.345C9.43317 31.74 9.53527 31.1766 9.73946 30.6548C9.94365 30.1405 10.2272 29.6944 10.5903 29.3162C10.9608 28.9381 11.3919 28.6431 11.8835 28.4314C12.375 28.2196 12.912 28.1138 13.4943 28.1138C14.0766 28.1138 14.6136 28.2196 15.1051 28.4314C15.5967 28.6431 16.024 28.9381 16.387 29.3162C16.7576 29.6944 17.0449 30.1405 17.2491 30.6548C17.4533 31.1691 17.5554 31.7325 17.5554 32.345C17.5554 32.9501 17.4533 33.5059 17.2491 34.0126C17.0525 34.5269 16.7689 34.9731 16.3983 35.3512C16.0353 35.7369 15.608 36.0318 15.1165 36.236C14.6249 36.4478 14.0842 36.5536 13.4943 36.5536C12.9044 36.5536 12.3637 36.4478 11.8721 36.236C11.3805 36.0318 10.9495 35.7369 10.5789 35.3512C10.2159 34.9731 9.93231 34.5269 9.72811 34.0126C9.53149 33.5059 9.43317 32.9501 9.43317 32.345ZM10.4428 32.345C10.4428 32.7837 10.5184 33.1883 10.6697 33.5588C10.8209 33.937 11.0327 34.2622 11.3049 34.5344C11.5847 34.8142 11.9099 35.0298 12.2805 35.181C12.6511 35.3398 13.0557 35.4192 13.4943 35.4192C13.9329 35.4192 14.3375 35.3398 14.7081 35.181C15.0787 35.0298 15.4001 34.8142 15.6723 34.5344C15.9521 34.2622 16.1677 33.937 16.3189 33.5588C16.4702 33.1883 16.5458 32.7837 16.5458 32.345C16.5458 31.8989 16.4702 31.4867 16.3189 31.1086C16.1677 30.738 15.9521 30.4128 15.6723 30.133C15.4001 29.8532 15.0787 29.6339 14.7081 29.475C14.3375 29.3238 13.9329 29.2482 13.4943 29.2482C13.0557 29.2482 12.6511 29.3238 12.2805 29.475C11.9099 29.6339 11.5847 29.8532 11.3049 30.133C11.0327 30.4128 10.8209 30.738 10.6697 31.1086C10.5184 31.4867 10.4428 31.8989 10.4428 32.345ZM9.52392 39.6488L17.4647 39.6488L17.4647 40.7831L10.5108 40.7831L10.5108 45.0825L9.52392 45.0825L9.52392 39.6488ZM9.52392 47.7455L17.4647 47.7455L17.4647 48.8799L10.5108 48.8799L10.5108 53.1792L9.52392 53.1792L9.52392 47.7455Z" fill="currentColor"/>
</svg>
