<svg width="130" height="130" viewBox="0 0 130 130" fill="none" xmlns="http://www.w3.org/2000/svg">
<path d="M26.0156 93.4375C26.0156 93.4896 26.1094 93.5156 26.2969 93.5156L26.8125 93.5L27.3438 93.5156H29.6562C29.9271 93.5156 30.1406 93.375 30.2969 93.0938C30.2969 93.0938 30.375 92.9688 30.5312 92.7188C30.6042 92.6354 30.6719 92.5521 30.7344 92.4688C30.7969 92.4375 30.849 92.4219 30.8906 92.4219C30.9323 92.4219 30.9635 92.4375 30.9844 92.4688C31.0156 92.5 31.0312 92.5365 31.0312 92.5781C31.0312 92.6094 31.0156 92.8542 30.9844 93.3125L30.9219 93.7656L30.9062 93.9844L30.8438 94.1875C30.8125 94.3333 30.7552 94.4479 30.6719 94.5312C30.5469 94.6458 30.3854 94.7031 30.1875 94.7031L25.1875 94.5781C25.0312 94.5781 24.9219 94.5469 24.8594 94.4844C24.8177 94.4427 24.7969 94.3906 24.7969 94.3281C24.7969 94.2552 24.8385 94.1615 24.9219 94.0469L26.8438 91.3594L27.6562 90.1719L28.2969 89.1406L28.7812 88.2812L29.0938 87.5625L29.3125 86.9688L29.4062 86.4844L29.4219 86.0781L29.375 85.6562L29.3594 85.4531L29.3125 85.25L29.2344 85.0312L29.1094 84.8125L28.9531 84.625L28.7656 84.4375L28.5469 84.2656L28.2656 84.1094L27.9688 84L27.6719 83.8906L27.5 83.8594L26.8438 83.9375L26.2344 84.1406L25.7188 84.5156L25.3125 85.0625L25.0938 85.4219C25 85.5781 24.9167 85.6562 24.8438 85.6562C24.8229 85.6562 24.7969 85.6458 24.7656 85.625C24.724 85.5833 24.7031 85.4948 24.7031 85.3594C24.7031 85.349 24.7083 85.1667 24.7188 84.8125L25.1406 84L25.7969 83.4062L26.6094 83.0312L27.5 82.8906L28.375 82.9531L29.2344 83.25L29.9688 83.7969L30.5156 84.5938L30.75 85.625L30.6875 86.3438L30.5469 87.0312L30.3125 87.6875L29.9688 88.3281L29.5312 89.0156L28.9688 89.7969L26.0938 93.3125C26.0417 93.375 26.0156 93.4167 26.0156 93.4375ZM51.0625 93.8906C51.0729 93.9427 51.0781 94 51.0781 94.0625C51.0781 94.1146 51.0521 94.1615 51 94.2031C50.9583 94.2448 50.901 94.2656 50.8281 94.2656C50.7969 94.2656 50.7604 94.2604 50.7188 94.25L50.3438 94.5469L49.9688 94.7969L49.125 95.2812L48.6562 95.5L47.6719 95.9375L46.9531 96.1406H46.9375C46.7812 96.1406 46.6771 96.1146 46.625 96.0625C46.5938 96.0417 46.5781 96.0104 46.5781 95.9688C46.5781 95.8958 46.6562 95.8125 46.8125 95.7188L48.2656 94.7969L49.0156 94.2344L49.3594 93.9688L49.6719 93.7031C49.8177 93.5365 49.8958 93.4531 49.9062 93.4531C50.0208 93.3281 50.1458 93.2656 50.2812 93.2656C50.4167 93.2656 50.5417 93.3333 50.6562 93.4688L51.0625 93.8906ZM52.0938 93.5938C52.0104 93.5 51.9688 93.4115 51.9688 93.3281C51.9688 93.3073 51.9844 93.2865 52.0156 93.2656C52.0469 93.2344 52.0885 93.2188 52.1406 93.2188C52.1927 93.2188 52.25 93.224 52.3125 93.2344L52.6875 93.3438L53.0469 93.4844L53.375 93.6406L53.7031 93.8281L54.0312 94.0156L54.3125 94.2188L54.5938 94.4531L54.8438 94.7031L55.1094 94.9844L55.2188 95.4219L55 95.8125L54.5469 95.9219L54.1719 95.7188L53.8125 95.2031L53.4219 94.7188L53.1875 94.5L52.6875 94.0781L52.0938 93.5938ZM45.2812 93.7812C45.1875 93.6771 45.1406 93.5938 45.1406 93.5312C45.1406 93.3958 45.2344 93.3021 45.4219 93.25L45.7969 93.1406C46.0469 93.0677 46.1719 92.901 46.1719 92.6406V90.2969C46.1719 90.1615 46.1406 90.0677 46.0781 90.0156C46.026 89.9531 45.9323 89.9219 45.7969 89.9219H44.7812C44.6458 89.9219 44.5469 89.9531 44.4844 90.0156C44.4323 90.0677 44.4062 90.1562 44.4062 90.2812V95.1562C44.4062 95.5104 44.25 95.7604 43.9375 95.9062L43.7656 96C43.6615 96.0521 43.5677 96.0781 43.4844 96.0781C43.4115 96.0781 43.3438 96.0469 43.2812 95.9844C43.2292 95.9323 43.2031 95.8281 43.2031 95.6719V90.2969C43.2031 90.1615 43.1719 90.0677 43.1094 90.0156C43.0573 89.9531 42.9635 89.9219 42.8281 89.9219H41.4062C41.2812 89.7865 41.2188 89.6771 41.2188 89.5938C41.2188 89.5521 41.2396 89.5104 41.2812 89.4688C41.3333 89.4167 41.4375 89.3906 41.5938 89.3906H46.2344L46.3438 89.2812C46.4896 89.1667 46.6302 89.1094 46.7656 89.1094C46.901 89.1094 47.0417 89.1667 47.1875 89.2812L47.4062 89.4844L47.4688 89.7031C47.3958 90.0156 47.3594 90.3229 47.3594 90.625V93.1094L47.3438 93.3281L47.3125 93.5469L47.2344 93.7656L47.1094 93.9844L46.9688 94.1562L46.7812 94.2969L46.5781 94.4219L46.3594 94.4844C46.2031 94.5052 46.1146 94.5156 46.0938 94.5156C46.0104 94.5156 45.9427 94.4948 45.8906 94.4531C45.849 94.401 45.8281 94.3281 45.8281 94.2344C45.8281 94.1406 45.8073 94.0729 45.7656 94.0312C45.724 93.9896 45.6719 93.9635 45.6094 93.9531C45.599 93.9427 45.4896 93.8854 45.2812 93.7812ZM54.4219 84.8281C54.5573 84.9427 54.625 85.0677 54.625 85.2031C54.625 85.3281 54.5469 85.4583 54.3906 85.5938V91.9688C54.3906 92.3125 54.2396 92.5573 53.9375 92.7031C53.9271 92.7135 53.8333 92.7552 53.6562 92.8281L53.6094 92.7969C53.3802 92.6094 53.1198 92.5156 52.8281 92.5156L49.9219 92.5625C49.724 92.7083 49.5208 92.8281 49.3125 92.9219L49.0312 93.0625C48.9271 93.1146 48.8385 93.1406 48.7656 93.1406C48.6927 93.1406 48.625 93.1146 48.5625 93.0625C48.5104 93 48.4844 92.8854 48.4844 92.7188V84.8281C48.4844 84.6719 48.5156 84.5625 48.5781 84.5C48.6406 84.4375 48.7083 84.4062 48.7812 84.4062C48.8646 84.4062 48.9531 84.4323 49.0469 84.4844L49.6094 84.7812L49.75 84.7344C50.0312 84.6927 50.2292 84.5417 50.3438 84.2812L50.6406 83.6875L50.8125 83.2656C50.8438 83.1927 50.8594 83.1354 50.8594 83.0938C50.8594 83.0521 50.8438 83.0208 50.8125 83C50.7917 82.9688 50.724 82.9531 50.6094 82.9531H48C47.875 82.8177 47.8125 82.7083 47.8125 82.625C47.8125 82.5833 47.8333 82.5417 47.875 82.5C47.9271 82.4479 48.0312 82.4219 48.1875 82.4219H53.4375L53.9219 81.9375C54.0573 81.8021 54.1927 81.7344 54.3281 81.7344C54.4635 81.7344 54.599 81.7865 54.7344 81.8906L55.4062 82.4688V82.5156C55.4062 82.651 55.3646 82.7604 55.2812 82.8438C55.2083 82.9167 55.1042 82.9531 54.9688 82.9531H52.625C52.3542 82.9531 52.1406 83.0625 51.9844 83.2812L51.875 83.4531L51.5156 83.9219L51.125 84.3594C50.8438 84.6406 50.6979 84.7812 50.6875 84.7812C50.6979 84.7812 50.7031 84.7812 50.7031 84.7812H53.2656L53.375 84.6719C53.5208 84.5573 53.6615 84.5 53.7969 84.5C53.9427 84.5 54.0833 84.5521 54.2188 84.6562L54.4219 84.8281ZM50.0625 90.0938C49.9271 90.0938 49.8281 90.125 49.7656 90.1875C49.7135 90.2396 49.6875 90.3333 49.6875 90.4688V91.6406C49.6875 91.7656 49.7135 91.8594 49.7656 91.9219C49.8281 91.974 49.9271 92 50.0625 92H52.8281C52.9635 92 53.0573 91.974 53.1094 91.9219C53.1719 91.8594 53.2031 91.7604 53.2031 91.625V90.4531C53.2031 90.3281 53.1719 90.2396 53.1094 90.1875C53.0573 90.125 52.9635 90.0938 52.8281 90.0938H50.0625ZM50.0625 87.7344C49.9271 87.7344 49.8281 87.7656 49.7656 87.8281C49.7135 87.8802 49.6875 87.974 49.6875 88.1094V89.1875C49.6875 89.3229 49.7135 89.4219 49.7656 89.4844C49.8281 89.5365 49.9271 89.5625 50.0625 89.5625H52.8281C52.9635 89.5625 53.0573 89.5365 53.1094 89.4844C53.1719 89.4219 53.2031 89.3229 53.2031 89.1875V88.1094C53.2031 87.974 53.1719 87.8802 53.1094 87.8281C53.0573 87.7656 52.9635 87.7344 52.8281 87.7344H50.0625ZM44.7031 82.5156C44.7031 82.6719 44.7969 82.8021 44.9844 82.9062C44.9948 82.9062 45.2292 83.0729 45.6875 83.4062C45.6875 83.4167 45.901 83.6146 46.3281 84C46.3281 84 46.5365 84.2083 46.9531 84.625C46.9635 84.625 47.1719 84.8594 47.5781 85.3281L47.6562 85.7656L47.4219 86.1562L46.9688 86.25L46.5938 86.0469L45.8594 84.9688L45.0938 84C44.7604 83.6042 44.5885 83.401 44.5781 83.3906C44.5156 83.3281 44.4635 83.2969 44.4219 83.2969C44.3906 83.2969 44.3594 83.3125 44.3281 83.3438C44.3073 83.3646 44.2812 83.4115 44.25 83.4844C44.0417 83.9115 43.9375 84.125 43.9375 84.125L43.5781 84.7969L43.1875 85.4219L42.7656 86.0469L42.3281 86.6094L41.8438 87.1562L41.3281 87.6562L41.0781 87.7812C40.9635 87.8438 40.8802 87.875 40.8281 87.875C40.7865 87.875 40.75 87.8646 40.7188 87.8438C40.6979 87.8125 40.6875 87.7865 40.6875 87.7656C40.6875 87.7031 40.7292 87.6146 40.8125 87.5L41.3438 86.75L41.7188 86.1875L42.4062 84.9688L42.7344 84.3281L43.2812 83L43.6562 81.875C43.6979 81.7708 43.75 81.6875 43.8125 81.625C43.8854 81.5521 43.9688 81.5156 44.0625 81.5156C44.1562 81.5156 44.2552 81.5417 44.3594 81.5938L44.8594 81.8281C44.9323 81.9219 44.9688 82 44.9688 82.0625C44.9688 82.1875 44.8906 82.2865 44.7344 82.3594C44.7135 82.4219 44.7031 82.474 44.7031 82.5156ZM46.9375 87.3906C46.9375 87.526 46.901 87.6302 46.8281 87.7031C46.7552 87.776 46.651 87.8125 46.5156 87.8125L42.3438 87.7344C42.2812 87.6927 42.2292 87.651 42.1875 87.6094C42.1458 87.5573 42.125 87.5104 42.125 87.4688C42.125 87.3542 42.2396 87.2969 42.4688 87.2969H44.9688L45.4531 86.8125C45.5885 86.6771 45.724 86.6094 45.8594 86.6094C45.9948 86.6094 46.1302 86.6615 46.2656 86.7656L46.9375 87.3438V87.3906ZM50.0625 85.2969C49.9271 85.2969 49.8281 85.3281 49.7656 85.3906C49.7135 85.4427 49.6875 85.5365 49.6875 85.6719V86.8438C49.6875 86.9792 49.7135 87.0781 49.7656 87.1406C49.8281 87.1927 49.9271 87.2188 50.0625 87.2188H52.8281C52.9635 87.2188 53.0573 87.1927 53.1094 87.1406C53.1719 87.0781 53.2031 86.9792 53.2031 86.8438V85.6719C53.2031 85.5365 53.1719 85.4427 53.1094 85.3906C53.0573 85.3281 52.9635 85.2969 52.8281 85.2969H50.0625ZM61.9531 91.1719C61.849 91.1719 61.7656 91.2031 61.7031 91.2656C61.6198 91.349 61.5781 91.4948 61.5781 91.7031C61.5781 91.8385 61.6042 91.9375 61.6562 92C61.7188 92.0521 61.8177 92.0781 61.9531 92.0781H66.0469C66.151 92.0781 66.2344 92.0469 66.2969 91.9844C66.3802 91.901 66.4219 91.7552 66.4219 91.5469C66.4219 91.4115 66.3906 91.3177 66.3281 91.2656C66.276 91.2031 66.1823 91.1719 66.0469 91.1719H61.9531ZM60.375 89.5781C60.375 89.4427 60.3542 89.375 60.3125 89.375C60.2812 89.375 60.2292 89.401 60.1562 89.4531L59.8438 89.6719L59.2656 90.0156L58.6719 90.3438L58.0312 90.6562L57.3438 90.9062C57.125 90.9271 56.9948 90.9375 56.9531 90.9375C56.9115 90.9375 56.8698 90.9375 56.8281 90.9375C56.7865 90.9271 56.75 90.9115 56.7188 90.8906C56.6979 90.8594 56.6875 90.8281 56.6875 90.7969C56.6875 90.7344 56.7656 90.6562 56.9219 90.5625L57.7344 90.0781L58.2969 89.7188L58.8125 89.3281L59.7812 88.5312L60.2188 88.1406L60.6875 87.6094C60.7604 87.5365 60.7969 87.4844 60.7969 87.4531C60.7969 87.4219 60.7292 87.4062 60.5938 87.4062H57.0625C56.9375 87.2708 56.875 87.1615 56.875 87.0781C56.875 87.0365 56.8958 86.9948 56.9375 86.9531C56.9896 86.901 57.0938 86.875 57.25 86.875H63.0312C63.1667 86.875 63.2604 86.849 63.3125 86.7969C63.375 86.7344 63.4062 86.6406 63.4062 86.5156V86.0625C63.4062 85.9271 63.375 85.8333 63.3125 85.7812C63.2604 85.7188 63.1667 85.6875 63.0312 85.6875L58.9531 85.6094C58.8906 85.5677 58.8385 85.526 58.7969 85.4844C58.7552 85.4323 58.7344 85.3854 58.7344 85.3438C58.7344 85.2292 58.849 85.1719 59.0781 85.1719H63.0312C63.1667 85.1719 63.2604 85.1458 63.3125 85.0938C63.375 85.0312 63.4062 84.9323 63.4062 84.7969V84.375C63.4062 84.2396 63.375 84.1458 63.3125 84.0938C63.2604 84.0312 63.1719 84 63.0469 84H58.0625C57.9375 83.8646 57.875 83.7552 57.875 83.6719C57.875 83.6302 57.8958 83.5885 57.9375 83.5469C57.9896 83.4948 58.0938 83.4688 58.25 83.4688H61.6875C61.7083 83.4688 61.7292 83.4688 61.75 83.4688C61.7292 83.4479 61.7031 83.4271 61.6719 83.4062L61.5938 83.2031L61.4219 82.8438L61.3125 82.6719L61.1719 82.5L61.0469 82.3281L60.4688 81.7188C60.4271 81.6562 60.4062 81.6042 60.4062 81.5625C60.4062 81.5104 60.4167 81.474 60.4375 81.4531C60.4688 81.4219 60.5052 81.4062 60.5469 81.4062C60.5885 81.4062 60.6406 81.4167 60.7031 81.4375L60.9688 81.5156L61.25 81.6406L61.5 81.7656L61.7188 81.8906L62.1719 82.2188L62.375 82.4062L62.7344 82.8281L62.7656 83.2812L62.625 83.4688H65.0781L65.1875 83.3281L66.5 81.5C66.5938 81.3542 66.7031 81.2812 66.8281 81.2812C66.9115 81.2812 67.0052 81.3281 67.1094 81.4219L67.5938 81.8906C67.6146 81.9531 67.625 82.0104 67.625 82.0625C67.625 82.1146 67.6042 82.1615 67.5625 82.2031C67.5208 82.2448 67.4479 82.2656 67.3438 82.2656C67.3229 82.2656 67.3021 82.2656 67.2812 82.2656L66.7969 82.6875L65.75 83.4688C65.7604 83.4688 65.776 83.4688 65.7969 83.4688H68.3438L68.8125 83C68.9479 82.8646 69.0833 82.7969 69.2188 82.7969C69.3646 82.7969 69.5 82.8542 69.625 82.9688L70.1094 83.4062C70.1615 83.5208 70.1875 83.6198 70.1875 83.7031C70.1875 83.776 70.1562 83.8438 70.0938 83.9062C70.0312 83.9688 69.9219 84 69.7656 84H64.9688C64.8333 84 64.7344 84.0312 64.6719 84.0938C64.6198 84.1458 64.5938 84.2396 64.5938 84.375V84.7969C64.5938 84.9323 64.6198 85.0312 64.6719 85.0938C64.7344 85.1458 64.8281 85.1719 64.9531 85.1719H67.7969C68.0469 84.9115 68.1771 84.776 68.1875 84.7656C68.3021 84.6406 68.4219 84.5781 68.5469 84.5781C68.6719 84.5781 68.8021 84.6354 68.9375 84.75L69.4688 85.2188V85.2656C69.4688 85.401 69.4323 85.5052 69.3594 85.5781C69.2865 85.651 69.1823 85.6875 69.0469 85.6875H64.9688C64.8333 85.6875 64.7344 85.7188 64.6719 85.7812C64.6198 85.8333 64.5938 85.9219 64.5938 86.0469V86.5C64.5938 86.6354 64.6198 86.7344 64.6719 86.7969C64.7344 86.849 64.8333 86.875 64.9688 86.875H69.6562C69.9062 86.6146 70.0365 86.4792 70.0469 86.4688C70.1615 86.3438 70.2812 86.2812 70.4062 86.2812C70.5312 86.2812 70.6615 86.3438 70.7969 86.4688L71.3125 86.9219V86.9688C71.3125 87.1042 71.2708 87.2135 71.1875 87.2969C71.1146 87.3698 71.0104 87.4062 70.875 87.4062H66.7969C66.7344 87.4062 66.6875 87.4115 66.6562 87.4219C66.6771 87.4427 66.7135 87.4688 66.7656 87.5L67.9219 88.3438L68.875 88.875L69.375 89.1406L69.875 89.3594L71.0625 89.8438C71.2708 89.9167 71.375 90.0208 71.375 90.1562C71.375 90.25 71.3073 90.3542 71.1719 90.4688L70.9375 90.6719C70.7708 90.8073 70.5938 90.875 70.4062 90.875C70.2917 90.875 70.1719 90.8438 70.0469 90.7812C69.6719 90.5938 69.4375 90.474 69.3438 90.4219L68.8281 90.1094L68.3125 89.7656L67.8438 89.4219L67.3906 89.0312L66.9844 88.6406L66.5781 88.2188L66.2188 87.75C66.0729 87.5208 65.8594 87.4062 65.5781 87.4062H62.375L61.8594 87.9844L61.4062 88.4531C61.0625 88.7552 60.8854 88.9062 60.875 88.9062L60.8438 88.9531C60.8438 88.974 60.8698 88.9948 60.9219 89.0156L61.5 89.3125H63.0312C63.1667 89.3125 63.2604 89.2865 63.3125 89.2344C63.375 89.1719 63.4062 89.0729 63.4062 88.9375V88.2812C63.4062 88.1146 63.4427 87.9896 63.5156 87.9062C63.599 87.8229 63.7083 87.7812 63.8438 87.7812C63.8854 87.7812 63.9323 87.7865 63.9844 87.7969L64.5312 87.8906C64.5833 87.9219 64.625 87.9531 64.6562 87.9844C64.6979 88.026 64.7188 88.0833 64.7188 88.1562C64.7188 88.2188 64.6771 88.2812 64.5938 88.3438V88.9375C64.5938 89.0729 64.6198 89.1719 64.6719 89.2344C64.7344 89.2865 64.8333 89.3125 64.9688 89.3125H66.4844L66.6094 89.2031C66.7552 89.0885 66.8958 89.0312 67.0312 89.0312C67.1771 89.0312 67.3177 89.0833 67.4531 89.1875C67.6094 89.3229 67.6927 89.401 67.7031 89.4219C67.8073 89.5156 67.8594 89.625 67.8594 89.75C67.8594 89.8646 67.7812 89.9896 67.625 90.125V92.2188C67.625 92.5729 67.4688 92.8229 67.1562 92.9688L66.9844 93.0625C66.8802 93.1146 66.7917 93.1406 66.7188 93.1406C66.6458 93.1406 66.5781 93.1094 66.5156 93.0469C66.4531 92.9844 66.4219 92.875 66.4219 92.7188C66.4219 92.6771 66.4115 92.651 66.3906 92.6406C66.3802 92.6198 66.3542 92.6094 66.3125 92.6094H64.8281C64.7552 92.6094 64.6979 92.6146 64.6562 92.625C64.6771 92.6667 64.7188 92.7083 64.7812 92.75L65.2969 93.1719L65.8125 93.5469L66.3438 93.8906L66.5781 94.0156C66.6823 94.0677 66.7917 94.0938 66.9062 94.0938C67.0208 94.0938 67.1354 94.0469 67.25 93.9531L68.1562 93.2969L68.9375 92.6562L69.0938 92.5C69.2188 92.375 69.3385 92.3125 69.4531 92.3125C69.599 92.3125 69.7344 92.3906 69.8594 92.5469L70.2188 92.9844C70.2188 93.0365 70.2188 93.0781 70.2188 93.1094C70.2188 93.1927 70.1979 93.2552 70.1562 93.2969C70.1146 93.3385 70.0677 93.3594 70.0156 93.3594C69.9635 93.3594 69.9167 93.3542 69.875 93.3438L69.25 93.7031L68.5938 94.0469L68.2812 94.1719L67.8594 94.3906C67.7969 94.4219 67.7552 94.4531 67.7344 94.4844C67.7656 94.526 67.8646 94.5729 68.0312 94.625L68.6094 94.7812L69.2344 94.8906L70.2656 95.0312C70.401 95.0417 70.4948 95.0729 70.5469 95.125C70.599 95.1771 70.625 95.2292 70.625 95.2812C70.625 95.3646 70.5677 95.4583 70.4531 95.5625L70.125 95.9062C69.9375 96.1042 69.7083 96.2031 69.4375 96.2031C69.3646 96.2031 69.3021 96.1979 69.25 96.1875L68.9844 96.125L68.2969 95.9219L67.625 95.6719L67 95.375L66.4062 95.0312L65.8438 94.625L65.3125 94.1562L64.8281 93.6719L64.3906 93.1094L64.2812 92.9531C64.1354 92.724 63.9219 92.6094 63.6406 92.6094H61.9531C61.8177 92.6094 61.7188 92.6406 61.6562 92.7031C61.6042 92.7552 61.5781 92.849 61.5781 92.9844V93.9375C61.5781 94.0625 61.599 94.151 61.6406 94.2031C61.6927 94.2448 61.7708 94.2656 61.875 94.2656C61.875 94.2656 62.0052 94.25 62.2656 94.2188L62.9688 94.1406L63.7188 94.0781C64.0521 94.1198 64.2344 94.1458 64.2656 94.1562C64.2969 94.1667 64.3229 94.1875 64.3438 94.2188C64.375 94.2396 64.3906 94.2656 64.3906 94.2969C64.3906 94.3177 64.3698 94.3438 64.3281 94.375C64.2969 94.4062 64.2188 94.4427 64.0938 94.4844L63.0938 94.7656L58.8125 95.8438L58.5625 95.9688C58.5 96.0729 58.4219 96.125 58.3281 96.125C58.2448 96.125 58.1562 96.0729 58.0625 95.9688L57.8438 95.4375C57.8125 95.3542 57.7969 95.2656 57.7969 95.1719C57.7969 95.0885 57.8281 95.0104 57.8906 94.9375C57.9635 94.8646 58.0729 94.8177 58.2188 94.7969L58.4688 94.75L59.6406 94.5625L60 94.5156C60.1146 94.5052 60.2031 94.4688 60.2656 94.4062C60.3385 94.3333 60.375 94.224 60.375 94.0781V89.5781ZM61.9531 89.8281C61.7031 89.8281 61.5781 89.9688 61.5781 90.25C61.5781 90.4062 61.6042 90.5156 61.6562 90.5781C61.7188 90.6302 61.8177 90.6562 61.9531 90.6562H66.0469C66.1615 90.6562 66.25 90.625 66.3125 90.5625C66.3854 90.4896 66.4219 90.3802 66.4219 90.2344C66.4219 90.0781 66.3906 89.974 66.3281 89.9219C66.276 89.8594 66.1823 89.8281 66.0469 89.8281H61.9531ZM86.0938 84.1562C86.2292 84.2708 86.2969 84.3958 86.2969 84.5312C86.2969 84.6562 86.2188 84.7865 86.0625 84.9219V91.5625C86.0625 91.9062 85.9062 92.151 85.5938 92.2969L85.4219 92.3906C85.3281 92.4427 85.2448 92.4688 85.1719 92.4688C85.099 92.4688 85.0365 92.4375 84.9844 92.375C84.901 92.3021 84.8594 92.1667 84.8594 91.9688C84.8594 91.8333 84.8281 91.7396 84.7656 91.6875C84.7135 91.625 84.6198 91.5938 84.4844 91.5938H80.9688C80.8333 91.5938 80.7344 91.625 80.6719 91.6875C80.6198 91.7396 80.5938 91.8333 80.5938 91.9688V95.2344C80.5938 95.5885 80.4375 95.8385 80.125 95.9844L79.9688 96.0781C79.8646 96.1302 79.776 96.1562 79.7031 96.1562C79.6302 96.1562 79.5625 96.125 79.5 96.0625C79.4375 96 79.4062 95.8906 79.4062 95.7344V91.9688C79.4062 91.8333 79.375 91.7396 79.3125 91.6875C79.2604 91.625 79.1667 91.5938 79.0312 91.5938H75.5156C75.401 91.5938 75.3073 91.6302 75.2344 91.7031C75.1719 91.7656 75.1406 91.8802 75.1406 92.0469C75.1406 92.401 74.9844 92.651 74.6719 92.7969L74.5 92.8906C74.3958 92.9427 74.3073 92.9688 74.2344 92.9688C74.1615 92.9688 74.0938 92.9375 74.0312 92.875C73.9688 92.8125 73.9375 92.7031 73.9375 92.5469V84.1562C73.9375 84 73.9688 83.8906 74.0312 83.8281C74.0938 83.7656 74.1615 83.7344 74.2344 83.7344C74.3177 83.7344 74.4062 83.7604 74.5 83.8125L75.0625 84.1094H79.0312C79.1667 84.1094 79.2604 84.0833 79.3125 84.0312C79.375 83.9688 79.4062 83.875 79.4062 83.75V81.8125C79.4062 81.6458 79.4427 81.5208 79.5156 81.4375C79.599 81.3542 79.7083 81.3125 79.8438 81.3125C79.8854 81.3125 79.9323 81.3177 79.9844 81.3281L80.5312 81.4219C80.6667 81.5156 80.7344 81.6094 80.7344 81.7031C80.7344 81.776 80.7031 81.849 80.6406 81.9219L80.5938 82.125V83.7344C80.5938 83.8698 80.6198 83.9688 80.6719 84.0312C80.7344 84.0833 80.8333 84.1094 80.9688 84.1094H84.9219L85.0312 84C85.1771 83.8854 85.3177 83.8281 85.4531 83.8281C85.599 83.8281 85.7396 83.8802 85.875 83.9844L86.0938 84.1562ZM75.5156 88.0781C75.3802 88.0781 75.2812 88.1094 75.2188 88.1719C75.1667 88.224 75.1406 88.3177 75.1406 88.4531V90.7031C75.1406 90.8385 75.1667 90.9375 75.2188 91C75.2812 91.0521 75.3802 91.0781 75.5156 91.0781H79.0312C79.1667 91.0781 79.2604 91.0521 79.3125 91C79.375 90.9375 79.4062 90.8385 79.4062 90.7031V88.4531C79.4062 88.3177 79.375 88.224 79.3125 88.1719C79.2604 88.1094 79.1667 88.0781 79.0312 88.0781H75.5156ZM80.9688 88.0781C80.8333 88.0781 80.7344 88.1094 80.6719 88.1719C80.6198 88.224 80.5938 88.3177 80.5938 88.4531V90.7031C80.5938 90.8385 80.6198 90.9375 80.6719 91C80.7344 91.0521 80.8333 91.0781 80.9688 91.0781H84.4844C84.6198 91.0781 84.7135 91.0521 84.7656 91C84.8281 90.9375 84.8594 90.8385 84.8594 90.7031V88.4531C84.8594 88.3177 84.8281 88.224 84.7656 88.1719C84.7135 88.1094 84.6198 88.0781 84.4844 88.0781H80.9688ZM75.5156 84.625C75.3802 84.625 75.2812 84.6562 75.2188 84.7188C75.1667 84.7708 75.1406 84.8594 75.1406 84.9844V87.1719C75.1406 87.3073 75.1667 87.4062 75.2188 87.4688C75.2812 87.5208 75.3802 87.5469 75.5156 87.5469H79.0312C79.1667 87.5469 79.2604 87.5208 79.3125 87.4688C79.375 87.4062 79.4062 87.3125 79.4062 87.1875V85C79.4062 84.8646 79.375 84.7708 79.3125 84.7188C79.2604 84.6562 79.1667 84.625 79.0312 84.625H75.5156ZM80.9688 84.625C80.8333 84.625 80.7344 84.6562 80.6719 84.7188C80.6198 84.7708 80.5938 84.8594 80.5938 84.9844V87.1719C80.5938 87.3073 80.6198 87.4062 80.6719 87.4688C80.7344 87.5208 80.8333 87.5469 80.9688 87.5469H84.4844C84.6198 87.5469 84.7135 87.5208 84.7656 87.4688C84.8281 87.4062 84.8594 87.3125 84.8594 87.1875V85C84.8594 84.8646 84.8281 84.7708 84.7656 84.7188C84.7135 84.6562 84.6198 84.625 84.4844 84.625H80.9688ZM102.094 88.6875C102.229 88.8021 102.297 88.9271 102.297 89.0625C102.297 89.1875 102.219 89.3177 102.062 89.4531V94.8594L102.047 95.0938L102 95.3125L101.922 95.5312L101.812 95.75L101.672 95.9219L101.484 96.0625L101.266 96.1875L101.062 96.25C100.906 96.2708 100.818 96.2812 100.797 96.2812C100.714 96.2812 100.646 96.2552 100.594 96.2031C100.552 96.1615 100.531 96.0938 100.531 96C100.531 95.9167 100.516 95.8542 100.484 95.8125C100.453 95.7917 100.396 95.7708 100.312 95.75L99.6562 95.5312C99.5521 95.4375 99.5 95.349 99.5 95.2656C99.5 95.224 99.5208 95.1771 99.5625 95.125C99.6042 95.0833 99.6771 95.0521 99.7812 95.0312L100.484 94.8594C100.599 94.8385 100.688 94.7917 100.75 94.7188C100.823 94.6458 100.859 94.5365 100.859 94.3906V93.4062C100.859 93.2708 100.828 93.1771 100.766 93.125C100.714 93.0625 100.62 93.0312 100.484 93.0312H96.9688C96.8333 93.0312 96.7344 93.0625 96.6719 93.125C96.6198 93.1771 96.5938 93.2708 96.5938 93.4062V95.2344C96.5938 95.5885 96.4375 95.8385 96.125 95.9844L95.9688 96.0781C95.8646 96.1302 95.776 96.1562 95.7031 96.1562C95.6302 96.1562 95.5625 96.125 95.5 96.0625C95.4375 96 95.4062 95.8906 95.4062 95.7344V88.7031C95.4062 88.5469 95.4375 88.4375 95.5 88.375C95.5625 88.3125 95.6302 88.2812 95.7031 88.2812C95.776 88.2812 95.8646 88.3073 95.9688 88.3594L96.5156 88.6406H100.922L101.031 88.5312C101.177 88.4167 101.318 88.3594 101.453 88.3594C101.599 88.3594 101.74 88.4115 101.875 88.5156L102.094 88.6875ZM89.5312 96C89.4375 96.0521 89.349 96.0781 89.2656 96.0781C89.1927 96.0781 89.125 96.0469 89.0625 95.9844C89 95.9219 88.9688 95.8125 88.9688 95.6562V91.4531C88.9688 91.2969 88.9948 91.1927 89.0469 91.1406C89.1094 91.0781 89.1771 91.0469 89.25 91.0469C89.3333 91.0469 89.4271 91.0729 89.5312 91.125L90.0781 91.4062H92.4375L92.5469 91.2969C92.6927 91.1823 92.8333 91.125 92.9688 91.125C93.1042 91.125 93.2448 91.1823 93.3906 91.2969L93.6094 91.5L93.6719 91.7188C93.599 92.0312 93.5625 92.3333 93.5625 92.625V94.9219C93.5625 95.2656 93.4062 95.5104 93.0938 95.6562L92.9375 95.75C92.8333 95.8021 92.7448 95.8281 92.6719 95.8281C92.599 95.8281 92.5312 95.7969 92.4688 95.7344C92.4062 95.6719 92.375 95.5729 92.375 95.4375C92.375 95.3125 92.3542 95.2292 92.3125 95.1875C92.2708 95.1458 92.1979 95.125 92.0938 95.125H90.5469L90.3125 95.25C90.1875 95.5521 89.9792 95.7708 89.6875 95.9062L89.5312 96ZM90.5312 91.9375C90.3958 91.9375 90.2969 91.9688 90.2344 92.0312C90.1823 92.0833 90.1562 92.1719 90.1562 92.2969V94.2344C90.1562 94.3698 90.1823 94.4688 90.2344 94.5312C90.2969 94.5833 90.3958 94.6094 90.5312 94.6094H92C92.1354 94.6094 92.2292 94.5833 92.2812 94.5312C92.3438 94.4688 92.375 94.375 92.375 94.25V92.3125C92.375 92.1771 92.3438 92.0833 92.2812 92.0312C92.2292 91.9688 92.1354 91.9375 92 91.9375H90.5312ZM96.9688 91.0156C96.8333 91.0156 96.7344 91.0469 96.6719 91.1094C96.6198 91.1615 96.5938 91.25 96.5938 91.375V92.125C96.5938 92.2604 96.6198 92.3594 96.6719 92.4219C96.7344 92.474 96.8333 92.5 96.9688 92.5H100.484C100.62 92.5 100.714 92.474 100.766 92.4219C100.828 92.3594 100.859 92.2656 100.859 92.1406V91.3906C100.859 91.2552 100.828 91.1615 100.766 91.1094C100.714 91.0469 100.62 91.0156 100.484 91.0156H96.9688ZM96.9688 89.1562C96.8333 89.1562 96.7344 89.1875 96.6719 89.25C96.6198 89.3021 96.5938 89.3958 96.5938 89.5312V90.1094C96.5938 90.2448 96.6198 90.3438 96.6719 90.4062C96.7344 90.4583 96.8333 90.4844 96.9688 90.4844H100.484C100.62 90.4844 100.714 90.4583 100.766 90.4062C100.828 90.3438 100.859 90.2448 100.859 90.1094V89.5312C100.859 89.3958 100.828 89.3021 100.766 89.25C100.714 89.1875 100.62 89.1562 100.484 89.1562H96.9688ZM93.5156 89.4062C93.5156 89.5417 93.4792 89.6458 93.4062 89.7188C93.3333 89.7917 93.2292 89.8281 93.0938 89.8281L89.4375 89.75C89.375 89.7083 89.3229 89.6667 89.2812 89.625C89.2396 89.5729 89.2188 89.526 89.2188 89.4844C89.2188 89.3698 89.3333 89.3125 89.5625 89.3125H91.5312L92.0156 88.8281C92.151 88.6927 92.2865 88.625 92.4219 88.625C92.5573 88.625 92.6927 88.6771 92.8281 88.7812L93.5156 89.3594V89.4062ZM93.5156 87.2188C93.5156 87.3542 93.474 87.4635 93.3906 87.5469C93.3177 87.6198 93.2135 87.6562 93.0781 87.6562L89.4531 87.5938C89.3906 87.5521 89.3333 87.5104 89.2812 87.4688C89.2396 87.4167 89.2188 87.3646 89.2188 87.3125C89.2188 87.1875 89.3385 87.125 89.5781 87.125H91.5312L92.0156 86.6406C92.151 86.5052 92.2865 86.4375 92.4219 86.4375C92.5573 86.4375 92.6927 86.4896 92.8281 86.5938L93.5156 87.1719V87.2188ZM94.3906 87.4844C94.2448 87.3802 94.1719 87.2917 94.1719 87.2188C94.1719 87.1042 94.2865 87.0469 94.5156 87.0469H97.7344C97.8594 87.0469 97.9479 87.0208 98 86.9688C98.0625 86.9062 98.0938 86.8073 98.0938 86.6719V86.0156C98.0938 85.8802 98.0625 85.7865 98 85.7344C97.9479 85.6719 97.8594 85.6406 97.7344 85.6406H95.3594C95.2344 85.5052 95.1719 85.3958 95.1719 85.3125C95.1719 85.2708 95.1927 85.2292 95.2344 85.1875C95.2865 85.1354 95.3854 85.1094 95.5312 85.1094H97.7188C97.8542 85.1094 97.9479 85.0833 98 85.0312C98.0625 84.9688 98.0938 84.8698 98.0938 84.7344V84.0781C98.0938 83.9427 98.0625 83.849 98 83.7969C97.9479 83.7344 97.8542 83.7031 97.7188 83.7031L94.9844 83.625C94.9219 83.5833 94.8698 83.5417 94.8281 83.5C94.7865 83.4479 94.7656 83.401 94.7656 83.3594C94.7656 83.2448 94.8802 83.1875 95.1094 83.1875H97.7188C97.8542 83.1875 97.9479 83.1615 98 83.1094C98.0625 83.0469 98.0938 82.9479 98.0938 82.8125V81.9844C98.0938 81.8073 98.1354 81.6823 98.2188 81.6094C98.3021 81.526 98.4115 81.4844 98.5469 81.4844C98.7344 81.4844 98.8958 81.5521 99.0312 81.6875C99.1667 81.8229 99.25 82.0312 99.2812 82.3125V82.8125C99.2812 82.9479 99.3073 83.0469 99.3594 83.1094C99.4219 83.1615 99.5208 83.1875 99.6562 83.1875H101L101.484 82.7031C101.62 82.5677 101.755 82.5 101.891 82.5C102.026 82.5 102.161 82.5521 102.297 82.6562L102.984 83.2344V83.2812C102.984 83.4167 102.948 83.5208 102.875 83.5938C102.802 83.6667 102.698 83.7031 102.562 83.7031H99.6562C99.5208 83.7031 99.4219 83.7344 99.3594 83.7969C99.3073 83.849 99.2812 83.9427 99.2812 84.0781V84.7344C99.2812 84.8698 99.3073 84.9688 99.3594 85.0312C99.4219 85.0833 99.5156 85.1094 99.6406 85.1094H100.812C101.062 84.849 101.193 84.7135 101.203 84.7031C101.318 84.5781 101.438 84.5156 101.562 84.5156C101.688 84.5156 101.818 84.5729 101.953 84.6875L102.484 85.1562V85.2031C102.484 85.3385 102.443 85.4479 102.359 85.5312C102.286 85.6042 102.182 85.6406 102.047 85.6406H99.6406C99.5156 85.6406 99.4219 85.6719 99.3594 85.7344C99.3073 85.7865 99.2812 85.8802 99.2812 86.0156V86.6719C99.2812 86.8073 99.3073 86.9062 99.3594 86.9688C99.4219 87.0208 99.5208 87.0469 99.6562 87.0469H101.906C102.146 86.776 102.276 86.6354 102.297 86.625C102.411 86.5 102.531 86.4375 102.656 86.4375C102.792 86.4375 102.922 86.5 103.047 86.625L103.562 87.0938V87.1406C103.562 87.276 103.526 87.3802 103.453 87.4531C103.38 87.526 103.276 87.5625 103.141 87.5625L94.3906 87.4844ZM94.2031 84.875C94.2031 85.0104 94.1667 85.1146 94.0938 85.1875C94.0208 85.2604 93.9219 85.2969 93.7969 85.2969L89.1406 85.2188C89.0781 85.1667 89.0208 85.1198 88.9688 85.0781C88.9271 85.0365 88.9062 84.9948 88.9062 84.9531C88.9062 84.9115 88.9271 84.875 88.9688 84.8438C89.0104 84.8021 89.1042 84.7812 89.25 84.7812H92.2188L92.7031 84.2969C92.8385 84.1615 92.974 84.0938 93.1094 84.0938C93.2448 84.0938 93.3802 84.1458 93.5156 84.25L94.2031 84.8281V84.875ZM93.5156 82.6875C93.5156 82.8229 93.4792 82.9271 93.4062 83C93.3333 83.0729 93.2292 83.1094 93.0938 83.1094L89.4375 83.0312C89.375 82.9896 89.3229 82.9479 89.2812 82.9062C89.2396 82.8542 89.2188 82.8073 89.2188 82.7656C89.2188 82.651 89.3333 82.5938 89.5625 82.5938H91.5312L92.0156 82.1094C92.151 81.974 92.2865 81.9062 92.4219 81.9062C92.5573 81.9062 92.6927 81.9583 92.8281 82.0625L93.5156 82.6406V82.6875Z" fill="white"/>
<path d="M64.835 16V48.6837H88.7038L64.835 16Z" stroke="white" stroke-width="1.5" stroke-miterlimit="10" stroke-linecap="round" stroke-linejoin="round"/>
<path d="M84.1473 62.0865C87.9793 58.9476 90.3824 53.915 90.3824 53.915H35.4572C35.4572 53.915 33.9139 58.9764 39.0232 62.1153" stroke="white" stroke-width="1.5" stroke-miterlimit="10" stroke-linecap="round" stroke-linejoin="round"/>
<path d="M60.0613 23.5725V48.6832H45.3408L60.0613 23.5725Z" stroke="white" stroke-width="1.5" stroke-miterlimit="10" stroke-linecap="round" stroke-linejoin="round"/>
<path d="M64.835 16.2488V53.9148" stroke="white" stroke-width="1.5" stroke-miterlimit="10" stroke-linecap="round" stroke-linejoin="round"/>
<path d="M22 61.0933C24.2599 61.0933 28.7797 63.8008 33.2995 63.8008C37.8193 63.8008 40.8324 61.0933 45.3522 61.0933C49.872 61.0933 53.6385 63.8008 57.405 63.8008C61.1715 63.8008 62.6781 61.0933 68.7045 61.0933" stroke="white" stroke-width="1.5" stroke-miterlimit="10" stroke-linecap="round" stroke-linejoin="round"/>
<path d="M57.9922 67.8474C60.3495 67.7833 64.9904 64.9485 69.7049 64.8202C74.4195 64.6919 77.6362 67.3129 82.3507 67.1846C87.0653 67.0563 90.9204 64.2429 94.8492 64.136C98.778 64.029 100.423 66.6928 106.709 66.5217" stroke="white" stroke-width="1.5" stroke-miterlimit="10" stroke-linecap="round" stroke-linejoin="round"/>
</svg>
