<svg width="130" height="130" viewBox="0 0 130 130" fill="none" xmlns="http://www.w3.org/2000/svg">
<path d="M26.8125 85.7969H25.1094C25.026 85.7969 24.9583 85.776 24.9062 85.7344C24.8646 85.6823 24.8438 85.6146 24.8438 85.5312C24.8438 85.4479 24.8646 85.3854 24.9062 85.3438C24.9583 85.2917 25.026 85.2656 25.1094 85.2656L25.4062 85.2188L25.9688 85.0625L26.2031 85L26.9844 84.75L27.2344 84.6719L27.7969 84.2812C27.8698 84.2708 27.9271 84.2656 27.9688 84.2656C28.0938 84.2656 28.1927 84.3073 28.2656 84.3906C28.349 84.4635 28.3906 84.5781 28.3906 84.7344V94.8125C28.3906 94.9479 28.4167 95.0469 28.4688 95.1094C28.5312 95.1615 28.625 95.1875 28.75 95.1875L30.3281 95.25C30.3906 95.2917 30.4427 95.3385 30.4844 95.3906C30.526 95.4323 30.5469 95.474 30.5469 95.5156C30.5469 95.6406 30.4323 95.7031 30.2031 95.7031L25.2656 95.625C25.2031 95.5833 25.151 95.5417 25.1094 95.5C25.0677 95.4479 25.0469 95.401 25.0469 95.3594C25.0469 95.2448 25.1615 95.1875 25.3906 95.1875H26.8281C26.9635 95.1875 27.0573 95.1615 27.1094 95.1094C27.1719 95.0469 27.2031 94.9479 27.2031 94.8125L27.1719 86.1719C27.1719 86.0365 27.1406 85.9427 27.0781 85.8906C27.026 85.8281 26.9375 85.7969 26.8125 85.7969ZM51.0625 94.8906C51.0729 94.9427 51.0781 95 51.0781 95.0625C51.0781 95.1146 51.0521 95.1615 51 95.2031C50.9583 95.2448 50.901 95.2656 50.8281 95.2656C50.7969 95.2656 50.7604 95.2604 50.7188 95.25L50.3438 95.5469L49.9688 95.7969L49.125 96.2812L48.6562 96.5L47.6719 96.9375L46.9531 97.1406H46.9375C46.7812 97.1406 46.6771 97.1146 46.625 97.0625C46.5938 97.0417 46.5781 97.0104 46.5781 96.9688C46.5781 96.8958 46.6562 96.8125 46.8125 96.7188L48.2656 95.7969L49.0156 95.2344L49.3594 94.9688L49.6719 94.7031C49.8177 94.5365 49.8958 94.4531 49.9062 94.4531C50.0208 94.3281 50.1458 94.2656 50.2812 94.2656C50.4167 94.2656 50.5417 94.3333 50.6562 94.4688L51.0625 94.8906ZM52.0938 94.5938C52.0104 94.5 51.9688 94.4115 51.9688 94.3281C51.9688 94.3073 51.9844 94.2865 52.0156 94.2656C52.0469 94.2344 52.0885 94.2188 52.1406 94.2188C52.1927 94.2188 52.25 94.224 52.3125 94.2344L52.6875 94.3438L53.0469 94.4844L53.375 94.6406L53.7031 94.8281L54.0312 95.0156L54.3125 95.2188L54.5938 95.4531L54.8438 95.7031L55.1094 95.9844L55.2188 96.4219L55 96.8125L54.5469 96.9219L54.1719 96.7188L53.8125 96.2031L53.4219 95.7188L53.1875 95.5L52.6875 95.0781L52.0938 94.5938ZM45.2812 94.7812C45.1875 94.6771 45.1406 94.5938 45.1406 94.5312C45.1406 94.3958 45.2344 94.3021 45.4219 94.25L45.7969 94.1406C46.0469 94.0677 46.1719 93.901 46.1719 93.6406V91.2969C46.1719 91.1615 46.1406 91.0677 46.0781 91.0156C46.026 90.9531 45.9323 90.9219 45.7969 90.9219H44.7812C44.6458 90.9219 44.5469 90.9531 44.4844 91.0156C44.4323 91.0677 44.4062 91.1562 44.4062 91.2812V96.1562C44.4062 96.5104 44.25 96.7604 43.9375 96.9062L43.7656 97C43.6615 97.0521 43.5677 97.0781 43.4844 97.0781C43.4115 97.0781 43.3438 97.0469 43.2812 96.9844C43.2292 96.9323 43.2031 96.8281 43.2031 96.6719V91.2969C43.2031 91.1615 43.1719 91.0677 43.1094 91.0156C43.0573 90.9531 42.9635 90.9219 42.8281 90.9219H41.4062C41.2812 90.7865 41.2188 90.6771 41.2188 90.5938C41.2188 90.5521 41.2396 90.5104 41.2812 90.4688C41.3333 90.4167 41.4375 90.3906 41.5938 90.3906H46.2344L46.3438 90.2812C46.4896 90.1667 46.6302 90.1094 46.7656 90.1094C46.901 90.1094 47.0417 90.1667 47.1875 90.2812L47.4062 90.4844L47.4688 90.7031C47.3958 91.0156 47.3594 91.3229 47.3594 91.625V94.1094L47.3438 94.3281L47.3125 94.5469L47.2344 94.7656L47.1094 94.9844L46.9688 95.1562L46.7812 95.2969L46.5781 95.4219L46.3594 95.4844C46.2031 95.5052 46.1146 95.5156 46.0938 95.5156C46.0104 95.5156 45.9427 95.4948 45.8906 95.4531C45.849 95.401 45.8281 95.3281 45.8281 95.2344C45.8281 95.1406 45.8073 95.0729 45.7656 95.0312C45.724 94.9896 45.6719 94.9635 45.6094 94.9531C45.599 94.9427 45.4896 94.8854 45.2812 94.7812ZM54.4219 85.8281C54.5573 85.9427 54.625 86.0677 54.625 86.2031C54.625 86.3281 54.5469 86.4583 54.3906 86.5938V92.9688C54.3906 93.3125 54.2396 93.5573 53.9375 93.7031C53.9271 93.7135 53.8333 93.7552 53.6562 93.8281L53.6094 93.7969C53.3802 93.6094 53.1198 93.5156 52.8281 93.5156L49.9219 93.5625C49.724 93.7083 49.5208 93.8281 49.3125 93.9219L49.0312 94.0625C48.9271 94.1146 48.8385 94.1406 48.7656 94.1406C48.6927 94.1406 48.625 94.1146 48.5625 94.0625C48.5104 94 48.4844 93.8854 48.4844 93.7188V85.8281C48.4844 85.6719 48.5156 85.5625 48.5781 85.5C48.6406 85.4375 48.7083 85.4062 48.7812 85.4062C48.8646 85.4062 48.9531 85.4323 49.0469 85.4844L49.6094 85.7812L49.75 85.7344C50.0312 85.6927 50.2292 85.5417 50.3438 85.2812L50.6406 84.6875L50.8125 84.2656C50.8438 84.1927 50.8594 84.1354 50.8594 84.0938C50.8594 84.0521 50.8438 84.0208 50.8125 84C50.7917 83.9688 50.724 83.9531 50.6094 83.9531H48C47.875 83.8177 47.8125 83.7083 47.8125 83.625C47.8125 83.5833 47.8333 83.5417 47.875 83.5C47.9271 83.4479 48.0312 83.4219 48.1875 83.4219H53.4375L53.9219 82.9375C54.0573 82.8021 54.1927 82.7344 54.3281 82.7344C54.4635 82.7344 54.599 82.7865 54.7344 82.8906L55.4062 83.4688V83.5156C55.4062 83.651 55.3646 83.7604 55.2812 83.8438C55.2083 83.9167 55.1042 83.9531 54.9688 83.9531H52.625C52.3542 83.9531 52.1406 84.0625 51.9844 84.2812L51.875 84.4531L51.5156 84.9219L51.125 85.3594C50.8438 85.6406 50.6979 85.7812 50.6875 85.7812C50.6979 85.7812 50.7031 85.7812 50.7031 85.7812H53.2656L53.375 85.6719C53.5208 85.5573 53.6615 85.5 53.7969 85.5C53.9427 85.5 54.0833 85.5521 54.2188 85.6562L54.4219 85.8281ZM50.0625 91.0938C49.9271 91.0938 49.8281 91.125 49.7656 91.1875C49.7135 91.2396 49.6875 91.3333 49.6875 91.4688V92.6406C49.6875 92.7656 49.7135 92.8594 49.7656 92.9219C49.8281 92.974 49.9271 93 50.0625 93H52.8281C52.9635 93 53.0573 92.974 53.1094 92.9219C53.1719 92.8594 53.2031 92.7604 53.2031 92.625V91.4531C53.2031 91.3281 53.1719 91.2396 53.1094 91.1875C53.0573 91.125 52.9635 91.0938 52.8281 91.0938H50.0625ZM50.0625 88.7344C49.9271 88.7344 49.8281 88.7656 49.7656 88.8281C49.7135 88.8802 49.6875 88.974 49.6875 89.1094V90.1875C49.6875 90.3229 49.7135 90.4219 49.7656 90.4844C49.8281 90.5365 49.9271 90.5625 50.0625 90.5625H52.8281C52.9635 90.5625 53.0573 90.5365 53.1094 90.4844C53.1719 90.4219 53.2031 90.3229 53.2031 90.1875V89.1094C53.2031 88.974 53.1719 88.8802 53.1094 88.8281C53.0573 88.7656 52.9635 88.7344 52.8281 88.7344H50.0625ZM44.7031 83.5156C44.7031 83.6719 44.7969 83.8021 44.9844 83.9062C44.9948 83.9062 45.2292 84.0729 45.6875 84.4062C45.6875 84.4167 45.901 84.6146 46.3281 85C46.3281 85 46.5365 85.2083 46.9531 85.625C46.9635 85.625 47.1719 85.8594 47.5781 86.3281L47.6562 86.7656L47.4219 87.1562L46.9688 87.25L46.5938 87.0469L45.8594 85.9688L45.0938 85C44.7604 84.6042 44.5885 84.401 44.5781 84.3906C44.5156 84.3281 44.4635 84.2969 44.4219 84.2969C44.3906 84.2969 44.3594 84.3125 44.3281 84.3438C44.3073 84.3646 44.2812 84.4115 44.25 84.4844C44.0417 84.9115 43.9375 85.125 43.9375 85.125L43.5781 85.7969L43.1875 86.4219L42.7656 87.0469L42.3281 87.6094L41.8438 88.1562L41.3281 88.6562L41.0781 88.7812C40.9635 88.8438 40.8802 88.875 40.8281 88.875C40.7865 88.875 40.75 88.8646 40.7188 88.8438C40.6979 88.8125 40.6875 88.7865 40.6875 88.7656C40.6875 88.7031 40.7292 88.6146 40.8125 88.5L41.3438 87.75L41.7188 87.1875L42.4062 85.9688L42.7344 85.3281L43.2812 84L43.6562 82.875C43.6979 82.7708 43.75 82.6875 43.8125 82.625C43.8854 82.5521 43.9688 82.5156 44.0625 82.5156C44.1562 82.5156 44.2552 82.5417 44.3594 82.5938L44.8594 82.8281C44.9323 82.9219 44.9688 83 44.9688 83.0625C44.9688 83.1875 44.8906 83.2865 44.7344 83.3594C44.7135 83.4219 44.7031 83.474 44.7031 83.5156ZM46.9375 88.3906C46.9375 88.526 46.901 88.6302 46.8281 88.7031C46.7552 88.776 46.651 88.8125 46.5156 88.8125L42.3438 88.7344C42.2812 88.6927 42.2292 88.651 42.1875 88.6094C42.1458 88.5573 42.125 88.5104 42.125 88.4688C42.125 88.3542 42.2396 88.2969 42.4688 88.2969H44.9688L45.4531 87.8125C45.5885 87.6771 45.724 87.6094 45.8594 87.6094C45.9948 87.6094 46.1302 87.6615 46.2656 87.7656L46.9375 88.3438V88.3906ZM50.0625 86.2969C49.9271 86.2969 49.8281 86.3281 49.7656 86.3906C49.7135 86.4427 49.6875 86.5365 49.6875 86.6719V87.8438C49.6875 87.9792 49.7135 88.0781 49.7656 88.1406C49.8281 88.1927 49.9271 88.2188 50.0625 88.2188H52.8281C52.9635 88.2188 53.0573 88.1927 53.1094 88.1406C53.1719 88.0781 53.2031 87.9792 53.2031 87.8438V86.6719C53.2031 86.5365 53.1719 86.4427 53.1094 86.3906C53.0573 86.3281 52.9635 86.2969 52.8281 86.2969H50.0625ZM61.9531 92.1719C61.849 92.1719 61.7656 92.2031 61.7031 92.2656C61.6198 92.349 61.5781 92.4948 61.5781 92.7031C61.5781 92.8385 61.6042 92.9375 61.6562 93C61.7188 93.0521 61.8177 93.0781 61.9531 93.0781H66.0469C66.151 93.0781 66.2344 93.0469 66.2969 92.9844C66.3802 92.901 66.4219 92.7552 66.4219 92.5469C66.4219 92.4115 66.3906 92.3177 66.3281 92.2656C66.276 92.2031 66.1823 92.1719 66.0469 92.1719H61.9531ZM60.375 90.5781C60.375 90.4427 60.3542 90.375 60.3125 90.375C60.2812 90.375 60.2292 90.401 60.1562 90.4531L59.8438 90.6719L59.2656 91.0156L58.6719 91.3438L58.0312 91.6562L57.3438 91.9062C57.125 91.9271 56.9948 91.9375 56.9531 91.9375C56.9115 91.9375 56.8698 91.9375 56.8281 91.9375C56.7865 91.9271 56.75 91.9115 56.7188 91.8906C56.6979 91.8594 56.6875 91.8281 56.6875 91.7969C56.6875 91.7344 56.7656 91.6562 56.9219 91.5625L57.7344 91.0781L58.2969 90.7188L58.8125 90.3281L59.7812 89.5312L60.2188 89.1406L60.6875 88.6094C60.7604 88.5365 60.7969 88.4844 60.7969 88.4531C60.7969 88.4219 60.7292 88.4062 60.5938 88.4062H57.0625C56.9375 88.2708 56.875 88.1615 56.875 88.0781C56.875 88.0365 56.8958 87.9948 56.9375 87.9531C56.9896 87.901 57.0938 87.875 57.25 87.875H63.0312C63.1667 87.875 63.2604 87.849 63.3125 87.7969C63.375 87.7344 63.4062 87.6406 63.4062 87.5156V87.0625C63.4062 86.9271 63.375 86.8333 63.3125 86.7812C63.2604 86.7188 63.1667 86.6875 63.0312 86.6875L58.9531 86.6094C58.8906 86.5677 58.8385 86.526 58.7969 86.4844C58.7552 86.4323 58.7344 86.3854 58.7344 86.3438C58.7344 86.2292 58.849 86.1719 59.0781 86.1719H63.0312C63.1667 86.1719 63.2604 86.1458 63.3125 86.0938C63.375 86.0312 63.4062 85.9323 63.4062 85.7969V85.375C63.4062 85.2396 63.375 85.1458 63.3125 85.0938C63.2604 85.0312 63.1719 85 63.0469 85H58.0625C57.9375 84.8646 57.875 84.7552 57.875 84.6719C57.875 84.6302 57.8958 84.5885 57.9375 84.5469C57.9896 84.4948 58.0938 84.4688 58.25 84.4688H61.6875C61.7083 84.4688 61.7292 84.4688 61.75 84.4688C61.7292 84.4479 61.7031 84.4271 61.6719 84.4062L61.5938 84.2031L61.4219 83.8438L61.3125 83.6719L61.1719 83.5L61.0469 83.3281L60.4688 82.7188C60.4271 82.6562 60.4062 82.6042 60.4062 82.5625C60.4062 82.5104 60.4167 82.474 60.4375 82.4531C60.4688 82.4219 60.5052 82.4062 60.5469 82.4062C60.5885 82.4062 60.6406 82.4167 60.7031 82.4375L60.9688 82.5156L61.25 82.6406L61.5 82.7656L61.7188 82.8906L62.1719 83.2188L62.375 83.4062L62.7344 83.8281L62.7656 84.2812L62.625 84.4688H65.0781L65.1875 84.3281L66.5 82.5C66.5938 82.3542 66.7031 82.2812 66.8281 82.2812C66.9115 82.2812 67.0052 82.3281 67.1094 82.4219L67.5938 82.8906C67.6146 82.9531 67.625 83.0104 67.625 83.0625C67.625 83.1146 67.6042 83.1615 67.5625 83.2031C67.5208 83.2448 67.4479 83.2656 67.3438 83.2656C67.3229 83.2656 67.3021 83.2656 67.2812 83.2656L66.7969 83.6875L65.75 84.4688C65.7604 84.4688 65.776 84.4688 65.7969 84.4688H68.3438L68.8125 84C68.9479 83.8646 69.0833 83.7969 69.2188 83.7969C69.3646 83.7969 69.5 83.8542 69.625 83.9688L70.1094 84.4062C70.1615 84.5208 70.1875 84.6198 70.1875 84.7031C70.1875 84.776 70.1562 84.8438 70.0938 84.9062C70.0312 84.9688 69.9219 85 69.7656 85H64.9688C64.8333 85 64.7344 85.0312 64.6719 85.0938C64.6198 85.1458 64.5938 85.2396 64.5938 85.375V85.7969C64.5938 85.9323 64.6198 86.0312 64.6719 86.0938C64.7344 86.1458 64.8281 86.1719 64.9531 86.1719H67.7969C68.0469 85.9115 68.1771 85.776 68.1875 85.7656C68.3021 85.6406 68.4219 85.5781 68.5469 85.5781C68.6719 85.5781 68.8021 85.6354 68.9375 85.75L69.4688 86.2188V86.2656C69.4688 86.401 69.4323 86.5052 69.3594 86.5781C69.2865 86.651 69.1823 86.6875 69.0469 86.6875H64.9688C64.8333 86.6875 64.7344 86.7188 64.6719 86.7812C64.6198 86.8333 64.5938 86.9219 64.5938 87.0469V87.5C64.5938 87.6354 64.6198 87.7344 64.6719 87.7969C64.7344 87.849 64.8333 87.875 64.9688 87.875H69.6562C69.9062 87.6146 70.0365 87.4792 70.0469 87.4688C70.1615 87.3438 70.2812 87.2812 70.4062 87.2812C70.5312 87.2812 70.6615 87.3438 70.7969 87.4688L71.3125 87.9219V87.9688C71.3125 88.1042 71.2708 88.2135 71.1875 88.2969C71.1146 88.3698 71.0104 88.4062 70.875 88.4062H66.7969C66.7344 88.4062 66.6875 88.4115 66.6562 88.4219C66.6771 88.4427 66.7135 88.4688 66.7656 88.5L67.9219 89.3438L68.875 89.875L69.375 90.1406L69.875 90.3594L71.0625 90.8438C71.2708 90.9167 71.375 91.0208 71.375 91.1562C71.375 91.25 71.3073 91.3542 71.1719 91.4688L70.9375 91.6719C70.7708 91.8073 70.5938 91.875 70.4062 91.875C70.2917 91.875 70.1719 91.8438 70.0469 91.7812C69.6719 91.5938 69.4375 91.474 69.3438 91.4219L68.8281 91.1094L68.3125 90.7656L67.8438 90.4219L67.3906 90.0312L66.9844 89.6406L66.5781 89.2188L66.2188 88.75C66.0729 88.5208 65.8594 88.4062 65.5781 88.4062H62.375L61.8594 88.9844L61.4062 89.4531C61.0625 89.7552 60.8854 89.9062 60.875 89.9062L60.8438 89.9531C60.8438 89.974 60.8698 89.9948 60.9219 90.0156L61.5 90.3125H63.0312C63.1667 90.3125 63.2604 90.2865 63.3125 90.2344C63.375 90.1719 63.4062 90.0729 63.4062 89.9375V89.2812C63.4062 89.1146 63.4427 88.9896 63.5156 88.9062C63.599 88.8229 63.7083 88.7812 63.8438 88.7812C63.8854 88.7812 63.9323 88.7865 63.9844 88.7969L64.5312 88.8906C64.5833 88.9219 64.625 88.9531 64.6562 88.9844C64.6979 89.026 64.7188 89.0833 64.7188 89.1562C64.7188 89.2188 64.6771 89.2812 64.5938 89.3438V89.9375C64.5938 90.0729 64.6198 90.1719 64.6719 90.2344C64.7344 90.2865 64.8333 90.3125 64.9688 90.3125H66.4844L66.6094 90.2031C66.7552 90.0885 66.8958 90.0312 67.0312 90.0312C67.1771 90.0312 67.3177 90.0833 67.4531 90.1875C67.6094 90.3229 67.6927 90.401 67.7031 90.4219C67.8073 90.5156 67.8594 90.625 67.8594 90.75C67.8594 90.8646 67.7812 90.9896 67.625 91.125V93.2188C67.625 93.5729 67.4688 93.8229 67.1562 93.9688L66.9844 94.0625C66.8802 94.1146 66.7917 94.1406 66.7188 94.1406C66.6458 94.1406 66.5781 94.1094 66.5156 94.0469C66.4531 93.9844 66.4219 93.875 66.4219 93.7188C66.4219 93.6771 66.4115 93.651 66.3906 93.6406C66.3802 93.6198 66.3542 93.6094 66.3125 93.6094H64.8281C64.7552 93.6094 64.6979 93.6146 64.6562 93.625C64.6771 93.6667 64.7188 93.7083 64.7812 93.75L65.2969 94.1719L65.8125 94.5469L66.3438 94.8906L66.5781 95.0156C66.6823 95.0677 66.7917 95.0938 66.9062 95.0938C67.0208 95.0938 67.1354 95.0469 67.25 94.9531L68.1562 94.2969L68.9375 93.6562L69.0938 93.5C69.2188 93.375 69.3385 93.3125 69.4531 93.3125C69.599 93.3125 69.7344 93.3906 69.8594 93.5469L70.2188 93.9844C70.2188 94.0365 70.2188 94.0781 70.2188 94.1094C70.2188 94.1927 70.1979 94.2552 70.1562 94.2969C70.1146 94.3385 70.0677 94.3594 70.0156 94.3594C69.9635 94.3594 69.9167 94.3542 69.875 94.3438L69.25 94.7031L68.5938 95.0469L68.2812 95.1719L67.8594 95.3906C67.7969 95.4219 67.7552 95.4531 67.7344 95.4844C67.7656 95.526 67.8646 95.5729 68.0312 95.625L68.6094 95.7812L69.2344 95.8906L70.2656 96.0312C70.401 96.0417 70.4948 96.0729 70.5469 96.125C70.599 96.1771 70.625 96.2292 70.625 96.2812C70.625 96.3646 70.5677 96.4583 70.4531 96.5625L70.125 96.9062C69.9375 97.1042 69.7083 97.2031 69.4375 97.2031C69.3646 97.2031 69.3021 97.1979 69.25 97.1875L68.9844 97.125L68.2969 96.9219L67.625 96.6719L67 96.375L66.4062 96.0312L65.8438 95.625L65.3125 95.1562L64.8281 94.6719L64.3906 94.1094L64.2812 93.9531C64.1354 93.724 63.9219 93.6094 63.6406 93.6094H61.9531C61.8177 93.6094 61.7188 93.6406 61.6562 93.7031C61.6042 93.7552 61.5781 93.849 61.5781 93.9844V94.9375C61.5781 95.0625 61.599 95.151 61.6406 95.2031C61.6927 95.2448 61.7708 95.2656 61.875 95.2656C61.875 95.2656 62.0052 95.25 62.2656 95.2188L62.9688 95.1406L63.7188 95.0781C64.0521 95.1198 64.2344 95.1458 64.2656 95.1562C64.2969 95.1667 64.3229 95.1875 64.3438 95.2188C64.375 95.2396 64.3906 95.2656 64.3906 95.2969C64.3906 95.3177 64.3698 95.3438 64.3281 95.375C64.2969 95.4062 64.2188 95.4427 64.0938 95.4844L63.0938 95.7656L58.8125 96.8438L58.5625 96.9688C58.5 97.0729 58.4219 97.125 58.3281 97.125C58.2448 97.125 58.1562 97.0729 58.0625 96.9688L57.8438 96.4375C57.8125 96.3542 57.7969 96.2656 57.7969 96.1719C57.7969 96.0885 57.8281 96.0104 57.8906 95.9375C57.9635 95.8646 58.0729 95.8177 58.2188 95.7969L58.4688 95.75L59.6406 95.5625L60 95.5156C60.1146 95.5052 60.2031 95.4688 60.2656 95.4062C60.3385 95.3333 60.375 95.224 60.375 95.0781V90.5781ZM61.9531 90.8281C61.7031 90.8281 61.5781 90.9688 61.5781 91.25C61.5781 91.4062 61.6042 91.5156 61.6562 91.5781C61.7188 91.6302 61.8177 91.6562 61.9531 91.6562H66.0469C66.1615 91.6562 66.25 91.625 66.3125 91.5625C66.3854 91.4896 66.4219 91.3802 66.4219 91.2344C66.4219 91.0781 66.3906 90.974 66.3281 90.9219C66.276 90.8594 66.1823 90.8281 66.0469 90.8281H61.9531ZM82.625 95.0312C82.625 95.1042 82.6042 95.1615 82.5625 95.2031C82.5208 95.2448 82.474 95.2656 82.4219 95.2656C82.3698 95.2656 82.3229 95.2656 82.2812 95.2656L81.8438 95.5625L80.9844 96.0469L80.5 96.2969L79.4844 96.7344L78.9062 96.9375L78.2969 97.125L78.0625 97.1406C77.9062 97.1406 77.8073 97.1198 77.7656 97.0781C77.7344 97.0469 77.7188 97.0156 77.7188 96.9844C77.7188 96.9115 77.8021 96.8333 77.9688 96.75L79.6406 95.7812L80.8594 94.9531L81.5312 94.3906C81.6458 94.2865 81.75 94.2344 81.8438 94.2344C81.9688 94.2344 82.0885 94.2969 82.2031 94.4219L82.625 94.9062C82.625 94.9583 82.625 95 82.625 95.0312ZM78.9062 92.3281C78.9271 92.401 78.9375 92.4688 78.9375 92.5312C78.9375 92.5938 78.9115 92.651 78.8594 92.7031C78.8177 92.7552 78.75 92.7917 78.6562 92.8125L78.4219 92.9844L77.4219 94L76.875 94.4844L75.7344 95.4375L75.1094 95.8906L73.7969 96.7344C73.4844 96.8281 73.3125 96.875 73.2812 96.875C73.25 96.8854 73.2188 96.8906 73.1875 96.8906C73.1667 96.8906 73.1406 96.875 73.1094 96.8438C73.0885 96.8229 73.0781 96.8021 73.0781 96.7812C73.0781 96.7604 73.0833 96.7396 73.0938 96.7188C73.1042 96.6771 73.1615 96.6094 73.2656 96.5156L74.6562 95.3125L75.7188 94.3125L76.6875 93.2812L77.125 92.7656L77.7188 92C77.8438 91.8438 77.9688 91.7656 78.0938 91.7656C78.2292 91.7656 78.3594 91.8281 78.4844 91.9531L78.9062 92.3281ZM83.875 94.5781C83.7604 94.474 83.7031 94.401 83.7031 94.3594C83.7031 94.2552 83.7656 94.2031 83.8906 94.2031C83.9531 94.2031 84.0156 94.2083 84.0781 94.2188L84.4688 94.3281L85.2188 94.625L85.5625 94.7969L85.9062 95L86.2344 95.2031L86.8125 95.6875L87.0938 95.9688L87.2188 96.3906L87.0312 96.8125L86.5781 96.9375L86.1875 96.7344L85.9844 96.4688L85.5781 95.9844L85.0781 95.5312L84.5 95.0938L83.875 94.5781ZM86.3438 85.8281C86.4792 85.9427 86.5469 86.0677 86.5469 86.2031C86.5469 86.3281 86.4688 86.4583 86.3125 86.5938V92.9688C86.3125 93.3125 86.151 93.5573 85.8281 93.7031L85.5625 93.8281L85.5156 93.7969C85.2865 93.6094 85.026 93.5156 84.7344 93.5156H81.5156L81.2812 93.6562C81.1458 93.9479 80.9323 94.1615 80.6406 94.2969L80.4688 94.3906C80.3646 94.4427 80.276 94.4688 80.2031 94.4688C80.1302 94.4688 80.0625 94.4375 80 94.375C79.9375 94.3125 79.9062 94.2031 79.9062 94.0469V85.8281C79.9062 85.6719 79.9375 85.5625 80 85.5C80.0625 85.4375 80.1302 85.4062 80.2031 85.4062C80.2865 85.4062 80.375 85.4323 80.4688 85.4844L81.0312 85.7812H81.2188C81.4896 85.7812 81.6927 85.6615 81.8281 85.4219L82.25 84.6562L82.4531 84.2344C82.4844 84.1615 82.5 84.1094 82.5 84.0781C82.5 84.0469 82.4948 84.0208 82.4844 84C82.4427 83.9688 82.3698 83.9531 82.2656 83.9531H79.2656C79.1406 83.8177 79.0781 83.7083 79.0781 83.625C79.0781 83.5833 79.099 83.5417 79.1406 83.5C79.1927 83.4479 79.2969 83.4219 79.4531 83.4219H85.5156L86 82.9375C86.1354 82.8021 86.2708 82.7344 86.4062 82.7344C86.5417 82.7344 86.6771 82.7865 86.8125 82.8906L87.4844 83.4688V83.5156C87.4844 83.651 87.4427 83.7604 87.3594 83.8438C87.2865 83.9167 87.1823 83.9531 87.0469 83.9531H84.3125C84.0312 83.9531 83.8125 84.0677 83.6562 84.2969L83.5312 84.4688L83.125 84.9375L82.7188 85.3906L82.25 85.7812C82.2604 85.7812 82.2656 85.7812 82.2656 85.7812H85.1719L85.2969 85.6719C85.4427 85.5573 85.5833 85.5 85.7188 85.5C85.8646 85.5 86.0052 85.5521 86.1406 85.6562L86.3438 85.8281ZM81.4844 91.0938C81.349 91.0938 81.25 91.125 81.1875 91.1875C81.1354 91.2396 81.1094 91.3333 81.1094 91.4688V92.6406C81.1094 92.7656 81.1354 92.8594 81.1875 92.9219C81.25 92.974 81.349 93 81.4844 93H84.7344C84.8698 93 84.9635 92.974 85.0156 92.9219C85.0781 92.8594 85.1094 92.7604 85.1094 92.625V91.4531C85.1094 91.3281 85.0781 91.2396 85.0156 91.1875C84.9635 91.125 84.8698 91.0938 84.7344 91.0938H81.4844ZM78.5625 87.8125C78.5833 87.875 78.5938 87.9375 78.5938 88C78.5938 88.0625 78.5677 88.1198 78.5156 88.1719C78.474 88.2135 78.4062 88.2396 78.3125 88.25L78.125 88.375L77.625 88.8594L77.1406 89.3281L76.0938 90.2031L75.5312 90.6094L74.375 91.375L73.7344 91.75L73.4531 91.8281C73.3698 91.849 73.3021 91.8594 73.25 91.8594C73.1979 91.8594 73.1562 91.849 73.125 91.8281C73.0938 91.7969 73.0781 91.7708 73.0781 91.75C73.0781 91.6667 73.1406 91.5729 73.2656 91.4688L74.5156 90.4062L75.5156 89.5156L76.4219 88.5938L77.25 87.625C77.375 87.4792 77.4427 87.3958 77.4531 87.375C77.5573 87.2812 77.6667 87.2344 77.7812 87.2344C77.8958 87.2344 78.0156 87.2917 78.1406 87.4062L78.5625 87.8125ZM81.4844 88.7344C81.349 88.7344 81.25 88.7656 81.1875 88.8281C81.1354 88.8802 81.1094 88.974 81.1094 89.1094V90.1875C81.1094 90.3229 81.1354 90.4219 81.1875 90.4844C81.25 90.5365 81.349 90.5625 81.4844 90.5625H84.7344C84.8698 90.5625 84.9635 90.5365 85.0156 90.4844C85.0781 90.4219 85.1094 90.3229 85.1094 90.1875V89.1094C85.1094 88.974 85.0781 88.8802 85.0156 88.8281C84.9635 88.7656 84.8698 88.7344 84.7344 88.7344H81.4844ZM81.4844 86.2969C81.349 86.2969 81.25 86.3281 81.1875 86.3906C81.1354 86.4427 81.1094 86.5365 81.1094 86.6719V87.8438C81.1094 87.9792 81.1354 88.0781 81.1875 88.1406C81.25 88.1927 81.349 88.2188 81.4844 88.2188H84.7344C84.8698 88.2188 84.9635 88.1927 85.0156 88.1406C85.0781 88.0781 85.1094 87.9792 85.1094 87.8438V86.6719C85.1094 86.5365 85.0781 86.4427 85.0156 86.3906C84.9635 86.3281 84.8698 86.2969 84.7344 86.2969H81.4844ZM77.9219 83.6406C77.9531 83.7135 77.9688 83.7812 77.9688 83.8438C77.9688 83.8958 77.9427 83.9479 77.8906 84C77.849 84.0417 77.776 84.0625 77.6719 84.0625L77.1875 84.6094L76.3594 85.4375L75.3906 86.2031L74.3125 86.9375L73.7188 87.2969L73.4531 87.375C73.3698 87.3958 73.3021 87.4062 73.25 87.4062C73.1979 87.4062 73.1562 87.3958 73.125 87.375C73.0938 87.3438 73.0781 87.3177 73.0781 87.2969C73.0781 87.2135 73.1406 87.1198 73.2656 87.0156L74.4219 86.0156L75.2969 85.1562L76.0312 84.3125L76.7188 83.4219C76.8333 83.2344 76.9688 83.1406 77.125 83.1406C77.2292 83.1406 77.3438 83.1875 77.4688 83.2812L77.9219 83.6406ZM92.375 90.2188C92.375 90.1146 92.349 90.0365 92.2969 89.9844C92.2448 89.9323 92.1562 89.9062 92.0312 89.9062L89.1094 89.8281C89.0469 89.7865 88.9948 89.7448 88.9531 89.7031C88.9115 89.651 88.8906 89.6042 88.8906 89.5625C88.8906 89.4479 89.0052 89.3906 89.2344 89.3906L92.0625 89.3125C92.1979 89.3125 92.2917 89.2865 92.3438 89.2344C92.4062 89.1719 92.4375 89.0729 92.4375 88.9375C92.4375 88.9375 92.4479 88.6979 92.4688 88.2188V86.25C92.4688 86.1146 92.4375 86.0208 92.375 85.9688C92.3229 85.9062 92.2292 85.875 92.0938 85.875H91.5312C91.2604 85.875 91.0677 86 90.9531 86.25C90.6927 86.8021 90.5625 87.0781 90.5625 87.0781L90.2344 87.6562L89.875 88.25L89.7031 88.4219C89.6094 88.5156 89.5469 88.5677 89.5156 88.5781C89.4844 88.5885 89.4531 88.5938 89.4219 88.5938C89.401 88.5938 89.375 88.5833 89.3438 88.5625C89.3229 88.5312 89.3125 88.5 89.3125 88.4688C89.3125 88.4062 89.3281 88.3229 89.3594 88.2188L90.0781 86.1875L90.4531 85L90.7344 83.8594L90.9219 82.8125C90.9427 82.7292 90.974 82.6667 91.0156 82.625C91.0677 82.5729 91.1198 82.5469 91.1719 82.5469C91.2344 82.5469 91.2865 82.5521 91.3281 82.5625L92.0625 82.8594C92.1562 82.9531 92.2031 83.0312 92.2031 83.0938C92.2031 83.1979 92.1406 83.276 92.0156 83.3281L91.9688 83.5625L91.5938 84.7188C91.4375 85.1354 91.3594 85.349 91.3594 85.3594C91.3698 85.3594 91.3854 85.3594 91.4062 85.3594H94.625L95.1094 84.875C95.2448 84.7396 95.3802 84.6719 95.5156 84.6719C95.651 84.6719 95.7865 84.724 95.9219 84.8281L96.5938 85.4062V85.4531C96.5938 85.5885 96.5573 85.6927 96.4844 85.7656C96.4115 85.8385 96.3073 85.875 96.1719 85.875H94.0312C93.8958 85.875 93.7969 85.9062 93.7344 85.9688C93.6823 86.0208 93.6562 86.1146 93.6562 86.25V88.2188C93.6146 88.7604 93.5938 89.0365 93.5938 89.0469C93.5938 89.1615 93.6198 89.25 93.6719 89.3125C93.7344 89.3646 93.8281 89.3906 93.9531 89.3906H94.9531L95.4375 88.9062C95.5729 88.7708 95.7083 88.7031 95.8438 88.7031C95.9792 88.7031 96.1146 88.7552 96.25 88.8594L96.9375 89.4375V89.4844C96.9375 89.6198 96.901 89.724 96.8281 89.7969C96.7552 89.8698 96.651 89.9062 96.5156 89.9062H93.9062C93.7708 89.9062 93.6667 89.9375 93.5938 90C93.5417 90.0625 93.5052 90.1615 93.4844 90.2969L93.4219 90.6875L93.2344 91.375C93.2344 91.3958 93.2344 91.4219 93.2344 91.4531C93.2344 91.5156 93.276 91.5677 93.3594 91.6094L93.8906 91.8438L94.375 92.125L94.7969 92.4375L95.2031 92.7812L95.5781 93.125L95.9062 93.5312L96.1719 93.9375L96.4531 94.375L96.6406 94.8438L96.625 95.2812L96.2812 95.5938L95.8125 95.5625L95.5156 95.2344L95.3906 94.8281L95.2344 94.4688L95.0469 94.0938L94.8125 93.7344L94.5469 93.4062L94.25 93.0469L93.5312 92.375C93.2396 92.1354 93.0885 92.0104 93.0781 92L92.7812 92.8438L92.3438 93.7812L91.7969 94.6562L91.1562 95.4219L90.4219 96.125L89.5781 96.7188L88.6094 96.8125L89.2969 96.2969L89.9844 95.6562L90.5938 94.9531L91.1094 94.2031L91.5469 93.375L91.875 92.4844L92.1562 91.5312L92.3438 90.5C92.3646 90.3438 92.375 90.25 92.375 90.2188ZM97.8906 96.7188C97.6927 96.8229 97.5417 96.8229 97.4375 96.7188C97.3646 96.6458 97.3281 96.5312 97.3281 96.375V84.8438C97.3281 84.6875 97.3594 84.5781 97.4219 84.5156C97.4844 84.4531 97.5521 84.4219 97.625 84.4219C97.6979 84.4219 97.7865 84.4479 97.8906 84.5L98.4531 84.7812H101.594L101.703 84.6719C101.849 84.5573 101.99 84.5 102.125 84.5C102.26 84.5 102.401 84.5573 102.547 84.6719L102.766 84.875L102.828 85.0938C102.755 85.4062 102.719 85.7135 102.719 86.0156V95.375C102.719 95.7292 102.562 95.9792 102.25 96.125L102.094 96.2188C102 96.2708 101.917 96.2969 101.844 96.2969C101.771 96.2969 101.703 96.2708 101.641 96.2188C101.568 96.1354 101.531 96.0156 101.531 95.8594C101.531 95.6927 101.5 95.5833 101.438 95.5312C101.385 95.4688 101.292 95.4375 101.156 95.4375H98.9062C98.7812 95.4375 98.6875 95.4688 98.625 95.5312C98.5625 95.5938 98.5312 95.7083 98.5312 95.875C98.5312 96.2292 98.375 96.4792 98.0625 96.625L97.8906 96.7188ZM98.9062 85.3125C98.7708 85.3125 98.6719 85.3438 98.6094 85.4062C98.5573 85.4583 98.5312 85.5521 98.5312 85.6875V94.5469C98.5312 94.6719 98.5573 94.7656 98.6094 94.8281C98.6719 94.8802 98.7708 94.9062 98.9062 94.9062H101.156C101.292 94.9062 101.385 94.8802 101.438 94.8281C101.5 94.7656 101.531 94.6667 101.531 94.5312V85.6719C101.531 85.5469 101.5 85.4583 101.438 85.4062C101.385 85.3438 101.292 85.3125 101.156 85.3125H98.9062Z" fill="white"/>
<path d="M64.835 16V48.6837H88.7038L64.835 16Z" stroke="white" stroke-width="1.5" stroke-miterlimit="10" stroke-linecap="round" stroke-linejoin="round"/>
<path d="M84.1473 62.0865C87.9793 58.9476 90.3824 53.915 90.3824 53.915H35.4572C35.4572 53.915 33.9139 58.9764 39.0232 62.1153" stroke="white" stroke-width="1.5" stroke-miterlimit="10" stroke-linecap="round" stroke-linejoin="round"/>
<path d="M60.0613 23.5725V48.6832H45.3408L60.0613 23.5725Z" stroke="white" stroke-width="1.5" stroke-miterlimit="10" stroke-linecap="round" stroke-linejoin="round"/>
<path d="M64.835 16.2488V53.9148" stroke="white" stroke-width="1.5" stroke-miterlimit="10" stroke-linecap="round" stroke-linejoin="round"/>
<path d="M22 61.0933C24.2599 61.0933 28.7797 63.8008 33.2995 63.8008C37.8193 63.8008 40.8324 61.0933 45.3522 61.0933C49.872 61.0933 53.6385 63.8008 57.405 63.8008C61.1715 63.8008 62.6781 61.0933 68.7045 61.0933" stroke="white" stroke-width="1.5" stroke-miterlimit="10" stroke-linecap="round" stroke-linejoin="round"/>
<path d="M57.9922 67.8474C60.3495 67.7833 64.9904 64.9485 69.7049 64.8202C74.4195 64.6919 77.6362 67.3129 82.3507 67.1846C87.0653 67.0563 90.9204 64.2429 94.8492 64.136C98.778 64.029 100.423 66.6928 106.709 66.5217" stroke="white" stroke-width="1.5" stroke-miterlimit="10" stroke-linecap="round" stroke-linejoin="round"/>
</svg>
