<svg width="130" height="130" viewBox="0 0 130 130" fill="none" xmlns="http://www.w3.org/2000/svg">
<path d="M26.5781 88.9062C26.4323 88.8646 26.3594 88.7969 26.3594 88.7031C26.3594 88.6406 26.4115 88.5833 26.5156 88.5312L27.6406 87.9062L28.1875 87.5625L28.5781 87.25L28.875 86.9375L29.0938 86.6562L29.2188 86.3906L29.2969 86.1094L29.3125 85.8125L29.3438 85.4844L29.3281 85.3125L29.2812 85.0781L29.2188 84.875L29.1406 84.6875L29.0312 84.4844L28.8906 84.3125L28.7031 84.1719L28.4688 84.0312L28.25 83.9219L27.7031 83.8594L27.0781 83.9375L26.4844 84.1562L25.9375 84.5469L25.4531 85.1562C25.2135 85.4688 25.0729 85.6458 25.0312 85.6875C24.9896 85.7292 24.9479 85.75 24.9062 85.75C24.8646 85.75 24.8281 85.7396 24.7969 85.7188C24.776 85.6875 24.7656 85.6562 24.7656 85.625C24.7656 85.5938 24.7656 85.5625 24.7656 85.5312C24.7656 85.5 24.7708 85.4531 24.7812 85.3906L24.8906 84.8594L25.375 84.0469L26.0469 83.4375L26.8281 83.0469L27.6719 82.875L28.5156 82.9219L29.3125 83.2031L30 83.7031L30.5156 84.4688L30.75 85.4531L30.6875 85.9688L30.5156 86.4531L30.2812 86.875L29.9531 87.2812L29.5469 87.6094L28.9844 87.9688C28.9115 88.0104 28.8646 88.0417 28.8438 88.0625C28.875 88.0938 28.9479 88.1302 29.0625 88.1719L29.9688 88.8438L30.5781 89.6875L30.5938 89.7031L30.9062 90.6719V91.6875L30.6094 92.6562L30.0312 93.5156L29.1875 94.1562L28.0469 94.5625H28.0312H27.75L27.4375 94.6406L26.9531 94.6875L26.5 94.6719L26.0938 94.625L25.6875 94.5625L25.3594 94.4688L25.0469 94.3438L24.7969 94.2188L24.5 93.8438L24.7344 93.0312L25.125 92.8125L25.375 92.8438L25.5781 92.9219L25.7344 93L25.9062 93.1094L26.0625 93.2344L26.2812 93.5469L26.4219 93.8281L27.0469 94L27.2188 94.0469L27.9531 93.9062L28.75 93.5156L29.2969 92.9688L29.6094 92.3438L29.7344 91.6719L29.6562 90.9688L29.4219 90.3438L29.0156 89.7812L28.4688 89.3906L27.75 89.1406L27.4219 89.0469L27.2344 89L26.8438 88.9375L26.5781 88.9062ZM53.7031 83.9062C53.8385 84.0208 53.9062 84.1458 53.9062 84.2812C53.9062 84.4062 53.8281 84.5365 53.6719 84.6719V89.2656C53.6719 89.6198 53.5156 89.8698 53.2031 90.0156L53.0312 90.1094C52.9271 90.1615 52.8333 90.1875 52.75 90.1875C52.6771 90.1875 52.6094 90.1615 52.5469 90.1094C52.4948 90.0469 52.4688 89.9531 52.4688 89.8281C52.4688 89.6927 52.4479 89.6042 52.4062 89.5625C52.3646 89.5208 52.2917 89.5 52.1875 89.5H50.1875C50.0729 89.5 50 89.5156 49.9688 89.5469C49.9583 89.5677 49.9531 89.599 49.9531 89.6406C49.9531 89.6719 49.9688 89.724 50 89.7969L50.125 90.1094L50.5156 90.8906L50.9375 91.625L51.3906 92.2656L51.7969 92.7812C51.849 92.8125 51.8958 92.8281 51.9375 92.8281C51.9896 92.8281 52.0365 92.8021 52.0781 92.75L52.5625 92.2031C53.5 91.1406 53.9792 90.6042 54 90.5938C54.1042 90.4792 54.2188 90.4219 54.3438 90.4219C54.4792 90.4219 54.6042 90.4896 54.7188 90.625L55.125 91.0312C55.1354 91.0938 55.1406 91.151 55.1406 91.2031C55.1406 91.2552 55.1146 91.3021 55.0625 91.3438C55.0208 91.3854 54.9635 91.4062 54.8906 91.4062C54.8698 91.4062 54.8385 91.401 54.7969 91.3906L53.9062 92.1094L53.3125 92.5469L52.7031 92.9219L52.4531 93.0625C52.3594 93.1146 52.3125 93.1667 52.3125 93.2188C52.3125 93.2604 52.3438 93.3125 52.4062 93.375L52.9688 93.8281L53.5781 94.2188L54.2344 94.5625L55.0469 94.8906C55.2448 94.974 55.3438 95.0781 55.3438 95.2031C55.3438 95.3073 55.276 95.4167 55.1406 95.5312L54.875 95.75C54.7188 95.875 54.5521 95.9375 54.375 95.9375C54.25 95.9375 54.125 95.9062 54 95.8438L53.6406 95.6562L52.9219 95.2188L52.2656 94.6875L51.6562 94.1094L51.125 93.4531L50.6562 92.7656L50.2344 91.9844L49.8906 91.1719L49.625 90.2812L49.5312 89.875C49.5104 89.7604 49.4635 89.6719 49.3906 89.6094C49.3281 89.5365 49.224 89.5 49.0781 89.5H48.0625C47.9271 89.5 47.8281 89.5312 47.7656 89.5938C47.7135 89.6458 47.6875 89.7396 47.6875 89.875V93.7344C47.6875 93.849 47.7031 93.9271 47.7344 93.9688C47.776 94 47.8229 94.0156 47.875 94.0156C47.9271 94.0156 47.974 94.0104 48.0156 94L49.4844 93.625L50.7812 93.7188L49.6719 94.2344L48.5 94.7344L46.8125 95.375L45.7344 95.75L45.5781 95.8125C45.5573 95.8646 45.526 95.9115 45.4844 95.9531C45.4427 95.9948 45.3906 96.0156 45.3281 96.0156C45.2656 96.0156 45.1875 95.974 45.0938 95.8906L44.7188 95.0781C44.6667 94.9844 44.6771 94.9062 44.75 94.8438C44.7812 94.8125 44.8281 94.7865 44.8906 94.7656L46.125 94.4688C46.2292 94.4479 46.3177 94.401 46.3906 94.3281C46.4635 94.2552 46.5 94.1406 46.5 93.9844V83.9062C46.5 83.7396 46.526 83.6302 46.5781 83.5781C46.6406 83.5156 46.7083 83.4844 46.7812 83.4844C46.8646 83.4844 46.9531 83.5104 47.0469 83.5625L47.6094 83.8594H48.9688C49.0938 83.8594 49.1823 83.8333 49.2344 83.7812C49.2969 83.7188 49.3281 83.6198 49.3281 83.4844V81.9844C49.3281 81.8177 49.3698 81.6927 49.4531 81.6094C49.5365 81.526 49.6458 81.4844 49.7812 81.4844C49.9792 81.4844 50.1458 81.5521 50.2812 81.6875C50.4167 81.8229 50.5 82.0312 50.5312 82.3125V83.4844C50.5312 83.6198 50.5573 83.7188 50.6094 83.7812C50.6719 83.8333 50.7708 83.8594 50.9062 83.8594H52.5312L52.6562 83.75C52.8021 83.6354 52.9427 83.5781 53.0781 83.5781C53.224 83.5781 53.3646 83.6302 53.5 83.7344L53.7031 83.9062ZM41 91.625C41 91.6146 41 91.599 41 91.5781C41 91.5469 41.0156 91.5156 41.0469 91.4844C41.0781 91.4531 41.125 91.4375 41.1875 91.4375C41.25 91.4375 41.3281 91.4479 41.4219 91.4688C41.5781 91.5312 41.7396 91.5938 41.9062 91.6562C42.1979 91.8333 42.3438 91.9271 42.3438 91.9375C42.375 91.9688 42.401 91.9844 42.4219 91.9844C42.4427 91.9844 42.4688 91.9583 42.5 91.9062L43.6406 89.75L45.2031 86.9688L46.1875 86.0156L43.7969 91.5312L43.4062 92.5312L43.2969 92.8594V93.1719L43.4688 93.6875L43.5938 94.2656L43.6562 94.9062V95.6094L43.4375 96L43 96.125L42.5938 95.9219L42.4531 95.5156L42.5 94.9062L42.5156 94.375L42.4688 93.9062L42.375 93.4844L42.25 93.0938L42.0625 92.7656L41.8281 92.4531L41.5469 92.1875L41.1562 91.8594C41.0625 91.7656 41.0104 91.6875 41 91.625ZM48.0625 86.8906C47.9271 86.8906 47.8281 86.9219 47.7656 86.9844C47.7135 87.0365 47.6875 87.1302 47.6875 87.2656V88.5938C47.6875 88.7292 47.7135 88.8281 47.7656 88.8906C47.8281 88.9427 47.9271 88.9688 48.0625 88.9688H52.0938C52.2292 88.9688 52.3229 88.9427 52.375 88.8906C52.4375 88.8281 52.4688 88.7292 52.4688 88.5938V87.2656C52.4688 87.1302 52.4375 87.0365 52.375 86.9844C52.3229 86.9219 52.2292 86.8906 52.0938 86.8906H48.0625ZM40.7969 85.9688C40.7969 85.9479 40.7969 85.9271 40.7969 85.9062C40.7969 85.8854 40.8125 85.8594 40.8438 85.8281C40.875 85.7969 40.9167 85.7812 40.9688 85.7812C41.0312 85.7812 41.0833 85.7865 41.125 85.7969L41.8594 85.9531L42.1719 86.0625L42.5 86.2031L42.7656 86.3438L43.0469 86.5L43.2812 86.6719L43.5156 86.875L43.7188 87.1094L43.7656 87.5781L43.5 87.9531L43.0469 88L42.6875 87.75L42.5156 87.4062L42.375 87.25L42.2344 87.0781L41.8281 86.75L41.5781 86.5625L40.9375 86.1562C40.8542 86.0833 40.8073 86.0208 40.7969 85.9688ZM47.6875 86.0156C47.6875 86.1406 47.7135 86.2344 47.7656 86.2969C47.8281 86.349 47.9271 86.375 48.0625 86.375H52.0938C52.2292 86.375 52.3229 86.349 52.375 86.2969C52.4375 86.2344 52.4688 86.1406 52.4688 86.0156V84.75C52.4688 84.6146 52.4375 84.5208 52.375 84.4688C52.3229 84.4062 52.2292 84.375 52.0938 84.375H48.0625C47.9271 84.375 47.8281 84.4062 47.7656 84.4688C47.7135 84.5208 47.6875 84.6146 47.6875 84.75V86.0156ZM42.1719 82.0938C42.1719 82.0833 42.1719 82.0677 42.1719 82.0469C42.1719 82.026 42.1875 82 42.2188 81.9688C42.25 81.9375 42.2917 81.9219 42.3438 81.9219C42.4062 81.9219 42.4583 81.9271 42.5 81.9375L42.8438 82.0156L43.4844 82.2188L43.7812 82.3438L44.0625 82.4844L44.3281 82.6406L44.5625 82.8125L44.7812 83.0156L45 83.2344L45.0781 83.6719L44.8438 84.0625L44.375 84.1562L44 83.9062L43.9062 83.7188L43.7969 83.5625L43.5156 83.2031L43.3281 83.0469L43.1094 82.875L42.625 82.5156L42.2969 82.3125C42.224 82.2188 42.1823 82.1458 42.1719 82.0938ZM69.7031 83.9062C69.8385 84.0208 69.9062 84.1458 69.9062 84.2812C69.9062 84.4062 69.8281 84.5365 69.6719 84.6719V89.2656C69.6719 89.6198 69.5156 89.8698 69.2031 90.0156L69.0312 90.1094C68.9271 90.1615 68.8333 90.1875 68.75 90.1875C68.6771 90.1875 68.6094 90.1615 68.5469 90.1094C68.4948 90.0469 68.4688 89.9531 68.4688 89.8281C68.4688 89.6927 68.4479 89.6042 68.4062 89.5625C68.3646 89.5208 68.2917 89.5 68.1875 89.5H66.1875C66.0729 89.5 66 89.5156 65.9688 89.5469C65.9583 89.5677 65.9531 89.599 65.9531 89.6406C65.9531 89.6719 65.9688 89.724 66 89.7969L66.125 90.1094L66.5156 90.8906L66.9375 91.625L67.3906 92.2656L67.7969 92.7812C67.849 92.8125 67.8958 92.8281 67.9375 92.8281C67.9896 92.8281 68.0365 92.8021 68.0781 92.75L68.5625 92.2031C69.5 91.1406 69.9792 90.6042 70 90.5938C70.1042 90.4792 70.2188 90.4219 70.3438 90.4219C70.4792 90.4219 70.6042 90.4896 70.7188 90.625L71.125 91.0312C71.1354 91.0938 71.1406 91.151 71.1406 91.2031C71.1406 91.2552 71.1146 91.3021 71.0625 91.3438C71.0208 91.3854 70.9635 91.4062 70.8906 91.4062C70.8698 91.4062 70.8385 91.401 70.7969 91.3906L69.9062 92.1094L69.3125 92.5469L68.7031 92.9219L68.4531 93.0625C68.3594 93.1146 68.3125 93.1667 68.3125 93.2188C68.3125 93.2604 68.3438 93.3125 68.4062 93.375L68.9688 93.8281L69.5781 94.2188L70.2344 94.5625L71.0469 94.8906C71.2448 94.974 71.3438 95.0781 71.3438 95.2031C71.3438 95.3073 71.276 95.4167 71.1406 95.5312L70.875 95.75C70.7188 95.875 70.5521 95.9375 70.375 95.9375C70.25 95.9375 70.125 95.9062 70 95.8438L69.6406 95.6562L68.9219 95.2188L68.2656 94.6875L67.6562 94.1094L67.125 93.4531L66.6562 92.7656L66.2344 91.9844L65.8906 91.1719L65.625 90.2812L65.5312 89.875C65.5104 89.7604 65.4635 89.6719 65.3906 89.6094C65.3281 89.5365 65.224 89.5 65.0781 89.5H64.0625C63.9271 89.5 63.8281 89.5312 63.7656 89.5938C63.7135 89.6458 63.6875 89.7396 63.6875 89.875V93.7344C63.6875 93.849 63.7031 93.9271 63.7344 93.9688C63.776 94 63.8229 94.0156 63.875 94.0156C63.9271 94.0156 63.974 94.0104 64.0156 94L65.4844 93.625L66.7812 93.7188L65.6719 94.2344L64.5 94.7344L62.8125 95.375L61.7344 95.75L61.5781 95.8125C61.5573 95.8646 61.526 95.9115 61.4844 95.9531C61.4427 95.9948 61.3906 96.0156 61.3281 96.0156C61.2656 96.0156 61.1875 95.974 61.0938 95.8906L60.7188 95.0781C60.6667 94.9844 60.6771 94.9062 60.75 94.8438C60.7812 94.8125 60.8281 94.7865 60.8906 94.7656L62.125 94.4688C62.2292 94.4479 62.3177 94.401 62.3906 94.3281C62.4635 94.2552 62.5 94.1406 62.5 93.9844V83.9062C62.5 83.7396 62.526 83.6302 62.5781 83.5781C62.6406 83.5156 62.7083 83.4844 62.7812 83.4844C62.8646 83.4844 62.9531 83.5104 63.0469 83.5625L63.6094 83.8594H64.9688C65.0938 83.8594 65.1823 83.8333 65.2344 83.7812C65.2969 83.7188 65.3281 83.6198 65.3281 83.4844V81.9844C65.3281 81.8177 65.3698 81.6927 65.4531 81.6094C65.5365 81.526 65.6458 81.4844 65.7812 81.4844C65.9792 81.4844 66.1458 81.5521 66.2812 81.6875C66.4167 81.8229 66.5 82.0312 66.5312 82.3125V83.4844C66.5312 83.6198 66.5573 83.7188 66.6094 83.7812C66.6719 83.8333 66.7708 83.8594 66.9062 83.8594H68.5312L68.6562 83.75C68.8021 83.6354 68.9427 83.5781 69.0781 83.5781C69.224 83.5781 69.3646 83.6302 69.5 83.7344L69.7031 83.9062ZM57 91.625C57 91.6146 57 91.599 57 91.5781C57 91.5469 57.0156 91.5156 57.0469 91.4844C57.0781 91.4531 57.125 91.4375 57.1875 91.4375C57.25 91.4375 57.3281 91.4479 57.4219 91.4688C57.5781 91.5312 57.7396 91.5938 57.9062 91.6562C58.1979 91.8333 58.3438 91.9271 58.3438 91.9375C58.375 91.9688 58.401 91.9844 58.4219 91.9844C58.4427 91.9844 58.4688 91.9583 58.5 91.9062L59.6406 89.75L61.2031 86.9688L62.1875 86.0156L59.7969 91.5312L59.4062 92.5312L59.2969 92.8594V93.1719L59.4688 93.6875L59.5938 94.2656L59.6562 94.9062V95.6094L59.4375 96L59 96.125L58.5938 95.9219L58.4531 95.5156L58.5 94.9062L58.5156 94.375L58.4688 93.9062L58.375 93.4844L58.25 93.0938L58.0625 92.7656L57.8281 92.4531L57.5469 92.1875L57.1562 91.8594C57.0625 91.7656 57.0104 91.6875 57 91.625ZM64.0625 86.8906C63.9271 86.8906 63.8281 86.9219 63.7656 86.9844C63.7135 87.0365 63.6875 87.1302 63.6875 87.2656V88.5938C63.6875 88.7292 63.7135 88.8281 63.7656 88.8906C63.8281 88.9427 63.9271 88.9688 64.0625 88.9688H68.0938C68.2292 88.9688 68.3229 88.9427 68.375 88.8906C68.4375 88.8281 68.4688 88.7292 68.4688 88.5938V87.2656C68.4688 87.1302 68.4375 87.0365 68.375 86.9844C68.3229 86.9219 68.2292 86.8906 68.0938 86.8906H64.0625ZM56.7969 85.9688C56.7969 85.9479 56.7969 85.9271 56.7969 85.9062C56.7969 85.8854 56.8125 85.8594 56.8438 85.8281C56.875 85.7969 56.9167 85.7812 56.9688 85.7812C57.0312 85.7812 57.0833 85.7865 57.125 85.7969L57.8594 85.9531L58.1719 86.0625L58.5 86.2031L58.7656 86.3438L59.0469 86.5L59.2812 86.6719L59.5156 86.875L59.7188 87.1094L59.7656 87.5781L59.5 87.9531L59.0469 88L58.6875 87.75L58.5156 87.4062L58.375 87.25L58.2344 87.0781L57.8281 86.75L57.5781 86.5625L56.9375 86.1562C56.8542 86.0833 56.8073 86.0208 56.7969 85.9688ZM63.6875 86.0156C63.6875 86.1406 63.7135 86.2344 63.7656 86.2969C63.8281 86.349 63.9271 86.375 64.0625 86.375H68.0938C68.2292 86.375 68.3229 86.349 68.375 86.2969C68.4375 86.2344 68.4688 86.1406 68.4688 86.0156V84.75C68.4688 84.6146 68.4375 84.5208 68.375 84.4688C68.3229 84.4062 68.2292 84.375 68.0938 84.375H64.0625C63.9271 84.375 63.8281 84.4062 63.7656 84.4688C63.7135 84.5208 63.6875 84.6146 63.6875 84.75V86.0156ZM58.1719 82.0938C58.1719 82.0833 58.1719 82.0677 58.1719 82.0469C58.1719 82.026 58.1875 82 58.2188 81.9688C58.25 81.9375 58.2917 81.9219 58.3438 81.9219C58.4062 81.9219 58.4583 81.9271 58.5 81.9375L58.8438 82.0156L59.4844 82.2188L59.7812 82.3438L60.0625 82.4844L60.3281 82.6406L60.5625 82.8125L60.7812 83.0156L61 83.2344L61.0781 83.6719L60.8438 84.0625L60.375 84.1562L60 83.9062L59.9062 83.7188L59.7969 83.5625L59.5156 83.2031L59.3281 83.0469L59.1094 82.875L58.625 82.5156L58.2969 82.3125C58.224 82.2188 58.1823 82.1458 58.1719 82.0938ZM86.8125 92.7188C86.8854 92.6354 86.9427 92.5938 86.9844 92.5938C87.026 92.5938 87.0625 92.6094 87.0938 92.6406C87.125 92.6719 87.1406 92.7292 87.1406 92.8125C87.1406 92.8229 87.1146 93.0833 87.0625 93.5938C87.0208 94.1042 87 94.3646 87 94.375C87 94.5625 87.0833 94.7188 87.25 94.8438C87.3333 94.9583 87.375 95.0781 87.375 95.2031C87.375 95.3281 87.3333 95.4479 87.25 95.5625L86.9219 95.7969H82.1875L81.9531 95.7812L81.7188 95.75L81.5 95.6719L81.2969 95.5625L81.1094 95.4062L80.9844 95.2188L80.8594 95.0156L80.7812 94.7969L80.75 94.5781V91.2031C80.75 91.0781 80.7188 90.9896 80.6562 90.9375C80.6042 90.875 80.5104 90.8438 80.375 90.8438L79.3125 91C79.3229 91.0312 79.3281 91.0677 79.3281 91.1094C79.3281 91.151 79.3073 91.1927 79.2656 91.2344C79.224 91.2656 79.1771 91.2917 79.125 91.3125L78.9844 91.7812L78.6406 92.5625L78.2188 93.2969L77.6719 93.9219L77.0625 94.5156L76.3281 95.0156L75.5312 95.4531L74.6562 95.8125L73.6719 96.0781L72.6406 95.9375L73.5312 95.5938L74.4062 95.2188L75.1875 94.7969L75.8594 94.3281L76.4531 93.8438L76.9375 93.2969L77.3438 92.7188L77.6562 92.1094L77.8906 91.4375C77.9427 91.2292 77.9688 91.099 77.9688 91.0469C77.9688 90.9115 77.875 90.8438 77.6875 90.8438H76.9375C76.8125 90.8438 76.7188 90.875 76.6562 90.9375C76.5938 91 76.5625 91.1146 76.5625 91.2812C76.5625 91.6354 76.4115 91.8854 76.1094 92.0312L75.9375 92.125C75.8333 92.1771 75.7396 92.2031 75.6562 92.2031C75.5833 92.2031 75.5156 92.1771 75.4531 92.125C75.401 92.0625 75.375 91.9531 75.375 91.7969V82.2344C75.375 82.0781 75.4062 81.9688 75.4688 81.9062C75.5312 81.8438 75.599 81.8125 75.6719 81.8125C75.7448 81.8125 75.8333 81.8385 75.9375 81.8906L76.4844 82.1719H83.5L83.6094 82.0625C83.7552 81.9479 83.8958 81.8906 84.0312 81.8906C84.1667 81.8906 84.3073 81.9479 84.4531 82.0625L84.6719 82.2656L84.7344 82.4844C84.6615 82.7969 84.625 83.1042 84.625 83.4062V90.7812C84.625 91.1354 84.4688 91.3854 84.1562 91.5312L84 91.625C83.9062 91.6771 83.8229 91.7031 83.75 91.7031C83.6771 91.7031 83.6094 91.6771 83.5469 91.625C83.474 91.5417 83.4375 91.4219 83.4375 91.2656C83.4375 91.099 83.4062 90.9896 83.3438 90.9375C83.2917 90.875 83.1979 90.8438 83.0625 90.8438H82.3125C82.1771 90.8438 82.0781 90.875 82.0156 90.9375C81.9635 90.9896 81.9375 91.0833 81.9375 91.2188L82.25 94.25C82.2604 94.3646 82.2969 94.4531 82.3594 94.5156C82.4219 94.5781 82.5208 94.6094 82.6562 94.6094H85.9219C86.0677 94.6094 86.1771 94.5729 86.25 94.5C86.3125 94.4375 86.3594 94.3438 86.3906 94.2188L86.8125 92.7188ZM76.9375 88.0781C76.8021 88.0781 76.7031 88.1094 76.6406 88.1719C76.5885 88.224 76.5625 88.3177 76.5625 88.4531V89.9375C76.5625 90.0729 76.5885 90.1719 76.6406 90.2344C76.7031 90.2865 76.8021 90.3125 76.9375 90.3125H83.0625C83.1979 90.3125 83.2917 90.2865 83.3438 90.2344C83.4062 90.1719 83.4375 90.0729 83.4375 89.9375V88.4531C83.4375 88.3177 83.4062 88.224 83.3438 88.1719C83.2917 88.1094 83.1979 88.0781 83.0625 88.0781H76.9375ZM76.9375 85.3906C76.8021 85.3906 76.7031 85.4219 76.6406 85.4844C76.5885 85.5365 76.5625 85.6302 76.5625 85.7656V87.1719C76.5625 87.3073 76.5885 87.4062 76.6406 87.4688C76.7031 87.5208 76.8021 87.5469 76.9375 87.5469H83.0625C83.1979 87.5469 83.2917 87.5208 83.3438 87.4688C83.4062 87.4062 83.4375 87.3073 83.4375 87.1719V85.7656C83.4375 85.6302 83.4062 85.5365 83.3438 85.4844C83.2917 85.4219 83.1979 85.3906 83.0625 85.3906H76.9375ZM76.9375 82.7031C76.8021 82.7031 76.7031 82.7344 76.6406 82.7969C76.5885 82.849 76.5625 82.9427 76.5625 83.0781V84.4844C76.5625 84.6198 76.5885 84.7188 76.6406 84.7812C76.7031 84.8333 76.8021 84.8594 76.9375 84.8594H83.0625C83.1979 84.8594 83.2917 84.8333 83.3438 84.7812C83.4062 84.7188 83.4375 84.6198 83.4375 84.4844V83.0781C83.4375 82.9427 83.4062 82.849 83.3438 82.7969C83.2917 82.7344 83.1979 82.7031 83.0625 82.7031H76.9375ZM91.3906 94.9062C91.3906 95.2604 91.2344 95.5104 90.9219 95.6562L90.75 95.75C90.6458 95.8021 90.5573 95.8281 90.4844 95.8281C90.4115 95.8281 90.3438 95.7969 90.2812 95.7344C90.2188 95.6719 90.1875 95.5625 90.1875 95.4062V85.6719C90.1875 85.5156 90.2188 85.4062 90.2812 85.3438C90.3438 85.2812 90.4115 85.25 90.4844 85.25C90.5573 85.25 90.6458 85.276 90.75 85.3281L91.3125 85.6094H93.75C94.0208 85.6094 94.2188 85.4896 94.3438 85.25L94.7812 84.4375L95.2656 83.4531C95.276 83.401 95.2812 83.3646 95.2812 83.3438C95.2812 83.3229 95.276 83.3073 95.2656 83.2969C95.2552 83.2865 95.2188 83.2812 95.1562 83.2812L89.4375 83.2031C89.375 83.1615 89.3229 83.1198 89.2812 83.0781C89.2396 83.026 89.2188 82.9792 89.2188 82.9375C89.2188 82.8229 89.3333 82.7656 89.5625 82.7656H101.172L101.656 82.2812C101.792 82.1458 101.927 82.0781 102.062 82.0781C102.198 82.0781 102.333 82.1302 102.469 82.2344L103.156 82.8125V82.8594C103.156 82.9948 103.12 83.099 103.047 83.1719C102.974 83.2448 102.87 83.2812 102.734 83.2812H97.0312C96.7604 83.2812 96.5521 83.401 96.4062 83.6406L96.2031 83.9688L95.7656 84.625L95.2656 85.2188L95.0625 85.4375C95.0104 85.5 94.9792 85.5469 94.9688 85.5781C95.0104 85.599 95.0729 85.6094 95.1562 85.6094H100.844L100.953 85.5156C101.099 85.401 101.24 85.3438 101.375 85.3438C101.521 85.3438 101.661 85.3958 101.797 85.5L102.016 85.7031L102.078 85.9219C102.005 86.2344 101.969 86.5417 101.969 86.8438V94.3906C101.969 94.7448 101.818 94.9948 101.516 95.1406L101.344 95.2344C101.25 95.2865 101.161 95.3125 101.078 95.3125C101.005 95.3125 100.943 95.2865 100.891 95.2344C100.818 95.1615 100.781 95.0417 100.781 94.875C100.781 94.7083 100.75 94.599 100.688 94.5469C100.635 94.4844 100.542 94.4531 100.406 94.4531H91.7656C91.651 94.4531 91.5573 94.4896 91.4844 94.5625C91.4219 94.625 91.3906 94.7396 91.3906 94.9062ZM91.7656 86.1406C91.6302 86.1406 91.5312 86.1719 91.4688 86.2344C91.4167 86.2865 91.3906 86.3802 91.3906 86.5156V93.5625C91.3906 93.6979 91.4167 93.7969 91.4688 93.8594C91.5312 93.9115 91.6302 93.9375 91.7656 93.9375H93.2656C93.401 93.9375 93.4948 93.9115 93.5469 93.8594C93.6094 93.7969 93.6406 93.6979 93.6406 93.5625V86.5156C93.6406 86.3802 93.6094 86.2865 93.5469 86.2344C93.4948 86.1719 93.401 86.1406 93.2656 86.1406H91.7656ZM95.2031 91.5938C95.0677 91.5938 94.9688 91.625 94.9062 91.6875C94.8542 91.7396 94.8281 91.8333 94.8281 91.9688V93.5625C94.8281 93.6979 94.8542 93.7969 94.9062 93.8594C94.9688 93.9115 95.0677 93.9375 95.2031 93.9375H96.9531C97.0885 93.9375 97.1823 93.9115 97.2344 93.8594C97.2969 93.7969 97.3281 93.6979 97.3281 93.5625V91.9688C97.3281 91.8333 97.2969 91.7396 97.2344 91.6875C97.1823 91.625 97.0885 91.5938 96.9531 91.5938H95.2031ZM98.9062 86.1406C98.7708 86.1406 98.6719 86.1719 98.6094 86.2344C98.5573 86.2865 98.5312 86.3802 98.5312 86.5156V93.5625C98.5312 93.6979 98.5573 93.7969 98.6094 93.8594C98.6719 93.9115 98.7708 93.9375 98.9062 93.9375H100.406C100.542 93.9375 100.635 93.9115 100.688 93.8594C100.75 93.7969 100.781 93.6979 100.781 93.5625V86.5156C100.781 86.3802 100.75 86.2865 100.688 86.2344C100.635 86.1719 100.542 86.1406 100.406 86.1406H98.9062ZM95.2031 88.75C95.0677 88.75 94.9688 88.7812 94.9062 88.8438C94.8542 88.8958 94.8281 88.9896 94.8281 89.125V90.7031C94.8281 90.8385 94.8542 90.9375 94.9062 91C94.9688 91.0521 95.0677 91.0781 95.2031 91.0781H96.9531C97.0885 91.0781 97.1823 91.0521 97.2344 91C97.2969 90.9375 97.3281 90.8385 97.3281 90.7031V89.125C97.3281 88.9896 97.2969 88.8958 97.2344 88.8438C97.1823 88.7812 97.0885 88.75 96.9531 88.75H95.2031ZM95.2031 86.1406C95.0677 86.1406 94.9688 86.1719 94.9062 86.2344C94.8542 86.2865 94.8281 86.3802 94.8281 86.5156V87.8438C94.8281 87.9792 94.8542 88.0781 94.9062 88.1406C94.9688 88.1927 95.0677 88.2188 95.2031 88.2188H96.9531C97.0885 88.2188 97.1823 88.1927 97.2344 88.1406C97.2969 88.0781 97.3281 87.9792 97.3281 87.8438V86.5156C97.3281 86.3802 97.2969 86.2865 97.2344 86.2344C97.1823 86.1719 97.0885 86.1406 96.9531 86.1406H95.2031Z" fill="white"/>
<path d="M64.835 16V48.6837H88.7038L64.835 16Z" stroke="white" stroke-width="1.5" stroke-miterlimit="10" stroke-linecap="round" stroke-linejoin="round"/>
<path d="M84.1473 62.0865C87.9793 58.9476 90.3824 53.915 90.3824 53.915H35.4572C35.4572 53.915 33.9139 58.9764 39.0232 62.1153" stroke="white" stroke-width="1.5" stroke-miterlimit="10" stroke-linecap="round" stroke-linejoin="round"/>
<path d="M60.0613 23.5725V48.6832H45.3408L60.0613 23.5725Z" stroke="white" stroke-width="1.5" stroke-miterlimit="10" stroke-linecap="round" stroke-linejoin="round"/>
<path d="M64.835 16.2488V53.9148" stroke="white" stroke-width="1.5" stroke-miterlimit="10" stroke-linecap="round" stroke-linejoin="round"/>
<path d="M22 61.0933C24.2599 61.0933 28.7797 63.8008 33.2995 63.8008C37.8193 63.8008 40.8324 61.0933 45.3522 61.0933C49.872 61.0933 53.6385 63.8008 57.405 63.8008C61.1715 63.8008 62.6781 61.0933 68.7045 61.0933" stroke="white" stroke-width="1.5" stroke-miterlimit="10" stroke-linecap="round" stroke-linejoin="round"/>
<path d="M57.9922 67.8474C60.3495 67.7833 64.9904 64.9485 69.7049 64.8202C74.4195 64.6919 77.6362 67.3129 82.3507 67.1846C87.0653 67.0563 90.9204 64.2429 94.8492 64.136C98.778 64.029 100.423 66.6928 106.709 66.5217" stroke="white" stroke-width="1.5" stroke-miterlimit="10" stroke-linecap="round" stroke-linejoin="round"/>
</svg>
